<svg xmlns="http://www.w3.org/2000/svg" xmlns:xlink="http://www.w3.org/1999/xlink" width="170" zoomAndPan="magnify" viewBox="0 0 127.5 30.000001" height="40" preserveAspectRatio="xMidYMid meet" version="1.0"><defs><clipPath id="0254d4f54b"><path d="M 1.816406 0 L 125.203125 0 L 125.203125 29.03125 L 1.816406 29.03125 Z M 1.816406 0 " clip-rule="nonzero"/></clipPath><clipPath id="cccecf43b4"><path d="M 12 0 L 90 0 L 90 29.03125 L 12 29.03125 Z M 12 0 " clip-rule="nonzero"/></clipPath><clipPath id="3d2b6ccf55"><path d="M 11.449219 3.066406 L 88.1875 -2.441406 L 90.210938 25.792969 L 13.476562 31.300781 Z M 11.449219 3.066406 " clip-rule="nonzero"/></clipPath><clipPath id="bda7b64adc"><path d="M 11.449219 3.066406 L 88.1875 -2.441406 L 90.210938 25.792969 L 13.476562 31.300781 Z M 11.449219 3.066406 " clip-rule="nonzero"/></clipPath><clipPath id="eaa4372b73"><path d="M 11.449219 3.066406 L 88.1875 -2.441406 L 90.210938 25.792969 L 13.476562 31.300781 Z M 11.449219 3.066406 " clip-rule="nonzero"/></clipPath><clipPath id="4353149015"><path d="M 11 0 L 90 0 L 90 29 L 11 29 Z M 11 0 " clip-rule="nonzero"/></clipPath><clipPath id="4c5a989379"><path d="M 11.449219 3.066406 L 88.1875 -2.441406 L 90.210938 25.792969 L 13.476562 31.300781 Z M 11.449219 3.066406 " clip-rule="nonzero"/></clipPath><clipPath id="ce4340aee2"><path d="M 11.449219 3.066406 L 88.1875 -2.441406 L 90.210938 25.792969 L 13.476562 31.300781 Z M 11.449219 3.066406 " clip-rule="nonzero"/></clipPath><clipPath id="e7f8bb78d3"><path d="M 11.449219 3.066406 L 88.1875 -2.441406 L 90.210938 25.792969 L 13.476562 31.300781 Z M 11.449219 3.066406 " clip-rule="nonzero"/></clipPath><clipPath id="6f74344637"><path d="M 14 1 L 88 1 L 88 27 L 14 27 Z M 14 1 " clip-rule="nonzero"/></clipPath><clipPath id="d92440800d"><path d="M 11.449219 3.066406 L 88.1875 -2.441406 L 90.210938 25.792969 L 13.476562 31.300781 Z M 11.449219 3.066406 " clip-rule="nonzero"/></clipPath><clipPath id="ea831e50f3"><path d="M 11.449219 3.066406 L 88.1875 -2.441406 L 90.210938 25.792969 L 13.476562 31.300781 Z M 11.449219 3.066406 " clip-rule="nonzero"/></clipPath><clipPath id="c84f25180e"><path d="M 11.449219 3.066406 L 88.1875 -2.441406 L 90.210938 25.792969 L 13.476562 31.300781 Z M 11.449219 3.066406 " clip-rule="nonzero"/></clipPath><clipPath id="9031f443fa"><path d="M 14 0 L 88 0 L 88 26 L 14 26 Z M 14 0 " clip-rule="nonzero"/></clipPath><clipPath id="a8aa745e30"><path d="M 11.449219 3.066406 L 88.1875 -2.441406 L 90.210938 25.792969 L 13.476562 31.300781 Z M 11.449219 3.066406 " clip-rule="nonzero"/></clipPath><clipPath id="5dda2bf181"><path d="M 11.449219 3.066406 L 88.1875 -2.441406 L 90.210938 25.792969 L 13.476562 31.300781 Z M 11.449219 3.066406 " clip-rule="nonzero"/></clipPath><clipPath id="2cfc90c38c"><path d="M 11.449219 3.066406 L 88.1875 -2.441406 L 90.210938 25.792969 L 13.476562 31.300781 Z M 11.449219 3.066406 " clip-rule="nonzero"/></clipPath><clipPath id="3ed6f03c30"><path d="M 87.460938 1.070312 L 112.863281 1.070312 L 112.863281 26.476562 L 87.460938 26.476562 Z M 87.460938 1.070312 " clip-rule="nonzero"/></clipPath></defs><g clip-path="url(#0254d4f54b)"><path fill="#ffffff" d="M 1.816406 0 L 125.203125 0 L 125.203125 29.03125 L 1.816406 29.03125 Z M 1.816406 0 " fill-opacity="1" fill-rule="nonzero"/><path fill="#ffffff" d="M 1.816406 0 L 125.203125 0 L 125.203125 29.03125 L 1.816406 29.03125 Z M 1.816406 0 " fill-opacity="1" fill-rule="nonzero"/></g><g clip-path="url(#cccecf43b4)"><g clip-path="url(#3d2b6ccf55)"><g clip-path="url(#bda7b64adc)"><g clip-path="url(#eaa4372b73)"><path fill="#ff9740" d="M 70.53125 8.875 C 68.917969 7.78125 66.902344 7.289062 64.464844 7.464844 C 61.527344 7.675781 59.15625 8.78125 57.328125 10.722656 C 57.015625 11.050781 56.734375 11.394531 56.480469 11.753906 C 54.65625 9.46875 52.039062 8.355469 48.554688 8.605469 C 46.652344 8.742188 44.984375 9.257812 43.550781 10.132812 L 43.5625 10.082031 C 43.566406 10.074219 43.566406 10.0625 43.570312 10.054688 C 43.84375 8.996094 43.902344 8.269531 43.875 7.898438 C 43.765625 6.359375 42.753906 4.816406 40.09375 4.078125 C 39.253906 3.839844 38.523438 3.765625 37.914062 3.8125 C 36.933594 3.882812 36.144531 4.234375 35.519531 4.792969 C 34.929688 5.320312 34.578125 5.875 34.382812 6.394531 C 34.285156 6.652344 34.164062 7.042969 34.019531 7.574219 C 34.015625 7.585938 34.011719 7.601562 34.007812 7.617188 L 33.445312 9.832031 L 32.441406 7.417969 C 32.429688 7.386719 32.417969 7.359375 32.402344 7.328125 C 32.117188 6.710938 31.578125 6.042969 30.648438 5.449219 C 29.738281 4.867188 28.777344 4.632812 27.777344 4.707031 C 26.898438 4.769531 26.199219 4.976562 25.664062 5.257812 C 24.378906 5.921875 23.503906 6.992188 23.109375 8.523438 L 22.582031 10.578125 L 21.730469 8.519531 C 21.367188 7.585938 20.945312 6.917969 20.542969 6.476562 C 19.789062 5.652344 18.792969 5.210938 17.492188 5.304688 C 16.820312 5.355469 16.070312 5.53125 15.257812 5.878906 C 12.699219 6.957031 11.910156 8.628906 12.019531 10.183594 C 12.054688 10.644531 12.21875 11.351562 12.605469 12.277344 C 12.609375 12.285156 12.613281 12.296875 12.617188 12.304688 L 19.074219 27.195312 C 19.105469 27.273438 19.144531 27.347656 19.183594 27.421875 L 19.410156 27.820312 C 19.71875 28.375 20.246094 28.960938 21.082031 29.476562 C 21.886719 29.976562 22.871094 30.242188 24.066406 30.15625 C 25.335938 30.0625 26.398438 29.539062 27.246094 28.566406 C 27.519531 28.257812 27.753906 27.914062 27.957031 27.542969 C 28.203125 27.09375 28.332031 26.738281 28.394531 26.496094 C 28.410156 26.441406 28.617188 25.652344 29.019531 24.121094 L 30.109375 26.691406 C 30.136719 26.757812 30.167969 26.820312 30.199219 26.882812 C 30.507812 27.457031 31.035156 28.070312 31.886719 28.628906 C 32.753906 29.195312 33.75 29.460938 34.878906 29.378906 C 36.007812 29.296875 36.953125 28.894531 37.734375 28.207031 C 38.511719 27.523438 38.898438 26.917969 39.0625 26.527344 C 39.199219 26.203125 39.285156 25.925781 39.339844 25.691406 L 39.96875 23.375 C 40.394531 24.214844 40.945312 25.003906 41.617188 25.75 C 42.519531 26.761719 43.722656 27.5625 45.246094 28.105469 C 46.648438 28.605469 48.222656 28.808594 49.96875 28.683594 C 52.972656 28.46875 55.011719 27.808594 56.160156 26.976562 C 56.984375 26.378906 57.519531 25.679688 57.796875 24.894531 C 58.664062 25.769531 59.777344 26.472656 61.15625 26.964844 C 62.558594 27.464844 64.128906 27.667969 65.875 27.542969 C 68.882812 27.328125 70.921875 26.667969 72.070312 25.835938 C 72.316406 25.65625 72.535156 25.46875 72.730469 25.273438 C 73.488281 26.003906 74.757812 26.542969 76.707031 26.40625 C 79.105469 26.230469 80.335938 25.195312 80.832031 24.1875 C 81.082031 24.382812 81.292969 24.542969 81.472656 24.667969 C 81.523438 24.707031 81.582031 24.742188 81.636719 24.773438 L 81.898438 24.929688 C 83.273438 25.789062 84.390625 26.019531 85.128906 25.964844 C 86.113281 25.894531 87.402344 25.308594 88.574219 23.640625 C 88.589844 23.617188 88.605469 23.597656 88.617188 23.574219 C 89.546875 22.15625 89.800781 20.992188 89.746094 20.207031 C 89.703125 19.628906 89.511719 19.023438 89.089844 18.417969 C 88.863281 18.09375 88.386719 17.59375 87.566406 17.007812 C 87.5625 17.003906 87.558594 17 87.550781 16.996094 L 86.054688 15.9375 L 86.515625 15.492188 C 87.890625 14.167969 88.246094 12.894531 88.179688 11.992188 C 88.125 11.222656 87.691406 10.089844 86.496094 8.8125 C 85.128906 7.347656 83.789062 6.964844 82.824219 7.03125 C 82.109375 7.082031 81.253906 7.367188 80.332031 8.035156 L 80.09375 4.714844 C 80.066406 4.3125 80.027344 4 79.992188 3.777344 C 79.832031 2.441406 79.222656 1.535156 78.402344 0.953125 C 77.667969 0.425781 76.507812 0.0429688 74.851562 0.164062 C 72.351562 0.34375 71.105469 1.457031 70.636719 2.542969 C 70.621094 2.574219 70.609375 2.605469 70.597656 2.640625 C 70.378906 3.203125 70.277344 3.699219 70.253906 4.121094 C 70.238281 4.40625 70.242188 4.828125 70.28125 5.394531 L 70.53125 8.878906 Z M 34.480469 24.636719 L 34.5 24.59375 L 34.5 24.601562 C 34.496094 24.609375 34.488281 24.621094 34.480469 24.636719 L 34.476562 24.648438 C 34.476562 24.644531 34.480469 24.636719 34.480469 24.636719 Z M 34.480469 24.488281 C 34.472656 24.496094 34.464844 24.5 34.460938 24.507812 L 34.449219 24.519531 L 34.4375 24.527344 C 34.4375 24.527344 34.445312 24.523438 34.449219 24.519531 Z M 35.949219 19.230469 L 34.542969 24.429688 L 34.539062 24.433594 L 32.496094 19.617188 C 32.972656 19.984375 33.574219 20.175781 34.203125 20.132812 C 34.902344 20.078125 35.527344 19.742188 35.949219 19.230469 Z M 23.585938 25.132812 L 21.449219 20.210938 C 21.941406 20.664062 22.613281 20.90625 23.3125 20.859375 C 23.957031 20.8125 24.539062 20.523438 24.957031 20.074219 L 23.621094 25.148438 L 23.609375 25.171875 Z M 75.910156 14.453125 C 76.152344 15.117188 76.671875 15.65625 77.355469 15.914062 C 78.195312 16.234375 79.144531 16.074219 79.832031 15.507812 C 79.738281 15.800781 79.699219 16.117188 79.726562 16.429688 C 79.742188 16.671875 79.796875 16.902344 79.882812 17.121094 C 79.125 16.691406 78.1875 16.6875 77.417969 17.125 C 76.792969 17.480469 76.363281 18.082031 76.21875 18.761719 Z M 59.996094 15.671875 C 59.765625 16.347656 59.691406 17.101562 59.75 17.933594 C 59.792969 18.535156 59.925781 19.101562 60.144531 19.632812 L 60.125 19.429688 C 60.09375 18.988281 60.179688 18.570312 60.359375 18.199219 C 60.09375 17.839844 59.925781 17.40625 59.890625 16.925781 C 59.859375 16.511719 59.890625 16.089844 59.996094 15.671875 Z M 44.089844 16.8125 C 43.859375 17.488281 43.78125 18.246094 43.839844 19.074219 C 43.882812 19.675781 44.015625 20.242188 44.238281 20.777344 L 44.214844 20.570312 C 44.183594 20.132812 44.269531 19.710938 44.449219 19.339844 C 44.183594 18.980469 44.015625 18.546875 43.980469 18.070312 C 43.953125 17.652344 43.984375 17.234375 44.089844 16.8125 Z M 27.976562 9.632812 L 27.988281 9.632812 C 27.988281 9.632812 30.042969 14.570312 30.042969 14.570312 C 29.5625 14.179688 28.941406 13.96875 28.289062 14.015625 C 27.628906 14.066406 27.03125 14.371094 26.609375 14.839844 L 27.917969 9.734375 C 27.925781 9.703125 27.921875 9.664062 27.9375 9.640625 Z M 27.976562 9.632812 " fill-opacity="1" fill-rule="evenodd"/></g></g></g></g><g clip-path="url(#4353149015)"><g clip-path="url(#4c5a989379)"><g clip-path="url(#ce4340aee2)"><g clip-path="url(#e7f8bb78d3)"><path fill="#ffffff" d="M 70.414062 7.238281 C 68.800781 6.140625 66.785156 5.648438 64.347656 5.824219 C 61.410156 6.035156 59.039062 7.140625 57.210938 9.085938 C 56.898438 9.414062 56.617188 9.753906 56.363281 10.113281 C 54.535156 7.828125 51.917969 6.71875 48.4375 6.96875 C 46.53125 7.105469 44.867188 7.617188 43.429688 8.492188 L 43.445312 8.441406 C 43.449219 8.433594 43.449219 8.425781 43.453125 8.417969 C 43.726562 7.359375 43.785156 6.632812 43.757812 6.257812 C 43.648438 4.71875 42.636719 3.179688 39.976562 2.441406 C 39.132812 2.199219 38.40625 2.128906 37.796875 2.171875 C 36.816406 2.242188 36.027344 2.597656 35.402344 3.15625 C 34.8125 3.679688 34.460938 4.234375 34.261719 4.757812 C 34.167969 5.011719 34.042969 5.40625 33.898438 5.933594 C 33.898438 5.949219 33.894531 5.964844 33.890625 5.976562 L 33.328125 8.195312 L 32.324219 5.777344 C 32.3125 5.75 32.296875 5.71875 32.285156 5.691406 C 32 5.074219 31.460938 4.402344 30.53125 3.808594 C 29.621094 3.230469 28.660156 2.996094 27.660156 3.066406 C 26.78125 3.128906 26.082031 3.339844 25.546875 3.617188 C 24.261719 4.28125 23.386719 5.355469 22.992188 6.886719 L 22.464844 8.941406 L 21.613281 6.882812 C 21.25 5.945312 20.828125 5.277344 20.425781 4.839844 C 19.671875 4.011719 18.675781 3.574219 17.375 3.667969 C 16.703125 3.714844 15.953125 3.894531 15.140625 4.238281 C 12.582031 5.316406 11.792969 6.992188 11.902344 8.542969 C 11.9375 9.003906 12.101562 9.710938 12.488281 10.636719 C 12.492188 10.648438 12.496094 10.65625 12.5 10.667969 L 18.957031 25.558594 C 18.988281 25.632812 19.027344 25.710938 19.066406 25.78125 L 19.292969 26.183594 C 19.601562 26.738281 20.128906 27.320312 20.964844 27.839844 C 21.769531 28.339844 22.753906 28.601562 23.945312 28.515625 C 25.21875 28.425781 26.28125 27.898438 27.128906 26.929688 C 27.402344 26.617188 27.636719 26.277344 27.839844 25.90625 C 28.085938 25.453125 28.214844 25.097656 28.277344 24.859375 C 28.292969 24.804688 28.5 24.011719 28.902344 22.484375 L 29.992188 25.050781 C 30.019531 25.117188 30.050781 25.179688 30.082031 25.242188 C 30.390625 25.820312 30.917969 26.433594 31.769531 26.988281 C 32.636719 27.554688 33.632812 27.820312 34.761719 27.742188 C 35.890625 27.660156 36.835938 27.253906 37.617188 26.570312 C 38.394531 25.882812 38.78125 25.28125 38.945312 24.886719 C 39.078125 24.566406 39.167969 24.285156 39.222656 24.050781 L 39.847656 21.734375 C 40.277344 22.574219 40.824219 23.367188 41.5 24.109375 C 42.402344 25.121094 43.601562 25.921875 45.128906 26.46875 C 46.53125 26.964844 48.101562 27.171875 49.851562 27.046875 C 52.855469 26.828125 54.894531 26.171875 56.042969 25.335938 C 56.867188 24.738281 57.402344 24.039062 57.679688 23.253906 C 58.546875 24.128906 59.660156 24.832031 61.039062 25.324219 C 62.441406 25.824219 64.011719 26.027344 65.757812 25.902344 C 68.761719 25.6875 70.804688 25.027344 71.953125 24.195312 C 72.195312 24.019531 72.417969 23.832031 72.613281 23.636719 C 73.371094 24.367188 74.640625 24.90625 76.589844 24.765625 C 78.988281 24.59375 80.21875 23.558594 80.714844 22.550781 C 80.964844 22.746094 81.175781 22.902344 81.351562 23.027344 C 81.40625 23.066406 81.460938 23.101562 81.519531 23.136719 L 81.78125 23.292969 C 83.15625 24.152344 84.273438 24.378906 85.011719 24.328125 C 85.996094 24.257812 87.285156 23.667969 88.453125 22.003906 C 88.472656 21.980469 88.488281 21.957031 88.5 21.933594 C 89.429688 20.519531 89.683594 19.355469 89.628906 18.566406 C 89.585938 17.992188 89.394531 17.386719 88.972656 16.777344 C 88.746094 16.457031 88.269531 15.957031 87.449219 15.371094 C 87.445312 15.367188 87.441406 15.363281 87.433594 15.359375 L 85.9375 14.300781 L 86.394531 13.851562 C 87.773438 12.53125 88.125 11.257812 88.0625 10.355469 C 88.007812 9.582031 87.574219 8.453125 86.378906 7.175781 C 85.011719 5.710938 83.671875 5.324219 82.707031 5.394531 C 81.992188 5.445312 81.136719 5.730469 80.214844 6.398438 L 79.976562 3.078125 C 79.949219 2.671875 79.910156 2.359375 79.875 2.140625 C 79.714844 0.800781 79.105469 -0.101562 78.285156 -0.6875 C 77.550781 -1.214844 76.386719 -1.59375 74.734375 -1.476562 C 72.234375 -1.296875 70.988281 -0.179688 70.515625 0.90625 C 70.503906 0.9375 70.492188 0.96875 70.476562 1 C 70.261719 1.5625 70.160156 2.0625 70.136719 2.484375 C 70.117188 2.765625 70.125 3.191406 70.164062 3.753906 Z M 34.363281 22.996094 L 34.382812 22.953125 L 34.382812 22.960938 C 34.378906 22.972656 34.371094 22.984375 34.363281 22.996094 L 34.359375 23.007812 C 34.359375 23.007812 34.359375 23 34.363281 22.996094 Z M 34.363281 22.851562 C 34.355469 22.855469 34.347656 22.863281 34.34375 22.871094 L 34.332031 22.878906 L 34.320312 22.890625 C 34.320312 22.890625 34.328125 22.882812 34.332031 22.878906 Z M 35.832031 17.589844 L 34.425781 22.792969 L 34.421875 22.792969 L 32.378906 17.980469 C 32.851562 18.347656 33.457031 18.539062 34.085938 18.492188 C 34.785156 18.441406 35.410156 18.105469 35.832031 17.589844 Z M 23.46875 23.492188 L 21.332031 18.570312 C 21.824219 19.023438 22.492188 19.269531 23.195312 19.21875 C 23.835938 19.171875 24.421875 18.882812 24.839844 18.433594 L 23.503906 23.507812 L 23.492188 23.535156 Z M 75.792969 12.816406 C 76.03125 13.476562 76.554688 14.015625 77.234375 14.277344 C 78.078125 14.597656 79.023438 14.4375 79.710938 13.871094 C 79.621094 14.164062 79.582031 14.476562 79.609375 14.792969 C 79.625 15.03125 79.679688 15.265625 79.765625 15.484375 C 79.007812 15.050781 78.070312 15.046875 77.300781 15.484375 C 76.671875 15.839844 76.246094 16.441406 76.101562 17.121094 Z M 59.878906 14.03125 C 59.648438 14.707031 59.574219 15.464844 59.632812 16.292969 C 59.675781 16.894531 59.808594 17.460938 60.027344 17.996094 L 60.007812 17.789062 C 59.976562 17.351562 60.0625 16.929688 60.242188 16.558594 C 59.976562 16.199219 59.804688 15.765625 59.773438 15.289062 C 59.742188 14.871094 59.773438 14.453125 59.878906 14.03125 Z M 43.96875 15.175781 C 43.738281 15.851562 43.664062 16.605469 43.722656 17.4375 C 43.765625 18.035156 43.898438 18.605469 44.121094 19.136719 L 44.097656 18.929688 C 44.066406 18.492188 44.152344 18.074219 44.332031 17.703125 C 44.066406 17.34375 43.898438 16.90625 43.863281 16.429688 C 43.835938 16.015625 43.863281 15.59375 43.96875 15.175781 Z M 27.855469 7.992188 L 27.871094 7.992188 C 27.871094 7.992188 29.925781 12.929688 29.925781 12.929688 C 29.445312 12.539062 28.824219 12.332031 28.171875 12.378906 C 27.511719 12.425781 26.914062 12.730469 26.492188 13.203125 L 27.800781 8.097656 C 27.808594 8.0625 27.804688 8.027344 27.820312 8 Z M 27.855469 7.992188 " fill-opacity="1" fill-rule="evenodd"/></g></g></g></g><g clip-path="url(#6f74344637)"><g clip-path="url(#d92440800d)"><g clip-path="url(#ea831e50f3)"><g clip-path="url(#c84f25180e)"><path fill="#572716" d="M 55.675781 15.269531 C 55.753906 16.386719 55.53125 17.238281 55.007812 17.820312 C 54.480469 18.402344 53.875 18.71875 53.191406 18.765625 L 46.609375 19.238281 C 46.648438 19.753906 46.984375 20.160156 47.621094 20.464844 C 48.257812 20.769531 48.878906 20.902344 49.488281 20.859375 C 50.5625 20.78125 51.398438 20.609375 51.992188 20.34375 L 52.289062 20.214844 C 52.71875 19.980469 53.082031 19.851562 53.378906 19.832031 C 53.972656 19.789062 54.511719 20.164062 54.996094 20.960938 C 55.269531 21.4375 55.421875 21.851562 55.445312 22.199219 C 55.5625 23.832031 53.652344 24.789062 49.707031 25.074219 C 48.339844 25.171875 47.105469 25.027344 46.007812 24.632812 C 44.910156 24.242188 44.035156 23.683594 43.386719 22.953125 C 42.117188 21.554688 41.414062 19.933594 41.28125 18.097656 C 41.117188 15.785156 41.738281 13.882812 43.144531 12.390625 C 44.554688 10.898438 46.390625 10.070312 48.648438 9.90625 C 51.21875 9.722656 53.171875 10.484375 54.503906 12.199219 C 55.203125 13.105469 55.589844 14.128906 55.671875 15.265625 Z M 71.582031 14.125 C 71.664062 15.246094 71.441406 16.09375 70.914062 16.675781 C 70.390625 17.257812 69.785156 17.574219 69.097656 17.625 L 62.519531 18.097656 C 62.554688 18.609375 62.890625 19.019531 63.527344 19.324219 C 64.164062 19.628906 64.785156 19.757812 65.398438 19.714844 C 66.472656 19.636719 67.304688 19.46875 67.902344 19.203125 L 68.199219 19.070312 C 68.628906 18.835938 68.992188 18.710938 69.289062 18.6875 C 69.878906 18.644531 70.417969 19.023438 70.902344 19.816406 C 71.179688 20.296875 71.328125 20.710938 71.355469 21.058594 C 71.472656 22.691406 69.558594 23.648438 65.617188 23.929688 C 64.246094 24.03125 63.011719 23.882812 61.914062 23.492188 C 60.816406 23.101562 59.945312 22.539062 59.296875 21.8125 C 58.023438 20.410156 57.320312 18.792969 57.191406 16.957031 C 57.023438 14.644531 57.644531 12.742188 59.054688 11.25 C 60.464844 9.753906 62.296875 8.925781 64.554688 8.765625 C 67.128906 8.578125 69.082031 9.34375 70.414062 11.054688 C 71.109375 11.964844 71.5 12.988281 71.582031 14.125 Z M 82.117188 15.085938 L 86.027344 17.847656 C 86.519531 18.199219 86.828125 18.472656 86.964844 18.664062 C 87.097656 18.859375 87.171875 19.046875 87.1875 19.230469 C 87.21875 19.667969 86.972656 20.289062 86.453125 21.078125 C 85.878906 21.894531 85.351562 22.320312 84.871094 22.355469 C 84.464844 22.386719 83.878906 22.160156 83.121094 21.679688 L 82.828125 21.507812 C 82.378906 21.1875 81.679688 20.625 80.726562 19.816406 C 79.777344 19.011719 79.054688 18.4375 78.566406 18.105469 L 78.71875 20.226562 C 78.75 20.648438 78.757812 20.964844 78.746094 21.175781 C 78.730469 21.390625 78.660156 21.640625 78.535156 21.925781 C 78.328125 22.421875 77.632812 22.710938 76.445312 22.792969 C 75.261719 22.878906 74.550781 22.683594 74.253906 22.207031 C 74.105469 21.9375 74.011719 21.703125 73.96875 21.492188 C 73.925781 21.285156 73.886719 20.96875 73.859375 20.546875 L 72.675781 4.058594 C 72.644531 3.636719 72.632812 3.320312 72.648438 3.105469 C 72.660156 2.894531 72.722656 2.644531 72.832031 2.359375 C 73.054688 1.847656 73.757812 1.546875 74.945312 1.460938 C 75.832031 1.398438 76.472656 1.507812 76.863281 1.792969 C 77.199219 2.027344 77.394531 2.421875 77.453125 2.96875 C 77.480469 3.132812 77.511719 3.390625 77.535156 3.738281 L 78.160156 12.460938 C 78.472656 12.164062 78.945312 11.660156 79.574219 10.949219 C 80.203125 10.242188 80.671875 9.738281 80.988281 9.4375 L 81.304688 9.195312 C 81.917969 8.652344 82.453125 8.363281 82.917969 8.332031 C 83.378906 8.296875 83.9375 8.632812 84.59375 9.332031 C 85.246094 10.03125 85.589844 10.59375 85.621094 11.015625 C 85.652344 11.4375 85.34375 11.957031 84.699219 12.574219 L 82.117188 15.082031 Z M 39.332031 5.292969 C 40.601562 5.644531 41.265625 6.1875 41.316406 6.921875 C 41.335938 7.160156 41.253906 7.617188 41.082031 8.292969 L 36.847656 23.949219 C 36.820312 24.082031 36.765625 24.242188 36.6875 24.433594 C 36.605469 24.621094 36.378906 24.882812 36.003906 25.214844 C 35.625 25.546875 35.164062 25.730469 34.621094 25.769531 C 34.074219 25.808594 33.589844 25.691406 33.171875 25.417969 C 32.75 25.144531 32.464844 24.863281 32.316406 24.582031 L 28.386719 15.316406 C 26.761719 21.484375 25.9375 24.621094 25.910156 24.734375 C 25.878906 24.847656 25.808594 25.011719 25.691406 25.222656 C 25.578125 25.433594 25.441406 25.625 25.289062 25.804688 C 24.890625 26.257812 24.398438 26.503906 23.804688 26.546875 C 23.214844 26.589844 22.71875 26.484375 22.320312 26.238281 C 21.921875 25.988281 21.644531 25.734375 21.496094 25.46875 L 21.273438 25.066406 L 14.816406 10.179688 C 14.570312 9.585938 14.433594 9.144531 14.414062 8.851562 C 14.359375 8.117188 14.941406 7.496094 16.148438 6.984375 C 16.671875 6.761719 17.152344 6.636719 17.585938 6.605469 C 18.023438 6.574219 18.367188 6.695312 18.617188 6.972656 C 18.871094 7.25 19.113281 7.683594 19.339844 8.277344 L 23.054688 17.25 L 25.429688 7.976562 C 25.632812 7.1875 26.066406 6.621094 26.730469 6.28125 C 27.019531 6.128906 27.398438 6.039062 27.871094 6.003906 C 28.34375 5.972656 28.792969 6.089844 29.222656 6.363281 C 29.652344 6.636719 29.929688 6.917969 30.0625 7.203125 L 33.941406 16.523438 L 36.332031 7.054688 C 36.449219 6.625 36.546875 6.304688 36.625 6.09375 C 36.703125 5.886719 36.859375 5.675781 37.097656 5.464844 C 37.332031 5.257812 37.636719 5.136719 38.003906 5.109375 C 38.375 5.085938 38.816406 5.144531 39.328125 5.292969 Z M 49.875 16.484375 C 50.578125 16.433594 50.90625 16.117188 50.867188 15.53125 C 50.835938 15.109375 50.648438 14.78125 50.304688 14.546875 C 49.964844 14.3125 49.492188 14.21875 48.890625 14.261719 C 48.289062 14.304688 47.710938 14.589844 47.152344 15.117188 C 46.59375 15.648438 46.335938 16.1875 46.375 16.738281 Z M 65.78125 15.34375 C 66.484375 15.292969 66.816406 14.976562 66.773438 14.386719 C 66.742188 13.964844 66.558594 13.636719 66.214844 13.402344 C 65.875 13.171875 65.402344 13.074219 64.800781 13.117188 C 64.199219 13.160156 63.617188 13.449219 63.0625 13.976562 C 62.503906 14.503906 62.246094 15.042969 62.285156 15.59375 Z M 65.78125 15.34375 " fill-opacity="1" fill-rule="nonzero"/></g></g></g></g><g clip-path="url(#9031f443fa)"><g clip-path="url(#a8aa745e30)"><g clip-path="url(#5dda2bf181)"><g clip-path="url(#2cfc90c38c)"><path fill="#bc5952" d="M 55.582031 13.964844 C 55.660156 15.085938 55.4375 15.9375 54.914062 16.519531 C 54.386719 17.101562 53.78125 17.414062 53.097656 17.464844 L 46.515625 17.9375 C 46.554688 18.453125 46.890625 18.859375 47.527344 19.164062 C 48.164062 19.46875 48.785156 19.601562 49.398438 19.554688 C 50.46875 19.480469 51.304688 19.308594 51.898438 19.042969 L 52.195312 18.914062 C 52.625 18.679688 52.988281 18.550781 53.285156 18.53125 C 53.878906 18.488281 54.417969 18.863281 54.902344 19.660156 C 55.175781 20.136719 55.328125 20.550781 55.351562 20.898438 C 55.46875 22.53125 53.558594 23.488281 49.613281 23.773438 C 48.246094 23.871094 47.011719 23.722656 45.914062 23.332031 C 44.816406 22.941406 43.941406 22.382812 43.296875 21.652344 C 42.023438 20.25 41.320312 18.632812 41.1875 16.796875 C 41.023438 14.484375 41.644531 12.582031 43.050781 11.089844 C 44.460938 9.597656 46.296875 8.769531 48.554688 8.605469 C 51.125 8.421875 53.078125 9.183594 54.410156 10.894531 C 55.109375 11.804688 55.496094 12.828125 55.578125 13.964844 Z M 71.488281 12.824219 C 71.570312 13.945312 71.347656 14.792969 70.820312 15.375 C 70.296875 15.957031 69.691406 16.273438 69.003906 16.324219 L 62.425781 16.796875 C 62.460938 17.308594 62.800781 17.71875 63.433594 18.023438 C 64.070312 18.328125 64.691406 18.457031 65.304688 18.414062 C 66.378906 18.335938 67.210938 18.164062 67.808594 17.902344 L 68.105469 17.769531 C 68.535156 17.535156 68.898438 17.410156 69.195312 17.386719 C 69.785156 17.34375 70.324219 17.722656 70.808594 18.515625 C 71.085938 18.996094 71.238281 19.40625 71.261719 19.757812 C 71.378906 21.390625 69.464844 22.347656 65.523438 22.628906 C 64.152344 22.730469 62.921875 22.582031 61.820312 22.191406 C 60.722656 21.800781 59.851562 21.238281 59.203125 20.511719 C 57.929688 19.109375 57.226562 17.492188 57.097656 15.65625 C 56.929688 13.34375 57.550781 11.441406 58.960938 9.945312 C 60.371094 8.453125 62.203125 7.625 64.460938 7.464844 C 67.035156 7.277344 68.988281 8.042969 70.320312 9.753906 C 71.015625 10.664062 71.40625 11.6875 71.488281 12.824219 Z M 82.023438 13.785156 L 85.933594 16.546875 C 86.425781 16.898438 86.738281 17.167969 86.871094 17.363281 C 87.003906 17.558594 87.082031 17.746094 87.09375 17.929688 C 87.125 18.371094 86.878906 18.984375 86.359375 19.777344 C 85.785156 20.59375 85.257812 21.019531 84.777344 21.054688 C 84.371094 21.082031 83.789062 20.859375 83.027344 20.378906 L 82.734375 20.203125 C 82.285156 19.886719 81.585938 19.324219 80.632812 18.515625 C 79.683594 17.710938 78.960938 17.136719 78.472656 16.804688 L 78.625 18.921875 C 78.65625 19.34375 78.664062 19.664062 78.652344 19.875 C 78.640625 20.089844 78.570312 20.339844 78.441406 20.625 C 78.234375 21.121094 77.539062 21.410156 76.355469 21.496094 C 75.167969 21.578125 74.457031 21.382812 74.164062 20.90625 C 74.011719 20.640625 73.917969 20.402344 73.875 20.191406 C 73.832031 19.984375 73.792969 19.667969 73.765625 19.246094 L 72.582031 2.757812 C 72.550781 2.335938 72.542969 2.019531 72.554688 1.804688 C 72.566406 1.59375 72.628906 1.34375 72.738281 1.058594 C 72.960938 0.546875 73.664062 0.246094 74.851562 0.160156 C 75.738281 0.0976562 76.378906 0.207031 76.769531 0.492188 C 77.105469 0.726562 77.300781 1.121094 77.359375 1.667969 C 77.386719 1.832031 77.417969 2.089844 77.441406 2.4375 L 78.066406 11.160156 C 78.382812 10.863281 78.851562 10.359375 79.480469 9.648438 C 80.109375 8.941406 80.578125 8.4375 80.894531 8.136719 L 81.210938 7.894531 C 81.824219 7.351562 82.359375 7.0625 82.824219 7.03125 C 83.285156 6.996094 83.84375 7.332031 84.5 8.03125 C 85.15625 8.730469 85.496094 9.292969 85.527344 9.714844 C 85.558594 10.136719 85.25 10.65625 84.605469 11.273438 L 82.023438 13.78125 Z M 39.238281 3.992188 C 40.507812 4.339844 41.171875 4.882812 41.222656 5.617188 C 41.242188 5.859375 41.164062 6.316406 40.988281 6.992188 L 36.753906 22.648438 C 36.726562 22.78125 36.671875 22.941406 36.59375 23.132812 C 36.511719 23.320312 36.285156 23.582031 35.910156 23.914062 C 35.53125 24.246094 35.070312 24.429688 34.527344 24.46875 C 33.980469 24.507812 33.496094 24.390625 33.078125 24.117188 C 32.65625 23.84375 32.375 23.5625 32.222656 23.277344 L 28.292969 14.015625 C 26.671875 20.183594 25.84375 23.320312 25.816406 23.433594 C 25.785156 23.546875 25.714844 23.710938 25.597656 23.921875 C 25.484375 24.132812 25.347656 24.324219 25.195312 24.503906 C 24.796875 24.953125 24.304688 25.203125 23.710938 25.246094 C 23.121094 25.289062 22.625 25.183594 22.226562 24.9375 C 21.828125 24.6875 21.550781 24.433594 21.402344 24.167969 L 21.179688 23.765625 L 14.722656 8.878906 C 14.476562 8.285156 14.339844 7.84375 14.320312 7.550781 C 14.269531 6.816406 14.847656 6.195312 16.054688 5.683594 C 16.578125 5.460938 17.058594 5.335938 17.492188 5.304688 C 17.929688 5.273438 18.273438 5.394531 18.523438 5.671875 C 18.777344 5.949219 19.019531 6.382812 19.246094 6.976562 L 22.960938 15.949219 L 25.335938 6.675781 C 25.539062 5.886719 25.972656 5.320312 26.636719 4.980469 C 26.925781 4.828125 27.304688 4.738281 27.777344 4.703125 C 28.25 4.667969 28.699219 4.789062 29.128906 5.0625 C 29.558594 5.335938 29.835938 5.617188 29.96875 5.902344 L 33.847656 15.222656 L 36.238281 5.757812 C 36.355469 5.324219 36.453125 5.003906 36.53125 4.792969 C 36.609375 4.585938 36.765625 4.375 37.003906 4.167969 C 37.238281 3.957031 37.542969 3.835938 37.914062 3.808594 C 38.28125 3.785156 38.722656 3.84375 39.238281 3.992188 Z M 49.78125 15.183594 C 50.484375 15.132812 50.816406 14.816406 50.773438 14.226562 C 50.742188 13.804688 50.554688 13.480469 50.214844 13.246094 C 49.871094 13.011719 49.398438 12.917969 48.796875 12.960938 C 48.195312 13.003906 47.617188 13.289062 47.058594 13.816406 C 46.5 14.347656 46.242188 14.886719 46.28125 15.4375 Z M 65.6875 14.042969 C 66.390625 13.992188 66.722656 13.671875 66.679688 13.085938 C 66.652344 12.664062 66.464844 12.335938 66.121094 12.101562 C 65.78125 11.871094 65.308594 11.773438 64.707031 11.816406 C 64.105469 11.859375 63.527344 12.148438 62.96875 12.675781 C 62.410156 13.203125 62.152344 13.742188 62.191406 14.292969 Z M 65.6875 14.042969 " fill-opacity="1" fill-rule="nonzero"/></g></g></g></g><g clip-path="url(#3ed6f03c30)"><path fill="#bc5952" d="M 90 26.125 L 109.96875 26.125 C 110.308594 26.125 110.632812 26.058594 110.941406 25.929688 C 111.253906 25.800781 111.527344 25.617188 111.765625 25.378906 C 112.003906 25.140625 112.1875 24.867188 112.316406 24.554688 C 112.445312 24.242188 112.511719 23.917969 112.511719 23.582031 L 112.511719 3.613281 C 112.511719 3.277344 112.445312 2.953125 112.316406 2.640625 C 112.1875 2.328125 112.003906 2.054688 111.765625 1.816406 C 111.527344 1.578125 111.253906 1.394531 110.941406 1.265625 C 110.632812 1.136719 110.308594 1.070312 109.96875 1.070312 L 90 1.070312 C 89.664062 1.070312 89.339844 1.136719 89.027344 1.265625 C 88.71875 1.394531 88.441406 1.578125 88.203125 1.816406 C 87.964844 2.054688 87.78125 2.328125 87.652344 2.640625 C 87.523438 2.953125 87.460938 3.277344 87.460938 3.613281 L 87.460938 23.582031 C 87.460938 23.917969 87.523438 24.242188 87.652344 24.554688 C 87.78125 24.867188 87.964844 25.140625 88.203125 25.378906 C 88.441406 25.617188 88.71875 25.800781 89.027344 25.929688 C 89.339844 26.058594 89.664062 26.125 90 26.125 Z M 107.449219 21.699219 C 107.445312 21.929688 107.359375 22.125 107.199219 22.289062 C 107.035156 22.453125 106.839844 22.539062 106.609375 22.542969 L 104.90625 22.542969 C 104.667969 22.542969 104.464844 22.460938 104.300781 22.292969 C 104.132812 22.125 104.046875 21.921875 104.046875 21.6875 L 104.046875 20.128906 C 104.046875 19.890625 104.132812 19.691406 104.300781 19.523438 C 104.464844 19.355469 104.667969 19.269531 104.90625 19.269531 L 106.609375 19.269531 C 106.847656 19.269531 107.050781 19.355469 107.21875 19.523438 C 107.386719 19.691406 107.46875 19.890625 107.46875 20.128906 Z M 104.90625 4.652344 L 106.625 4.652344 C 106.863281 4.652344 107.0625 4.734375 107.230469 4.902344 C 107.398438 5.070312 107.484375 5.273438 107.484375 5.507812 L 107.484375 8.355469 L 107.0625 16.765625 C 107.050781 16.992188 106.960938 17.1875 106.796875 17.34375 C 106.628906 17.5 106.433594 17.578125 106.203125 17.578125 L 105.355469 17.578125 C 105.117188 17.589844 104.914062 17.515625 104.738281 17.355469 C 104.5625 17.199219 104.472656 17 104.460938 16.765625 L 104.011719 8.390625 L 104.011719 5.507812 C 104.011719 5.394531 104.035156 5.28125 104.082031 5.171875 C 104.125 5.066406 104.191406 4.96875 104.277344 4.890625 C 104.359375 4.808594 104.457031 4.746094 104.566406 4.707031 C 104.675781 4.664062 104.789062 4.644531 104.90625 4.652344 Z M 92.5 5.515625 C 92.5 5.277344 92.582031 5.074219 92.75 4.902344 C 92.917969 4.734375 93.121094 4.652344 93.359375 4.652344 L 95.011719 4.652344 C 95.25 4.652344 95.449219 4.734375 95.617188 4.902344 C 95.785156 5.070312 95.871094 5.273438 95.871094 5.507812 L 95.871094 6.722656 C 95.871094 6.960938 95.785156 7.160156 95.617188 7.328125 C 95.449219 7.496094 95.25 7.582031 95.011719 7.582031 L 93.355469 7.582031 C 93.117188 7.582031 92.917969 7.496094 92.75 7.328125 C 92.582031 7.160156 92.496094 6.960938 92.496094 6.722656 Z M 93.34375 9.171875 L 96.75 9.171875 C 96.988281 9.171875 97.191406 9.089844 97.359375 8.921875 C 97.527344 8.753906 97.609375 8.550781 97.609375 8.316406 L 97.609375 5.507812 C 97.609375 5.273438 97.695312 5.070312 97.859375 4.902344 C 98.027344 4.738281 98.226562 4.652344 98.464844 4.652344 L 100.171875 4.652344 C 100.410156 4.652344 100.613281 4.734375 100.78125 4.902344 C 100.949219 5.070312 101.03125 5.273438 101.03125 5.507812 L 101.03125 8.324219 C 101.03125 8.5625 101.117188 8.761719 101.285156 8.929688 C 101.453125 9.097656 101.652344 9.183594 101.890625 9.183594 L 102.152344 9.183594 C 102.386719 9.183594 102.589844 9.265625 102.757812 9.433594 C 102.925781 9.601562 103.007812 9.804688 103.007812 10.042969 L 103.007812 10.664062 C 103.007812 10.898438 102.925781 11.101562 102.757812 11.269531 C 102.589844 11.4375 102.386719 11.523438 102.152344 11.523438 L 101.894531 11.523438 C 101.660156 11.523438 101.457031 11.605469 101.289062 11.773438 C 101.121094 11.941406 101.035156 12.144531 101.035156 12.382812 L 101.035156 18.96875 C 101.035156 19.726562 101.390625 20.042969 102.140625 20.070312 C 102.375 20.082031 102.574219 20.171875 102.738281 20.339844 C 102.898438 20.503906 102.984375 20.707031 102.992188 20.9375 L 102.992188 21.648438 C 102.988281 21.867188 102.914062 22.058594 102.769531 22.21875 C 102.621094 22.378906 102.4375 22.46875 102.222656 22.492188 C 101.261719 22.601562 100.308594 22.582031 99.355469 22.429688 C 98.304688 22.21875 97.820312 21.636719 97.675781 20.503906 C 97.625 20.113281 97.601562 19.714844 97.601562 19.320312 L 97.601562 11.96875 C 97.601562 11.847656 97.558594 11.742188 97.46875 11.652344 C 97.382812 11.566406 97.277344 11.523438 97.152344 11.523438 L 96.371094 11.523438 C 96.234375 11.523438 96.121094 11.570312 96.027344 11.664062 C 95.929688 11.761719 95.882812 11.875 95.882812 12.007812 L 95.882812 21.6875 C 95.882812 21.921875 95.800781 22.121094 95.636719 22.289062 C 95.46875 22.457031 95.269531 22.542969 95.035156 22.542969 L 93.351562 22.542969 C 93.113281 22.542969 92.910156 22.460938 92.742188 22.292969 C 92.578125 22.125 92.492188 21.921875 92.492188 21.6875 L 92.492188 10.019531 C 92.496094 9.785156 92.582031 9.585938 92.746094 9.421875 C 92.910156 9.257812 93.109375 9.175781 93.34375 9.171875 Z M 93.34375 9.171875 " fill-opacity="1" fill-rule="nonzero"/></g></svg>