<svg xmlns="http://www.w3.org/2000/svg" xmlns:xlink="http://www.w3.org/1999/xlink" width="170" zoomAndPan="magnify" viewBox="0 0 127.5 30.000001" height="40" preserveAspectRatio="xMidYMid meet" version="1.0"><defs><clipPath id="7f011fb379"><path d="M 1.816406 0 L 125.203125 0 L 125.203125 29.03125 L 1.816406 29.03125 Z M 1.816406 0 " clip-rule="nonzero"/></clipPath><clipPath id="8d712f661b"><path d="M 2 0 L 77 0 L 77 29.03125 L 2 29.03125 Z M 2 0 " clip-rule="nonzero"/></clipPath><clipPath id="4106d058c0"><path d="M 1.816406 4.714844 L 74.035156 -2.511719 L 76.710938 24.207031 L 4.488281 31.4375 Z M 1.816406 4.714844 " clip-rule="nonzero"/></clipPath><clipPath id="faeed57609"><path d="M 1.816406 4.714844 L 74.035156 -2.511719 L 76.710938 24.207031 L 4.488281 31.4375 Z M 1.816406 4.714844 " clip-rule="nonzero"/></clipPath><clipPath id="60a1d3e225"><path d="M 1.816406 4.714844 L 74.035156 -2.511719 L 76.710938 24.207031 L 4.488281 31.4375 Z M 1.816406 4.714844 " clip-rule="nonzero"/></clipPath><clipPath id="cd9b9622fe"><path d="M 2 0 L 76 0 L 76 29 L 2 29 Z M 2 0 " clip-rule="nonzero"/></clipPath><clipPath id="3c2eff1ec8"><path d="M 1.816406 4.714844 L 74.035156 -2.511719 L 76.710938 24.207031 L 4.488281 31.4375 Z M 1.816406 4.714844 " clip-rule="nonzero"/></clipPath><clipPath id="0c36d7f448"><path d="M 1.816406 4.714844 L 74.035156 -2.511719 L 76.710938 24.207031 L 4.488281 31.4375 Z M 1.816406 4.714844 " clip-rule="nonzero"/></clipPath><clipPath id="cbd92fb654"><path d="M 1.816406 4.714844 L 74.035156 -2.511719 L 76.710938 24.207031 L 4.488281 31.4375 Z M 1.816406 4.714844 " clip-rule="nonzero"/></clipPath><clipPath id="4a294ac2b3"><path d="M 4 1 L 74 1 L 74 27 L 4 27 Z M 4 1 " clip-rule="nonzero"/></clipPath><clipPath id="24bbe91831"><path d="M 1.816406 4.714844 L 74.035156 -2.511719 L 76.710938 24.207031 L 4.488281 31.4375 Z M 1.816406 4.714844 " clip-rule="nonzero"/></clipPath><clipPath id="c607d42d1c"><path d="M 1.816406 4.714844 L 74.035156 -2.511719 L 76.710938 24.207031 L 4.488281 31.4375 Z M 1.816406 4.714844 " clip-rule="nonzero"/></clipPath><clipPath id="8429e88e91"><path d="M 1.816406 4.714844 L 74.035156 -2.511719 L 76.710938 24.207031 L 4.488281 31.4375 Z M 1.816406 4.714844 " clip-rule="nonzero"/></clipPath><clipPath id="0c036c15f7"><path d="M 4 0 L 74 0 L 74 26 L 4 26 Z M 4 0 " clip-rule="nonzero"/></clipPath><clipPath id="2d12172978"><path d="M 1.816406 4.714844 L 74.035156 -2.511719 L 76.710938 24.207031 L 4.488281 31.4375 Z M 1.816406 4.714844 " clip-rule="nonzero"/></clipPath><clipPath id="7d44c01ba5"><path d="M 1.816406 4.714844 L 74.035156 -2.511719 L 76.710938 24.207031 L 4.488281 31.4375 Z M 1.816406 4.714844 " clip-rule="nonzero"/></clipPath><clipPath id="672871e195"><path d="M 1.816406 4.714844 L 74.035156 -2.511719 L 76.710938 24.207031 L 4.488281 31.4375 Z M 1.816406 4.714844 " clip-rule="nonzero"/></clipPath><clipPath id="e853a216e4"><path d="M 73.816406 0 L 99 0 L 99 24.386719 L 73.816406 24.386719 Z M 73.816406 0 " clip-rule="nonzero"/></clipPath></defs><g clip-path="url(#7f011fb379)"><path fill="#ffffff" d="M 1.816406 0 L 125.203125 0 L 125.203125 29.03125 L 1.816406 29.03125 Z M 1.816406 0 " fill-opacity="1" fill-rule="nonzero"/><path fill="#ffffff" d="M 1.816406 0 L 125.203125 0 L 125.203125 29.03125 L 1.816406 29.03125 Z M 1.816406 0 " fill-opacity="1" fill-rule="nonzero"/></g><g clip-path="url(#8d712f661b)"><g clip-path="url(#4106d058c0)"><g clip-path="url(#faeed57609)"><g clip-path="url(#60a1d3e225)"><path fill="#ff9740" d="M 57.699219 8.679688 C 56.144531 7.683594 54.230469 7.269531 51.933594 7.5 C 49.171875 7.777344 46.964844 8.886719 45.289062 10.777344 C 45.007812 11.097656 44.75 11.429688 44.519531 11.777344 C 42.734375 9.65625 40.238281 8.671875 36.957031 9 C 35.164062 9.179688 33.605469 9.710938 32.277344 10.578125 L 32.289062 10.53125 C 32.289062 10.519531 32.292969 10.511719 32.292969 10.503906 C 32.523438 9.492188 32.5625 8.804688 32.527344 8.449219 C 32.378906 6.992188 31.382812 5.558594 28.855469 4.929688 C 28.054688 4.722656 27.363281 4.671875 26.789062 4.730469 C 25.867188 4.824219 25.132812 5.179688 24.558594 5.722656 C 24.015625 6.242188 23.699219 6.773438 23.527344 7.273438 C 23.445312 7.519531 23.339844 7.894531 23.214844 8.398438 C 23.214844 8.414062 23.210938 8.429688 23.207031 8.441406 L 22.738281 10.558594 L 21.726562 8.292969 C 21.710938 8.265625 21.699219 8.238281 21.6875 8.210938 C 21.398438 7.632812 20.875 7.011719 19.980469 6.472656 C 19.109375 5.949219 18.195312 5.75 17.25 5.84375 C 16.421875 5.925781 15.769531 6.144531 15.273438 6.421875 C 14.078125 7.085938 13.28125 8.125 12.949219 9.589844 L 12.507812 11.550781 L 11.652344 9.621094 C 11.28125 8.742188 10.867188 8.121094 10.476562 7.714844 C 9.742188 6.949219 8.789062 6.558594 7.566406 6.683594 C 6.933594 6.746094 6.230469 6.933594 5.472656 7.28125 C 3.089844 8.371094 2.386719 9.980469 2.535156 11.449219 C 2.578125 11.886719 2.753906 12.550781 3.144531 13.421875 C 3.148438 13.429688 3.152344 13.4375 3.15625 13.449219 L 9.648438 27.398438 C 9.683594 27.472656 9.71875 27.542969 9.757812 27.609375 L 9.980469 27.984375 C 10.289062 28.5 10.804688 29.042969 11.605469 29.511719 C 12.375 29.964844 13.3125 30.1875 14.4375 30.074219 C 15.632812 29.957031 16.621094 29.429688 17.394531 28.488281 C 17.644531 28.183594 17.859375 27.855469 18.039062 27.496094 C 18.257812 27.0625 18.371094 26.722656 18.425781 26.492188 C 18.4375 26.441406 18.609375 25.683594 18.949219 24.226562 L 20.046875 26.632812 C 20.074219 26.691406 20.105469 26.753906 20.136719 26.808594 C 20.441406 27.347656 20.957031 27.917969 21.773438 28.421875 C 22.609375 28.9375 23.554688 29.164062 24.617188 29.058594 C 25.683594 28.949219 26.5625 28.542969 27.277344 27.871094 C 27.992188 27.203125 28.34375 26.617188 28.488281 26.242188 C 28.605469 25.933594 28.683594 25.664062 28.726562 25.441406 L 29.253906 23.230469 C 29.679688 24.011719 30.222656 24.75 30.878906 25.4375 C 31.757812 26.375 32.910156 27.101562 34.363281 27.578125 C 35.699219 28.015625 37.1875 28.167969 38.832031 28.003906 C 41.660156 27.71875 43.570312 27.042969 44.628906 26.222656 C 45.390625 25.632812 45.878906 24.957031 46.117188 24.203125 C 46.957031 25.011719 48.027344 25.648438 49.339844 26.078125 C 50.675781 26.515625 52.164062 26.667969 53.808594 26.503906 C 56.636719 26.21875 58.546875 25.542969 59.605469 24.722656 C 59.832031 24.546875 60.035156 24.363281 60.214844 24.171875 C 60.949219 24.847656 62.164062 25.324219 63.996094 25.140625 C 66.257812 24.914062 67.386719 23.902344 67.828125 22.933594 C 68.070312 23.109375 68.273438 23.257812 68.445312 23.371094 C 68.496094 23.40625 68.546875 23.4375 68.601562 23.46875 L 68.855469 23.609375 C 70.171875 24.386719 71.234375 24.574219 71.929688 24.503906 C 72.855469 24.414062 74.054688 23.820312 75.117188 22.210938 C 75.128906 22.1875 75.144531 22.167969 75.15625 22.144531 C 75.992188 20.777344 76.203125 19.667969 76.128906 18.921875 C 76.074219 18.378906 75.878906 17.808594 75.460938 17.242188 C 75.242188 16.941406 74.773438 16.480469 73.988281 15.945312 C 73.984375 15.941406 73.976562 15.941406 73.972656 15.9375 L 72.53125 14.972656 L 72.953125 14.535156 C 74.214844 13.246094 74.515625 12.03125 74.429688 11.175781 C 74.355469 10.445312 73.917969 9.382812 72.757812 8.203125 C 71.425781 6.851562 70.152344 6.519531 69.242188 6.609375 C 68.570312 6.679688 67.769531 6.96875 66.921875 7.628906 L 66.605469 4.484375 C 66.566406 4.101562 66.523438 3.808594 66.484375 3.597656 C 66.296875 2.335938 65.699219 1.492188 64.90625 0.960938 C 64.199219 0.480469 63.09375 0.148438 61.535156 0.304688 C 59.183594 0.539062 58.039062 1.632812 57.625 2.671875 C 57.613281 2.703125 57.601562 2.734375 57.589844 2.765625 C 57.398438 3.304688 57.316406 3.777344 57.304688 4.179688 C 57.296875 4.449219 57.3125 4.851562 57.367188 5.382812 L 57.699219 8.683594 Z M 24.113281 24.566406 L 24.132812 24.527344 L 24.132812 24.535156 C 24.128906 24.542969 24.121094 24.554688 24.113281 24.566406 L 24.109375 24.578125 C 24.109375 24.574219 24.113281 24.570312 24.113281 24.566406 Z M 24.109375 24.429688 C 24.101562 24.433594 24.097656 24.441406 24.089844 24.449219 L 24.070312 24.46875 C 24.070312 24.46875 24.078125 24.460938 24.082031 24.457031 Z M 25.351562 19.402344 L 24.167969 24.371094 L 24.164062 24.375 L 22.109375 19.863281 C 22.5625 20.199219 23.140625 20.363281 23.730469 20.304688 C 24.386719 20.238281 24.96875 19.902344 25.351562 19.402344 Z M 13.847656 25.324219 L 11.703125 20.710938 C 12.179688 21.128906 12.816406 21.34375 13.476562 21.277344 C 14.082031 21.21875 14.625 20.929688 15.003906 20.492188 L 13.882812 25.339844 L 13.871094 25.363281 L 13.851562 25.324219 Z M 62.921875 13.832031 C 63.167969 14.453125 63.671875 14.949219 64.324219 15.175781 C 65.125 15.457031 66.015625 15.28125 66.648438 14.726562 C 66.570312 15.007812 66.542969 15.304688 66.574219 15.605469 C 66.597656 15.832031 66.65625 16.050781 66.742188 16.257812 C 66.015625 15.867188 65.128906 15.886719 64.417969 16.320312 C 63.835938 16.675781 63.445312 17.257812 63.332031 17.90625 L 62.921875 13.828125 Z M 47.945312 15.398438 C 47.746094 16.046875 47.691406 16.765625 47.769531 17.550781 C 47.828125 18.121094 47.96875 18.65625 48.191406 19.15625 L 48.164062 18.960938 C 48.125 18.542969 48.195312 18.144531 48.351562 17.789062 C 48.09375 17.453125 47.921875 17.046875 47.875 16.59375 C 47.835938 16.199219 47.855469 15.800781 47.941406 15.402344 Z M 32.964844 16.898438 C 32.765625 17.546875 32.714844 18.265625 32.792969 19.050781 C 32.851562 19.617188 32.992188 20.152344 33.214844 20.652344 L 33.1875 20.457031 C 33.148438 20.042969 33.21875 19.644531 33.375 19.285156 C 33.117188 18.953125 32.945312 18.542969 32.898438 18.09375 C 32.859375 17.699219 32.878906 17.300781 32.964844 16.898438 Z M 17.570312 10.511719 L 17.585938 10.507812 C 17.585938 10.507812 19.65625 15.140625 19.65625 15.140625 C 19.195312 14.78125 18.597656 14.601562 17.988281 14.660156 C 17.363281 14.722656 16.808594 15.027344 16.425781 15.488281 L 17.519531 10.609375 C 17.527344 10.578125 17.523438 10.542969 17.535156 10.519531 Z M 17.570312 10.511719 " fill-opacity="1" fill-rule="evenodd"/></g></g></g></g><g clip-path="url(#cd9b9622fe)"><g clip-path="url(#3c2eff1ec8)"><g clip-path="url(#0c36d7f448)"><g clip-path="url(#cbd92fb654)"><path fill="#ffffff" d="M 57.542969 7.128906 C 55.988281 6.132812 54.074219 5.71875 51.78125 5.949219 C 49.015625 6.226562 46.808594 7.335938 45.136719 9.226562 C 44.851562 9.546875 44.59375 9.878906 44.363281 10.222656 C 42.582031 8.105469 40.082031 7.121094 36.804688 7.449219 C 35.011719 7.628906 33.453125 8.160156 32.121094 9.027344 L 32.132812 8.980469 C 32.136719 8.96875 32.136719 8.960938 32.140625 8.953125 C 32.367188 7.941406 32.40625 7.253906 32.371094 6.898438 C 32.226562 5.441406 31.230469 4.007812 28.699219 3.378906 C 27.898438 3.171875 27.207031 3.121094 26.632812 3.179688 C 25.710938 3.273438 24.980469 3.628906 24.402344 4.171875 C 23.859375 4.6875 23.542969 5.222656 23.371094 5.722656 C 23.289062 5.96875 23.183594 6.34375 23.0625 6.847656 C 23.058594 6.863281 23.054688 6.878906 23.050781 6.890625 L 22.582031 9.007812 L 21.570312 6.742188 C 21.558594 6.714844 21.542969 6.6875 21.53125 6.660156 C 21.246094 6.082031 20.71875 5.460938 19.828125 4.921875 C 18.953125 4.394531 18.039062 4.199219 17.097656 4.292969 C 16.269531 4.375 15.613281 4.59375 15.117188 4.871094 C 13.921875 5.535156 13.125 6.574219 12.796875 8.039062 L 12.355469 10 L 11.496094 8.070312 C 11.125 7.191406 10.710938 6.570312 10.320312 6.164062 C 9.589844 5.398438 8.632812 5.007812 7.414062 5.128906 C 6.777344 5.195312 6.074219 5.382812 5.320312 5.730469 C 2.933594 6.820312 2.234375 8.429688 2.378906 9.898438 C 2.425781 10.335938 2.597656 11 2.988281 11.871094 C 2.992188 11.878906 2.996094 11.886719 3 11.898438 L 9.492188 25.847656 C 9.527344 25.921875 9.5625 25.992188 9.605469 26.058594 L 9.828125 26.433594 C 10.136719 26.949219 10.648438 27.492188 11.449219 27.960938 C 12.222656 28.414062 13.160156 28.636719 14.28125 28.523438 C 15.476562 28.40625 16.464844 27.878906 17.238281 26.9375 C 17.488281 26.632812 17.703125 26.304688 17.882812 25.945312 C 18.101562 25.511719 18.214844 25.171875 18.269531 24.941406 C 18.28125 24.890625 18.457031 24.132812 18.792969 22.675781 L 19.890625 25.082031 C 19.917969 25.140625 19.949219 25.199219 19.980469 25.257812 C 20.285156 25.796875 20.800781 26.367188 21.621094 26.871094 C 22.453125 27.386719 23.398438 27.613281 24.464844 27.503906 C 25.527344 27.398438 26.40625 26.992188 27.125 26.320312 C 27.839844 25.652344 28.1875 25.066406 28.332031 24.691406 C 28.449219 24.382812 28.527344 24.113281 28.570312 23.890625 L 29.101562 21.679688 C 29.523438 22.460938 30.066406 23.199219 30.722656 23.886719 C 31.601562 24.820312 32.753906 25.550781 34.210938 26.027344 C 35.546875 26.464844 37.035156 26.617188 38.679688 26.453125 C 41.507812 26.167969 43.414062 25.492188 44.472656 24.671875 C 45.238281 24.082031 45.722656 23.402344 45.960938 22.652344 C 46.800781 23.460938 47.871094 24.097656 49.1875 24.527344 C 50.523438 24.964844 52.011719 25.117188 53.65625 24.953125 C 56.484375 24.667969 58.390625 23.992188 59.449219 23.171875 C 59.675781 22.996094 59.878906 22.8125 60.058594 22.621094 C 60.792969 23.296875 62.007812 23.773438 63.839844 23.589844 C 66.101562 23.363281 67.230469 22.351562 67.671875 21.382812 C 67.914062 21.558594 68.117188 21.703125 68.289062 21.820312 C 68.339844 21.851562 68.394531 21.886719 68.449219 21.917969 L 68.699219 22.058594 C 70.019531 22.835938 71.082031 23.023438 71.777344 22.953125 C 72.699219 22.863281 73.898438 22.269531 74.960938 20.660156 C 74.976562 20.640625 74.988281 20.617188 75 20.59375 C 75.839844 19.226562 76.046875 18.117188 75.972656 17.371094 C 75.917969 16.828125 75.722656 16.257812 75.308594 15.691406 C 75.085938 15.394531 74.621094 14.929688 73.832031 14.394531 C 73.828125 14.390625 73.824219 14.390625 73.816406 14.386719 L 72.375 13.421875 L 72.796875 12.984375 C 74.058594 11.695312 74.359375 10.480469 74.273438 9.625 C 74.203125 8.894531 73.761719 7.832031 72.601562 6.652344 C 71.269531 5.300781 69.996094 4.96875 69.085938 5.058594 C 68.414062 5.128906 67.613281 5.421875 66.765625 6.078125 L 66.449219 2.933594 C 66.414062 2.550781 66.371094 2.257812 66.332031 2.046875 C 66.140625 0.78125 65.542969 -0.0585938 64.75 -0.589844 C 64.046875 -1.070312 62.941406 -1.402344 61.382812 -1.246094 C 59.027344 -1.011719 57.882812 0.0820312 57.46875 1.121094 C 57.457031 1.152344 57.445312 1.183594 57.433594 1.214844 C 57.246094 1.753906 57.164062 2.226562 57.152344 2.628906 C 57.144531 2.898438 57.160156 3.300781 57.210938 3.832031 L 57.542969 7.132812 Z M 23.960938 23.015625 L 23.976562 22.976562 L 23.976562 22.984375 C 23.972656 22.992188 23.964844 23.003906 23.957031 23.015625 L 23.953125 23.027344 C 23.953125 23.027344 23.957031 23.019531 23.957031 23.015625 Z M 23.953125 22.878906 C 23.949219 22.882812 23.941406 22.890625 23.933594 22.898438 L 23.925781 22.90625 L 23.917969 22.917969 C 23.917969 22.917969 23.921875 22.910156 23.925781 22.90625 L 23.957031 22.878906 Z M 25.199219 17.851562 L 24.011719 22.820312 L 24.011719 22.824219 L 21.953125 18.308594 C 22.410156 18.648438 22.984375 18.8125 23.578125 18.753906 C 24.234375 18.6875 24.8125 18.351562 25.195312 17.851562 Z M 13.695312 23.773438 L 11.546875 19.160156 C 12.023438 19.578125 12.660156 19.792969 13.320312 19.726562 C 13.925781 19.667969 14.46875 19.378906 14.851562 18.941406 L 13.730469 23.789062 L 13.71875 23.8125 Z M 62.765625 12.28125 C 63.011719 12.902344 63.515625 13.398438 64.167969 13.625 C 64.972656 13.90625 65.859375 13.730469 66.492188 13.175781 C 66.414062 13.457031 66.386719 13.753906 66.417969 14.054688 C 66.445312 14.28125 66.5 14.5 66.585938 14.703125 C 65.859375 14.316406 64.972656 14.335938 64.261719 14.769531 C 63.679688 15.125 63.289062 15.707031 63.175781 16.355469 L 62.765625 12.277344 Z M 47.789062 13.847656 C 47.589844 14.496094 47.535156 15.214844 47.617188 16 C 47.671875 16.570312 47.8125 17.105469 48.035156 17.601562 L 48.011719 17.40625 C 47.96875 16.992188 48.039062 16.59375 48.195312 16.238281 C 47.9375 15.902344 47.765625 15.496094 47.71875 15.042969 C 47.679688 14.648438 47.699219 14.25 47.789062 13.847656 Z M 32.8125 15.347656 C 32.613281 15.996094 32.5625 16.714844 32.640625 17.5 C 32.695312 18.066406 32.835938 18.601562 33.058594 19.101562 L 33.035156 18.90625 C 32.992188 18.492188 33.0625 18.09375 33.21875 17.734375 C 32.960938 17.402344 32.789062 16.992188 32.742188 16.542969 C 32.703125 16.148438 32.722656 15.75 32.8125 15.347656 Z M 17.414062 8.960938 L 17.429688 8.957031 C 17.429688 8.957031 19.5 13.589844 19.5 13.589844 C 19.039062 13.230469 18.445312 13.046875 17.832031 13.109375 C 17.207031 13.171875 16.652344 13.476562 16.269531 13.9375 L 17.367188 9.058594 C 17.371094 9.027344 17.367188 8.992188 17.378906 8.96875 Z M 17.414062 8.960938 " fill-opacity="1" fill-rule="evenodd"/></g></g></g></g><g clip-path="url(#4a294ac2b3)"><g clip-path="url(#24bbe91831)"><g clip-path="url(#c607d42d1c)"><g clip-path="url(#8429e88e91)"><path fill="#572716" d="M 43.855469 15.128906 C 43.960938 16.191406 43.773438 17.003906 43.292969 17.566406 C 42.8125 18.132812 42.25 18.449219 41.605469 18.511719 L 35.410156 19.132812 C 35.460938 19.621094 35.789062 20 36.398438 20.269531 C 37.003906 20.542969 37.597656 20.652344 38.171875 20.59375 C 39.183594 20.492188 39.964844 20.308594 40.519531 20.042969 L 40.796875 19.910156 C 41.195312 19.675781 41.535156 19.546875 41.8125 19.519531 C 42.371094 19.460938 42.886719 19.804688 43.367188 20.546875 C 43.640625 20.992188 43.792969 21.378906 43.828125 21.710938 C 43.980469 23.257812 42.203125 24.214844 38.492188 24.585938 C 37.203125 24.714844 36.035156 24.609375 34.988281 24.265625 C 33.941406 23.921875 33.101562 23.414062 32.472656 22.742188 C 31.234375 21.445312 30.527344 19.929688 30.351562 18.191406 C 30.132812 16.003906 30.667969 14.183594 31.957031 12.730469 C 33.246094 11.277344 34.953125 10.441406 37.078125 10.230469 C 39.503906 9.988281 41.363281 10.660156 42.667969 12.25 C 43.351562 13.09375 43.746094 14.054688 43.851562 15.128906 Z M 58.832031 13.632812 C 58.9375 14.691406 58.75 15.503906 58.269531 16.070312 C 57.789062 16.632812 57.226562 16.949219 56.582031 17.015625 L 50.386719 17.632812 C 50.4375 18.121094 50.765625 18.5 51.371094 18.773438 C 51.980469 19.042969 52.570312 19.152344 53.148438 19.09375 C 54.15625 18.992188 54.941406 18.808594 55.496094 18.542969 L 55.773438 18.410156 C 56.171875 18.175781 56.507812 18.046875 56.789062 18.019531 C 57.347656 17.964844 57.863281 18.304688 58.34375 19.046875 C 58.617188 19.492188 58.769531 19.882812 58.804688 20.210938 C 58.957031 21.757812 57.179688 22.714844 53.46875 23.085938 C 52.179688 23.214844 51.011719 23.109375 49.964844 22.765625 C 48.917969 22.425781 48.078125 21.917969 47.449219 21.242188 C 46.210938 19.945312 45.503906 18.429688 45.328125 16.691406 C 45.109375 14.503906 45.644531 12.683594 46.933594 11.230469 C 48.222656 9.777344 49.929688 8.945312 52.054688 8.730469 C 54.480469 8.488281 56.339844 9.160156 57.644531 10.75 C 58.328125 11.59375 58.722656 12.554688 58.828125 13.628906 Z M 68.792969 14.265625 L 72.558594 16.78125 C 73.03125 17.101562 73.332031 17.351562 73.464844 17.535156 C 73.597656 17.714844 73.671875 17.890625 73.6875 18.0625 C 73.730469 18.480469 73.515625 19.070312 73.046875 19.835938 C 72.527344 20.625 72.042969 21.042969 71.589844 21.089844 C 71.207031 21.125 70.648438 20.929688 69.917969 20.492188 L 69.640625 20.335938 C 69.207031 20.046875 68.53125 19.53125 67.609375 18.789062 C 66.691406 18.050781 65.996094 17.527344 65.527344 17.222656 L 65.726562 19.230469 C 65.765625 19.628906 65.785156 19.929688 65.777344 20.132812 C 65.773438 20.332031 65.710938 20.574219 65.597656 20.847656 C 65.417969 21.320312 64.769531 21.613281 63.652344 21.726562 C 62.539062 21.835938 61.863281 21.667969 61.570312 21.222656 C 61.421875 20.976562 61.324219 20.753906 61.28125 20.554688 C 61.234375 20.359375 61.191406 20.058594 61.148438 19.660156 L 59.589844 4.058594 C 59.546875 3.660156 59.53125 3.359375 59.539062 3.15625 C 59.542969 2.953125 59.59375 2.714844 59.691406 2.441406 C 59.886719 1.949219 60.542969 1.644531 61.660156 1.535156 C 62.496094 1.449219 63.101562 1.539062 63.480469 1.800781 C 63.800781 2.011719 63.996094 2.378906 64.066406 2.898438 C 64.097656 3.050781 64.132812 3.296875 64.164062 3.625 L 64.992188 11.882812 C 65.277344 11.589844 65.710938 11.101562 66.285156 10.410156 C 66.855469 9.722656 67.289062 9.234375 67.574219 8.941406 L 67.867188 8.699219 C 68.429688 8.171875 68.929688 7.882812 69.367188 7.839844 C 69.800781 7.796875 70.339844 8.097656 70.976562 8.746094 C 71.613281 9.390625 71.949219 9.914062 71.988281 10.3125 C 72.03125 10.714844 71.753906 11.214844 71.164062 11.816406 Z M 28.167969 6.097656 C 29.375 6.398438 30.015625 6.894531 30.085938 7.589844 C 30.109375 7.816406 30.046875 8.25 29.898438 8.898438 L 26.328125 23.855469 C 26.304688 23.980469 26.257812 24.136719 26.1875 24.316406 C 26.117188 24.5 25.910156 24.753906 25.566406 25.078125 C 25.21875 25.402344 24.789062 25.589844 24.277344 25.640625 C 23.761719 25.691406 23.300781 25.59375 22.898438 25.34375 C 22.496094 25.09375 22.21875 24.839844 22.070312 24.574219 L 18.113281 15.890625 C 16.75 21.78125 16.054688 24.78125 16.03125 24.886719 C 16.003906 24.996094 15.941406 25.152344 15.839844 25.355469 C 15.738281 25.558594 15.613281 25.746094 15.472656 25.917969 C 15.113281 26.355469 14.652344 26.605469 14.09375 26.660156 C 13.539062 26.714844 13.066406 26.628906 12.683594 26.40625 C 12.300781 26.179688 12.035156 25.945312 11.886719 25.695312 L 11.664062 25.324219 L 5.171875 11.371094 C 4.921875 10.820312 4.785156 10.402344 4.757812 10.125 C 4.6875 9.429688 5.214844 8.824219 6.34375 8.308594 C 6.832031 8.085938 7.28125 7.953125 7.691406 7.910156 C 8.097656 7.871094 8.425781 7.976562 8.671875 8.234375 C 8.917969 8.488281 9.15625 8.894531 9.390625 9.449219 L 13.136719 17.863281 L 15.125 9.007812 C 15.296875 8.253906 15.691406 7.707031 16.308594 7.363281 C 16.574219 7.214844 16.929688 7.117188 17.375 7.074219 C 17.820312 7.027344 18.246094 7.128906 18.660156 7.378906 C 19.070312 7.628906 19.34375 7.886719 19.476562 8.152344 L 23.386719 16.890625 L 25.386719 7.847656 C 25.484375 7.4375 25.570312 7.128906 25.636719 6.929688 C 25.703125 6.730469 25.847656 6.527344 26.0625 6.320312 C 26.28125 6.117188 26.5625 5.996094 26.910156 5.960938 C 27.261719 5.925781 27.679688 5.972656 28.167969 6.097656 Z M 38.414062 16.4375 C 39.078125 16.371094 39.378906 16.058594 39.324219 15.503906 C 39.285156 15.105469 39.101562 14.800781 38.769531 14.585938 C 38.441406 14.375 37.996094 14.296875 37.425781 14.351562 C 36.859375 14.410156 36.324219 14.695312 35.808594 15.210938 C 35.300781 15.726562 35.070312 16.246094 35.121094 16.765625 Z M 53.390625 14.9375 C 54.054688 14.871094 54.355469 14.5625 54.300781 14.003906 C 54.261719 13.605469 54.078125 13.300781 53.75 13.085938 C 53.417969 12.875 52.972656 12.796875 52.40625 12.855469 C 51.839844 12.910156 51.300781 13.195312 50.789062 13.710938 C 50.277344 14.230469 50.046875 14.746094 50.097656 15.269531 Z M 53.390625 14.9375 " fill-opacity="1" fill-rule="nonzero"/></g></g></g></g><g clip-path="url(#0c036c15f7)"><g clip-path="url(#2d12172978)"><g clip-path="url(#7d44c01ba5)"><g clip-path="url(#672871e195)"><path fill="#bc5952" d="M 43.730469 13.898438 C 43.835938 14.957031 43.648438 15.769531 43.171875 16.335938 C 42.691406 16.902344 42.128906 17.21875 41.484375 17.28125 L 35.289062 17.902344 C 35.335938 18.386719 35.664062 18.765625 36.273438 19.039062 C 36.882812 19.3125 37.472656 19.417969 38.046875 19.359375 C 39.058594 19.261719 39.839844 19.078125 40.394531 18.8125 L 40.671875 18.679688 C 41.070312 18.445312 41.410156 18.3125 41.6875 18.285156 C 42.246094 18.230469 42.765625 18.574219 43.242188 19.316406 C 43.515625 19.761719 43.671875 20.148438 43.703125 20.480469 C 43.859375 22.023438 42.078125 22.984375 38.367188 23.355469 C 37.078125 23.484375 35.910156 23.375 34.863281 23.035156 C 33.816406 22.691406 32.980469 22.183594 32.347656 21.511719 C 31.109375 20.214844 30.402344 18.695312 30.230469 16.960938 C 30.011719 14.773438 30.546875 12.953125 31.835938 11.5 C 33.125 10.046875 34.832031 9.210938 36.957031 9 C 39.378906 8.757812 41.242188 9.429688 42.542969 11.019531 C 43.226562 11.863281 43.621094 12.820312 43.730469 13.898438 Z M 58.707031 12.398438 C 58.8125 13.460938 58.625 14.273438 58.144531 14.835938 C 57.667969 15.402344 57.105469 15.71875 56.460938 15.78125 L 50.265625 16.402344 C 50.3125 16.890625 50.640625 17.269531 51.25 17.539062 C 51.859375 17.8125 52.449219 17.917969 53.023438 17.863281 C 54.035156 17.761719 54.816406 17.578125 55.371094 17.3125 L 55.648438 17.179688 C 56.046875 16.945312 56.386719 16.816406 56.664062 16.789062 C 57.222656 16.730469 57.742188 17.074219 58.21875 17.816406 C 58.492188 18.261719 58.648438 18.648438 58.679688 18.980469 C 58.835938 20.527344 57.054688 21.484375 53.34375 21.855469 C 52.054688 21.984375 50.886719 21.878906 49.839844 21.535156 C 48.792969 21.191406 47.957031 20.683594 47.324219 20.011719 C 46.085938 18.714844 45.378906 17.199219 45.207031 15.460938 C 44.988281 13.273438 45.523438 11.453125 46.8125 10 C 48.101562 8.546875 49.808594 7.710938 51.933594 7.5 C 54.355469 7.257812 56.21875 7.929688 57.519531 9.519531 C 58.203125 10.363281 58.597656 11.324219 58.707031 12.398438 Z M 68.671875 13.035156 L 72.433594 15.550781 C 72.90625 15.871094 73.207031 16.121094 73.339844 16.300781 C 73.472656 16.480469 73.546875 16.660156 73.566406 16.832031 C 73.605469 17.25 73.394531 17.839844 72.925781 18.605469 C 72.40625 19.394531 71.917969 19.8125 71.464844 19.855469 C 71.082031 19.894531 70.527344 19.695312 69.796875 19.261719 L 69.515625 19.105469 C 69.082031 18.816406 68.40625 18.300781 67.488281 17.558594 C 66.566406 16.816406 65.875 16.296875 65.402344 15.992188 L 65.605469 17.996094 C 65.644531 18.398438 65.660156 18.699219 65.65625 18.898438 C 65.648438 19.101562 65.589844 19.339844 65.476562 19.617188 C 65.292969 20.089844 64.644531 20.382812 63.53125 20.496094 C 62.414062 20.605469 61.738281 20.4375 61.449219 19.992188 C 61.300781 19.746094 61.203125 19.523438 61.15625 19.324219 C 61.109375 19.128906 61.066406 18.828125 61.027344 18.429688 L 59.464844 2.824219 C 59.425781 2.425781 59.40625 2.125 59.414062 1.921875 C 59.421875 1.722656 59.472656 1.484375 59.566406 1.210938 C 59.765625 0.71875 60.421875 0.414062 61.535156 0.304688 C 62.371094 0.21875 62.980469 0.308594 63.355469 0.566406 C 63.679688 0.78125 63.875 1.148438 63.941406 1.667969 C 63.976562 1.820312 64.007812 2.0625 64.042969 2.394531 L 64.867188 10.652344 C 65.15625 10.359375 65.585938 9.867188 66.160156 9.179688 C 66.734375 8.492188 67.164062 8 67.453125 7.710938 L 67.746094 7.46875 C 68.308594 6.9375 68.808594 6.652344 69.242188 6.609375 C 69.679688 6.566406 70.214844 6.867188 70.851562 7.515625 C 71.488281 8.160156 71.828125 8.683594 71.867188 9.082031 C 71.90625 9.480469 71.632812 9.984375 71.039062 10.585938 L 68.671875 13.03125 Z M 28.042969 4.867188 C 29.253906 5.164062 29.890625 5.664062 29.960938 6.359375 C 29.984375 6.585938 29.921875 7.019531 29.777344 7.667969 L 26.203125 22.625 C 26.183594 22.75 26.136719 22.90625 26.066406 23.085938 C 25.996094 23.269531 25.789062 23.523438 25.441406 23.847656 C 25.09375 24.171875 24.664062 24.359375 24.152344 24.410156 C 23.640625 24.460938 23.179688 24.363281 22.777344 24.113281 C 22.371094 23.863281 22.097656 23.605469 21.945312 23.339844 L 17.988281 14.660156 C 16.625 20.550781 15.929688 23.546875 15.90625 23.65625 C 15.882812 23.765625 15.820312 23.917969 15.714844 24.121094 C 15.613281 24.324219 15.492188 24.511719 15.347656 24.683594 C 14.988281 25.125 14.527344 25.371094 13.972656 25.429688 C 13.414062 25.484375 12.945312 25.398438 12.5625 25.175781 C 12.179688 24.949219 11.910156 24.714844 11.765625 24.464844 L 11.542969 24.09375 L 5.050781 10.140625 C 4.800781 9.585938 4.660156 9.171875 4.632812 8.894531 C 4.566406 8.199219 5.09375 7.59375 6.222656 7.078125 C 6.710938 6.851562 7.160156 6.71875 7.566406 6.679688 C 7.976562 6.636719 8.304688 6.746094 8.550781 7 C 8.796875 7.257812 9.035156 7.664062 9.265625 8.21875 L 13.011719 16.632812 L 15.003906 7.777344 C 15.175781 7.023438 15.566406 6.476562 16.183594 6.132812 C 16.449219 5.984375 16.804688 5.886719 17.25 5.84375 C 17.695312 5.796875 18.125 5.898438 18.535156 6.148438 C 18.949219 6.394531 19.21875 6.652344 19.351562 6.921875 L 23.261719 15.660156 L 25.261719 6.617188 C 25.363281 6.207031 25.445312 5.898438 25.511719 5.699219 C 25.582031 5.5 25.722656 5.296875 25.941406 5.089844 C 26.15625 4.886719 26.441406 4.765625 26.789062 4.730469 C 27.136719 4.695312 27.554688 4.742188 28.042969 4.867188 Z M 38.292969 15.207031 C 38.953125 15.140625 39.257812 14.828125 39.203125 14.273438 C 39.160156 13.875 38.976562 13.566406 38.648438 13.355469 C 38.316406 13.144531 37.871094 13.066406 37.304688 13.121094 C 36.738281 13.179688 36.199219 13.464844 35.6875 13.980469 C 35.175781 14.496094 34.945312 15.015625 34.996094 15.535156 Z M 53.269531 13.707031 C 53.929688 13.640625 54.234375 13.328125 54.179688 12.773438 C 54.136719 12.375 53.953125 12.070312 53.625 11.855469 C 53.296875 11.644531 52.847656 11.566406 52.28125 11.621094 C 51.714844 11.679688 51.175781 11.964844 50.664062 12.480469 C 50.152344 12.996094 49.921875 13.515625 49.976562 14.035156 Z M 53.269531 13.707031 " fill-opacity="1" fill-rule="nonzero"/></g></g></g></g><g clip-path="url(#e853a216e4)"><path fill="#bc5952" d="M 76.355469 24.035156 L 96.324219 24.035156 C 96.664062 24.035156 96.984375 23.972656 97.296875 23.84375 C 97.609375 23.714844 97.882812 23.53125 98.121094 23.292969 C 98.359375 23.054688 98.542969 22.777344 98.671875 22.46875 C 98.800781 22.15625 98.867188 21.832031 98.867188 21.496094 L 98.867188 1.523438 C 98.867188 1.1875 98.800781 0.863281 98.671875 0.550781 C 98.542969 0.242188 98.359375 -0.0351562 98.121094 -0.273438 C 97.882812 -0.511719 97.609375 -0.695312 97.296875 -0.824219 C 96.984375 -0.953125 96.664062 -1.015625 96.324219 -1.015625 L 76.355469 -1.015625 C 76.019531 -1.015625 75.695312 -0.953125 75.382812 -0.824219 C 75.070312 -0.695312 74.796875 -0.511719 74.558594 -0.273438 C 74.320312 -0.0351562 74.136719 0.242188 74.007812 0.550781 C 73.878906 0.863281 73.816406 1.1875 73.816406 1.523438 L 73.816406 21.496094 C 73.816406 21.832031 73.878906 22.15625 74.007812 22.46875 C 74.136719 22.777344 74.320312 23.054688 74.558594 23.292969 C 74.796875 23.53125 75.070312 23.714844 75.382812 23.84375 C 75.695312 23.972656 76.019531 24.035156 76.355469 24.035156 Z M 93.800781 19.609375 C 93.796875 19.839844 93.714844 20.039062 93.554688 20.203125 C 93.390625 20.367188 93.195312 20.449219 92.964844 20.457031 L 91.261719 20.457031 C 91.023438 20.457031 90.820312 20.371094 90.652344 20.207031 C 90.484375 20.039062 90.402344 19.835938 90.402344 19.597656 L 90.402344 18.042969 C 90.402344 17.804688 90.484375 17.601562 90.652344 17.433594 C 90.820312 17.265625 91.023438 17.183594 91.261719 17.183594 L 92.964844 17.183594 C 93.203125 17.183594 93.40625 17.265625 93.574219 17.433594 C 93.742188 17.601562 93.824219 17.804688 93.824219 18.042969 Z M 91.261719 2.5625 L 92.980469 2.5625 C 93.214844 2.5625 93.417969 2.648438 93.585938 2.8125 C 93.753906 2.980469 93.839844 3.183594 93.839844 3.421875 L 93.839844 6.265625 L 93.417969 14.675781 C 93.40625 14.90625 93.316406 15.097656 93.152344 15.253906 C 92.984375 15.414062 92.789062 15.492188 92.558594 15.492188 L 91.707031 15.492188 C 91.472656 15.5 91.269531 15.425781 91.09375 15.269531 C 90.917969 15.109375 90.824219 14.914062 90.8125 14.675781 L 90.367188 6.300781 L 90.367188 3.421875 C 90.367188 3.304688 90.390625 3.191406 90.433594 3.085938 C 90.480469 2.976562 90.546875 2.882812 90.628906 2.800781 C 90.714844 2.71875 90.8125 2.660156 90.921875 2.617188 C 91.03125 2.574219 91.144531 2.558594 91.261719 2.5625 Z M 78.855469 3.425781 C 78.855469 3.1875 78.9375 2.984375 79.105469 2.816406 C 79.273438 2.648438 79.476562 2.5625 79.714844 2.5625 L 81.367188 2.5625 C 81.601562 2.5625 81.804688 2.648438 81.972656 2.8125 C 82.140625 2.980469 82.226562 3.183594 82.226562 3.421875 L 82.226562 4.632812 C 82.226562 4.871094 82.140625 5.074219 81.972656 5.242188 C 81.804688 5.410156 81.601562 5.492188 81.367188 5.492188 L 79.710938 5.492188 C 79.472656 5.492188 79.269531 5.410156 79.101562 5.242188 C 78.933594 5.074219 78.851562 4.871094 78.851562 4.632812 Z M 79.695312 7.085938 L 83.105469 7.085938 C 83.34375 7.085938 83.546875 7 83.714844 6.832031 C 83.882812 6.667969 83.964844 6.464844 83.964844 6.226562 L 83.964844 3.421875 C 83.964844 3.183594 84.046875 2.984375 84.214844 2.816406 C 84.382812 2.648438 84.582031 2.5625 84.820312 2.5625 L 86.527344 2.5625 C 86.765625 2.5625 86.96875 2.648438 87.136719 2.8125 C 87.304688 2.980469 87.386719 3.183594 87.386719 3.421875 L 87.386719 6.234375 C 87.386719 6.472656 87.472656 6.675781 87.640625 6.84375 C 87.804688 7.011719 88.007812 7.09375 88.246094 7.09375 L 88.503906 7.09375 C 88.742188 7.09375 88.945312 7.179688 89.113281 7.347656 C 89.28125 7.511719 89.363281 7.714844 89.363281 7.953125 L 89.363281 8.574219 C 89.363281 8.8125 89.28125 9.015625 89.113281 9.183594 C 88.945312 9.351562 88.742188 9.433594 88.503906 9.433594 L 88.25 9.433594 C 88.011719 9.433594 87.8125 9.519531 87.644531 9.6875 C 87.476562 9.851562 87.390625 10.054688 87.390625 10.292969 L 87.390625 16.882812 C 87.390625 17.636719 87.746094 17.957031 88.496094 17.984375 C 88.730469 17.996094 88.929688 18.082031 89.089844 18.25 C 89.253906 18.417969 89.339844 18.617188 89.347656 18.851562 L 89.347656 19.5625 C 89.34375 19.78125 89.269531 19.96875 89.121094 20.128906 C 88.976562 20.289062 88.792969 20.382812 88.578125 20.402344 C 87.617188 20.515625 86.664062 20.492188 85.710938 20.339844 C 84.660156 20.128906 84.175781 19.546875 84.03125 18.417969 C 83.980469 18.023438 83.957031 17.628906 83.957031 17.230469 L 83.957031 9.882812 C 83.957031 9.757812 83.914062 9.652344 83.824219 9.566406 C 83.738281 9.476562 83.632812 9.433594 83.507812 9.433594 L 82.726562 9.433594 C 82.589844 9.433594 82.476562 9.480469 82.382812 9.578125 C 82.285156 9.671875 82.238281 9.785156 82.238281 9.921875 L 82.238281 19.597656 C 82.238281 19.832031 82.15625 20.035156 81.988281 20.203125 C 81.824219 20.371094 81.625 20.453125 81.386719 20.457031 L 79.707031 20.457031 C 79.46875 20.457031 79.265625 20.371094 79.097656 20.207031 C 78.929688 20.039062 78.847656 19.835938 78.847656 19.597656 L 78.847656 7.929688 C 78.851562 7.699219 78.933594 7.5 79.101562 7.335938 C 79.265625 7.171875 79.464844 7.085938 79.695312 7.085938 Z M 79.695312 7.085938 " fill-opacity="1" fill-rule="nonzero"/></g></svg>