<svg xmlns="http://www.w3.org/2000/svg" xmlns:xlink="http://www.w3.org/1999/xlink" width="170" zoomAndPan="magnify" viewBox="0 0 127.5 30.000001" height="40" preserveAspectRatio="xMidYMid meet" version="1.0"><defs><clipPath id="a5f3eb5344"><path d="M 1.816406 0 L 125.203125 0 L 125.203125 29.03125 L 1.816406 29.03125 Z M 1.816406 0 " clip-rule="nonzero"/></clipPath><clipPath id="f0039b4121"><path d="M 2 0 L 83 0 L 83 29.03125 L 2 29.03125 Z M 2 0 " clip-rule="nonzero"/></clipPath><clipPath id="ae2d1b1fa5"><path d="M 1.816406 2.960938 L 79.746094 -5.492188 L 82.875 23.371094 L 4.945312 31.820312 Z M 1.816406 2.960938 " clip-rule="nonzero"/></clipPath><clipPath id="7f44ae7bb1"><path d="M 1.816406 2.960938 L 79.746094 -5.492188 L 82.875 23.371094 L 4.945312 31.820312 Z M 1.816406 2.960938 " clip-rule="nonzero"/></clipPath><clipPath id="0dfeb07723"><path d="M 1.816406 2.960938 L 79.746094 -5.492188 L 82.875 23.371094 L 4.945312 31.820312 Z M 1.816406 2.960938 " clip-rule="nonzero"/></clipPath><clipPath id="eed10b3f54"><path d="M 2 0 L 83 0 L 83 29 L 2 29 Z M 2 0 " clip-rule="nonzero"/></clipPath><clipPath id="9ebef24019"><path d="M 1.816406 2.960938 L 79.746094 -5.492188 L 82.875 23.371094 L 4.945312 31.820312 Z M 1.816406 2.960938 " clip-rule="nonzero"/></clipPath><clipPath id="949d225d9f"><path d="M 1.816406 2.960938 L 79.746094 -5.492188 L 82.875 23.371094 L 4.945312 31.820312 Z M 1.816406 2.960938 " clip-rule="nonzero"/></clipPath><clipPath id="403da0f31b"><path d="M 1.816406 2.960938 L 79.746094 -5.492188 L 82.875 23.371094 L 4.945312 31.820312 Z M 1.816406 2.960938 " clip-rule="nonzero"/></clipPath><clipPath id="b3e2eb0e2c"><path d="M 5 0 L 80 0 L 80 27 L 5 27 Z M 5 0 " clip-rule="nonzero"/></clipPath><clipPath id="ed832449a6"><path d="M 1.816406 2.960938 L 79.746094 -5.492188 L 82.875 23.371094 L 4.945312 31.820312 Z M 1.816406 2.960938 " clip-rule="nonzero"/></clipPath><clipPath id="a82a21ce59"><path d="M 1.816406 2.960938 L 79.746094 -5.492188 L 82.875 23.371094 L 4.945312 31.820312 Z M 1.816406 2.960938 " clip-rule="nonzero"/></clipPath><clipPath id="ecb21fb613"><path d="M 1.816406 2.960938 L 79.746094 -5.492188 L 82.875 23.371094 L 4.945312 31.820312 Z M 1.816406 2.960938 " clip-rule="nonzero"/></clipPath><clipPath id="497a6a7774"><path d="M 4 0 L 80 0 L 80 26 L 4 26 Z M 4 0 " clip-rule="nonzero"/></clipPath><clipPath id="39f9f712eb"><path d="M 1.816406 2.960938 L 79.746094 -5.492188 L 82.875 23.371094 L 4.945312 31.820312 Z M 1.816406 2.960938 " clip-rule="nonzero"/></clipPath><clipPath id="4fbf1cd5f9"><path d="M 1.816406 2.960938 L 79.746094 -5.492188 L 82.875 23.371094 L 4.945312 31.820312 Z M 1.816406 2.960938 " clip-rule="nonzero"/></clipPath><clipPath id="1e1cb0c274"><path d="M 1.816406 2.960938 L 79.746094 -5.492188 L 82.875 23.371094 L 4.945312 31.820312 Z M 1.816406 2.960938 " clip-rule="nonzero"/></clipPath><clipPath id="9988e3000f"><path d="M 79.332031 0 L 106.910156 0 L 106.910156 26.039062 L 79.332031 26.039062 Z M 79.332031 0 " clip-rule="nonzero"/></clipPath></defs><g clip-path="url(#a5f3eb5344)"><path fill="#ffffff" d="M 1.816406 0 L 125.203125 0 L 125.203125 29.03125 L 1.816406 29.03125 Z M 1.816406 0 " fill-opacity="1" fill-rule="nonzero"/><path fill="#ffffff" d="M 1.816406 0 L 125.203125 0 L 125.203125 29.03125 L 1.816406 29.03125 Z M 1.816406 0 " fill-opacity="1" fill-rule="nonzero"/></g><g clip-path="url(#f0039b4121)"><g clip-path="url(#ae2d1b1fa5)"><g clip-path="url(#7f44ae7bb1)"><g clip-path="url(#0dfeb07723)"><path fill="#ff9740" d="M 62.199219 6.753906 C 60.515625 5.691406 58.445312 5.261719 55.964844 5.527344 C 52.984375 5.851562 50.613281 7.074219 48.820312 9.128906 C 48.519531 9.476562 48.242188 9.839844 47.996094 10.214844 C 46.050781 7.941406 43.34375 6.898438 39.808594 7.28125 C 37.875 7.492188 36.195312 8.078125 34.765625 9.027344 L 34.777344 8.976562 C 34.78125 8.96875 34.785156 8.957031 34.785156 8.949219 C 35.023438 7.851562 35.058594 7.105469 35.015625 6.726562 C 34.847656 5.152344 33.757812 3.609375 31.019531 2.949219 C 30.152344 2.734375 29.40625 2.6875 28.789062 2.753906 C 27.792969 2.863281 27.003906 3.253906 26.390625 3.847656 C 25.808594 4.410156 25.46875 4.992188 25.289062 5.535156 C 25.203125 5.800781 25.089844 6.207031 24.964844 6.753906 C 24.960938 6.769531 24.957031 6.785156 24.953125 6.800781 L 24.46875 9.089844 L 23.351562 6.652344 C 23.339844 6.621094 23.324219 6.59375 23.308594 6.5625 C 22.996094 5.941406 22.421875 5.273438 21.453125 4.699219 C 20.503906 4.136719 19.515625 3.933594 18.5 4.042969 C 17.605469 4.140625 16.902344 4.378906 16.367188 4.683594 C 15.082031 5.414062 14.234375 6.542969 13.890625 8.128906 L 13.429688 10.253906 L 12.484375 8.175781 C 12.078125 7.230469 11.625 6.558594 11.199219 6.121094 C 10.402344 5.304688 9.367188 4.890625 8.050781 5.035156 C 7.363281 5.109375 6.609375 5.320312 5.796875 5.699219 C 3.230469 6.902344 2.488281 8.644531 2.660156 10.234375 C 2.710938 10.703125 2.90625 11.421875 3.335938 12.355469 C 3.339844 12.367188 3.34375 12.375 3.347656 12.386719 L 10.484375 27.414062 C 10.519531 27.488281 10.5625 27.566406 10.605469 27.636719 L 10.847656 28.039062 C 11.1875 28.597656 11.746094 29.175781 12.613281 29.675781 C 13.453125 30.160156 14.46875 30.394531 15.679688 30.261719 C 16.96875 30.121094 18.03125 29.542969 18.859375 28.519531 C 19.125 28.1875 19.351562 27.832031 19.546875 27.441406 C 19.777344 26.972656 19.898438 26.605469 19.953125 26.355469 C 19.964844 26.296875 20.144531 25.480469 20.5 23.898438 L 21.707031 26.492188 C 21.734375 26.554688 21.769531 26.621094 21.804688 26.683594 C 22.136719 27.261719 22.699219 27.871094 23.585938 28.410156 C 24.492188 28.960938 25.515625 29.195312 26.664062 29.070312 C 27.8125 28.949219 28.757812 28.5 29.527344 27.765625 C 30.292969 27.035156 30.664062 26.402344 30.816406 25.992188 C 30.941406 25.660156 31.019531 25.367188 31.066406 25.128906 L 31.617188 22.730469 C 32.085938 23.574219 32.675781 24.367188 33.390625 25.105469 C 34.347656 26.109375 35.597656 26.886719 37.175781 27.386719 C 38.621094 27.847656 40.230469 28 42.003906 27.808594 C 45.054688 27.476562 47.109375 26.726562 48.246094 25.832031 C 49.066406 25.1875 49.582031 24.449219 49.832031 23.636719 C 50.75 24.503906 51.910156 25.179688 53.335938 25.636719 C 54.78125 26.097656 56.386719 26.25 58.164062 26.054688 C 61.214844 25.726562 63.269531 24.976562 64.40625 24.078125 C 64.648438 23.886719 64.867188 23.6875 65.058594 23.480469 C 65.855469 24.203125 67.171875 24.707031 69.152344 24.492188 C 71.589844 24.230469 72.800781 23.121094 73.269531 22.074219 C 73.53125 22.261719 73.753906 22.417969 73.9375 22.539062 C 73.992188 22.574219 74.050781 22.609375 74.109375 22.644531 L 74.382812 22.792969 C 75.8125 23.625 76.964844 23.816406 77.714844 23.734375 C 78.710938 23.628906 80 22.976562 81.128906 21.226562 C 81.144531 21.203125 81.160156 21.179688 81.175781 21.15625 C 82.066406 19.671875 82.28125 18.46875 82.195312 17.664062 C 82.132812 17.074219 81.914062 16.460938 81.460938 15.855469 C 81.21875 15.53125 80.710938 15.035156 79.855469 14.464844 C 79.851562 14.460938 79.847656 14.457031 79.839844 14.453125 L 78.273438 13.425781 L 78.726562 12.949219 C 80.078125 11.542969 80.390625 10.226562 80.289062 9.304688 C 80.207031 8.515625 79.722656 7.371094 78.457031 6.105469 C 77.007812 4.65625 75.628906 4.308594 74.648438 4.414062 C 73.921875 4.492188 73.0625 4.816406 72.148438 5.535156 L 71.78125 2.140625 C 71.738281 1.726562 71.6875 1.410156 71.644531 1.183594 C 71.429688 -0.183594 70.773438 -1.085938 69.914062 -1.652344 C 69.148438 -2.167969 67.953125 -2.515625 66.269531 -2.335938 C 63.730469 -2.058594 62.507812 -0.867188 62.066406 0.261719 C 62.054688 0.292969 62.042969 0.328125 62.03125 0.359375 C 61.828125 0.945312 61.746094 1.457031 61.738281 1.890625 C 61.730469 2.183594 61.75 2.617188 61.8125 3.191406 Z M 26.078125 24.222656 L 26.097656 24.179688 L 26.097656 24.1875 C 26.09375 24.199219 26.085938 24.210938 26.078125 24.222656 L 26.074219 24.234375 C 26.074219 24.230469 26.078125 24.226562 26.078125 24.222656 Z M 26.074219 24.074219 C 26.066406 24.082031 26.058594 24.085938 26.050781 24.09375 L 26.042969 24.105469 L 26.03125 24.117188 C 26.03125 24.117188 26.039062 24.109375 26.042969 24.105469 Z M 27.371094 18.628906 L 26.132812 24.011719 L 26.132812 24.015625 L 23.871094 19.152344 C 24.367188 19.511719 24.988281 19.6875 25.628906 19.617188 C 26.335938 19.539062 26.957031 19.171875 27.371094 18.628906 Z M 15 25.132812 L 12.640625 20.164062 C 13.160156 20.609375 13.851562 20.835938 14.5625 20.761719 C 15.214844 20.691406 15.796875 20.371094 16.207031 19.898438 L 15.039062 25.144531 L 15.027344 25.171875 Z M 67.886719 12.277344 C 68.15625 12.945312 68.707031 13.480469 69.414062 13.71875 C 70.28125 14.015625 71.242188 13.816406 71.921875 13.210938 C 71.835938 13.515625 71.8125 13.839844 71.847656 14.160156 C 71.875 14.40625 71.941406 14.640625 72.035156 14.863281 C 71.246094 14.449219 70.289062 14.480469 69.523438 14.953125 C 68.898438 15.34375 68.484375 15.976562 68.367188 16.679688 L 67.890625 12.273438 Z M 51.726562 14.101562 C 51.519531 14.804688 51.46875 15.582031 51.5625 16.429688 C 51.628906 17.042969 51.785156 17.621094 52.027344 18.160156 L 52 17.949219 C 51.949219 17.5 52.023438 17.066406 52.191406 16.679688 C 51.90625 16.324219 51.71875 15.882812 51.664062 15.394531 C 51.621094 14.96875 51.636719 14.539062 51.726562 14.105469 Z M 35.566406 15.855469 C 35.359375 16.558594 35.308594 17.335938 35.402344 18.183594 C 35.46875 18.796875 35.625 19.375 35.871094 19.914062 L 35.839844 19.703125 C 35.792969 19.253906 35.863281 18.820312 36.03125 18.433594 C 35.75 18.074219 35.558594 17.636719 35.507812 17.148438 C 35.460938 16.722656 35.476562 16.289062 35.570312 15.855469 Z M 18.886719 9.085938 L 18.902344 9.082031 C 18.902344 9.082031 21.179688 14.070312 21.179688 14.070312 C 20.675781 13.6875 20.035156 13.496094 19.375 13.566406 C 18.699219 13.640625 18.105469 13.976562 17.691406 14.472656 L 18.832031 9.191406 C 18.839844 9.160156 18.835938 9.121094 18.847656 9.09375 Z M 18.886719 9.085938 " fill-opacity="1" fill-rule="evenodd"/></g></g></g></g><g clip-path="url(#eed10b3f54)"><g clip-path="url(#9ebef24019)"><g clip-path="url(#949d225d9f)"><g clip-path="url(#403da0f31b)"><path fill="#ffffff" d="M 62.019531 5.078125 C 60.332031 4.015625 58.261719 3.585938 55.785156 3.855469 C 52.804688 4.175781 50.429688 5.398438 48.640625 7.453125 C 48.335938 7.800781 48.0625 8.164062 47.816406 8.539062 C 45.871094 6.265625 43.164062 5.222656 39.625 5.605469 C 37.691406 5.816406 36.015625 6.402344 34.585938 7.351562 L 34.597656 7.300781 C 34.597656 7.292969 34.601562 7.28125 34.601562 7.273438 C 34.84375 6.179688 34.875 5.433594 34.835938 5.050781 C 34.664062 3.476562 33.574219 1.933594 30.839844 1.277344 C 29.972656 1.058594 29.226562 1.011719 28.605469 1.078125 C 27.609375 1.1875 26.824219 1.578125 26.207031 2.175781 C 25.625 2.734375 25.289062 3.316406 25.109375 3.859375 C 25.019531 4.125 24.910156 4.53125 24.78125 5.078125 C 24.777344 5.09375 24.777344 5.109375 24.773438 5.125 L 24.285156 7.414062 L 23.171875 4.976562 C 23.15625 4.945312 23.144531 4.917969 23.128906 4.886719 C 22.8125 4.265625 22.238281 3.597656 21.273438 3.023438 C 20.324219 2.460938 19.335938 2.257812 18.316406 2.367188 C 17.425781 2.464844 16.71875 2.703125 16.183594 3.007812 C 14.902344 3.738281 14.050781 4.867188 13.707031 6.453125 L 13.25 8.578125 L 12.304688 6.5 C 11.898438 5.554688 11.445312 4.882812 11.019531 4.449219 C 10.21875 3.628906 9.1875 3.214844 7.867188 3.359375 C 7.183594 3.433594 6.425781 3.644531 5.613281 4.027344 C 3.046875 5.226562 2.304688 6.96875 2.476562 8.558594 C 2.527344 9.027344 2.722656 9.746094 3.152344 10.683594 C 3.15625 10.691406 3.160156 10.699219 3.167969 10.710938 L 10.300781 25.738281 C 10.339844 25.8125 10.378906 25.890625 10.425781 25.964844 L 10.667969 26.363281 C 11.003906 26.921875 11.5625 27.5 12.433594 28.003906 C 13.269531 28.484375 14.285156 28.71875 15.496094 28.585938 C 16.789062 28.445312 17.851562 27.867188 18.675781 26.84375 C 18.941406 26.515625 19.171875 26.15625 19.363281 25.769531 C 19.597656 25.296875 19.714844 24.929688 19.769531 24.679688 C 19.78125 24.621094 19.964844 23.804688 20.316406 22.222656 L 21.523438 24.816406 C 21.554688 24.882812 21.585938 24.945312 21.625 25.007812 C 21.957031 25.585938 22.519531 26.195312 23.40625 26.734375 C 24.3125 27.285156 25.335938 27.519531 26.480469 27.394531 C 27.628906 27.273438 28.578125 26.824219 29.34375 26.089844 C 30.109375 25.359375 30.484375 24.726562 30.636719 24.320312 C 30.761719 23.984375 30.839844 23.695312 30.886719 23.453125 L 31.4375 21.054688 C 31.902344 21.898438 32.492188 22.691406 33.207031 23.429688 C 34.164062 24.433594 35.417969 25.210938 36.992188 25.710938 C 38.441406 26.171875 40.046875 26.324219 41.824219 26.132812 C 44.875 25.800781 46.929688 25.050781 48.066406 24.15625 C 48.882812 23.511719 49.402344 22.777344 49.652344 21.960938 C 50.570312 22.828125 51.730469 23.503906 53.152344 23.960938 C 54.597656 24.421875 56.207031 24.574219 57.980469 24.378906 C 61.035156 24.050781 63.085938 23.300781 64.222656 22.402344 C 64.46875 22.210938 64.683594 22.011719 64.875 21.804688 C 65.675781 22.527344 66.988281 23.03125 68.96875 22.816406 C 71.40625 22.554688 72.617188 21.449219 73.085938 20.398438 C 73.347656 20.585938 73.570312 20.742188 73.753906 20.863281 C 73.8125 20.902344 73.867188 20.933594 73.925781 20.96875 L 74.203125 21.117188 C 75.632812 21.949219 76.78125 22.140625 77.53125 22.058594 C 78.527344 21.953125 79.820312 21.300781 80.949219 19.550781 C 80.964844 19.53125 80.980469 19.507812 80.992188 19.480469 C 81.882812 17.996094 82.101562 16.792969 82.015625 15.988281 C 81.949219 15.398438 81.734375 14.785156 81.277344 14.179688 C 81.039062 13.859375 80.53125 13.363281 79.675781 12.789062 C 79.667969 12.789062 79.664062 12.785156 79.660156 12.78125 L 78.09375 11.75 L 78.546875 11.277344 C 79.898438 9.867188 80.210938 8.550781 80.109375 7.628906 C 80.023438 6.839844 79.539062 5.695312 78.273438 4.429688 C 76.824219 2.980469 75.449219 2.632812 74.464844 2.742188 C 73.742188 2.820312 72.878906 3.140625 71.96875 3.859375 L 71.601562 0.464844 C 71.554688 0.0507812 71.507812 -0.265625 71.460938 -0.492188 C 71.246094 -1.859375 70.59375 -2.761719 69.734375 -3.328125 C 68.964844 -3.84375 67.769531 -4.191406 66.089844 -4.007812 C 63.546875 -3.734375 62.324219 -2.542969 61.882812 -1.414062 C 61.871094 -1.382812 61.859375 -1.347656 61.847656 -1.316406 C 61.648438 -0.730469 61.5625 -0.21875 61.554688 0.214844 C 61.550781 0.507812 61.570312 0.941406 61.632812 1.519531 L 62.019531 5.082031 Z M 25.898438 22.546875 L 25.917969 22.503906 L 25.914062 22.511719 C 25.914062 22.523438 25.90625 22.535156 25.898438 22.546875 L 25.890625 22.558594 C 25.890625 22.558594 25.894531 22.550781 25.898438 22.546875 Z M 25.890625 22.398438 C 25.882812 22.40625 25.878906 22.410156 25.871094 22.417969 L 25.859375 22.429688 L 25.851562 22.441406 C 25.851562 22.441406 25.859375 22.433594 25.859375 22.429688 Z M 27.1875 16.953125 L 25.953125 22.335938 L 25.949219 22.339844 L 23.6875 17.476562 C 24.183594 17.835938 24.808594 18.011719 25.445312 17.941406 C 26.15625 17.863281 26.777344 17.496094 27.1875 16.953125 Z M 14.820312 23.457031 L 12.460938 18.488281 C 12.976562 18.933594 13.667969 19.164062 14.378906 19.085938 C 15.03125 19.015625 15.617188 18.695312 16.023438 18.222656 L 14.855469 23.472656 L 14.84375 23.496094 Z M 67.707031 10.601562 C 67.976562 11.269531 68.527344 11.804688 69.230469 12.042969 C 70.101562 12.339844 71.058594 12.140625 71.738281 11.535156 C 71.65625 11.839844 71.628906 12.164062 71.667969 12.484375 C 71.695312 12.730469 71.757812 12.96875 71.855469 13.1875 C 71.066406 12.773438 70.109375 12.804688 69.34375 13.28125 C 68.71875 13.667969 68.304688 14.300781 68.183594 15.003906 L 67.707031 10.597656 Z M 51.546875 12.429688 C 51.335938 13.128906 51.289062 13.90625 51.378906 14.753906 C 51.445312 15.371094 51.601562 15.945312 51.847656 16.484375 L 51.816406 16.273438 C 51.769531 15.824219 51.839844 15.390625 52.007812 15.007812 C 51.726562 14.648438 51.535156 14.207031 51.484375 13.71875 C 51.4375 13.292969 51.453125 12.863281 51.546875 12.429688 Z M 35.386719 14.179688 C 35.175781 14.882812 35.128906 15.660156 35.21875 16.507812 C 35.289062 17.121094 35.445312 17.699219 35.6875 18.238281 L 35.660156 18.027344 C 35.609375 17.578125 35.683594 17.144531 35.851562 16.757812 C 35.566406 16.398438 35.378906 15.960938 35.324219 15.472656 C 35.277344 15.046875 35.292969 14.613281 35.386719 14.179688 Z M 18.703125 7.410156 L 18.71875 7.40625 C 18.71875 7.40625 21 12.394531 21 12.394531 C 20.496094 12.011719 19.851562 11.820312 19.191406 11.890625 C 18.519531 11.964844 17.921875 12.300781 17.511719 12.796875 L 18.652344 7.515625 C 18.660156 7.484375 18.652344 7.445312 18.667969 7.417969 Z M 18.703125 7.410156 " fill-opacity="1" fill-rule="evenodd"/></g></g></g></g><g clip-path="url(#b3e2eb0e2c)"><g clip-path="url(#ed832449a6)"><g clip-path="url(#a82a21ce59)"><g clip-path="url(#ecb21fb613)"><path fill="#572716" d="M 47.308594 13.847656 C 47.433594 14.992188 47.238281 15.871094 46.726562 16.488281 C 46.210938 17.105469 45.609375 17.449219 44.914062 17.523438 L 38.230469 18.25 C 38.285156 18.773438 38.644531 19.183594 39.304688 19.46875 C 39.960938 19.757812 40.601562 19.871094 41.222656 19.804688 C 42.3125 19.683594 43.15625 19.480469 43.753906 19.1875 L 44.050781 19.039062 C 44.480469 18.785156 44.84375 18.640625 45.144531 18.609375 C 45.746094 18.542969 46.308594 18.910156 46.832031 19.707031 C 47.132812 20.1875 47.300781 20.605469 47.339844 20.960938 C 47.519531 22.632812 45.609375 23.683594 41.605469 24.117188 C 40.214844 24.265625 38.949219 24.164062 37.816406 23.800781 C 36.683594 23.441406 35.773438 22.898438 35.085938 22.175781 C 33.738281 20.785156 32.960938 19.152344 32.757812 17.277344 C 32.503906 14.914062 33.0625 12.941406 34.441406 11.355469 C 35.820312 9.773438 37.65625 8.859375 39.949219 8.609375 C 42.5625 8.328125 44.582031 9.039062 46.003906 10.746094 C 46.746094 11.648438 47.183594 12.683594 47.308594 13.847656 Z M 63.46875 12.097656 C 63.59375 13.242188 63.398438 14.121094 62.882812 14.734375 C 62.371094 15.351562 61.765625 15.695312 61.070312 15.773438 L 54.386719 16.496094 C 54.445312 17.023438 54.800781 17.429688 55.460938 17.71875 C 56.121094 18.007812 56.757812 18.117188 57.378906 18.050781 C 58.46875 17.933594 59.3125 17.726562 59.910156 17.433594 L 60.207031 17.289062 C 60.636719 17.035156 61 16.890625 61.304688 16.855469 C 61.902344 16.792969 62.46875 17.15625 62.992188 17.953125 C 63.289062 18.433594 63.460938 18.851562 63.496094 19.210938 C 63.679688 20.878906 61.765625 21.929688 57.761719 22.363281 C 56.371094 22.515625 55.109375 22.410156 53.976562 22.050781 C 52.84375 21.6875 51.933594 21.148438 51.246094 20.425781 C 49.898438 19.035156 49.121094 17.398438 48.917969 15.523438 C 48.660156 13.160156 49.222656 11.1875 50.601562 9.605469 C 51.980469 8.023438 53.816406 7.105469 56.109375 6.859375 C 58.722656 6.574219 60.738281 7.285156 62.160156 8.992188 C 62.90625 9.898438 63.339844 10.933594 63.46875 12.09375 Z M 74.234375 12.695312 L 78.320312 15.382812 C 78.832031 15.722656 79.160156 15.992188 79.304688 16.1875 C 79.449219 16.378906 79.53125 16.570312 79.554688 16.757812 C 79.601562 17.207031 79.375 17.847656 78.875 18.679688 C 78.324219 19.539062 77.800781 19.992188 77.3125 20.046875 C 76.898438 20.089844 76.296875 19.878906 75.503906 19.414062 L 75.199219 19.25 C 74.730469 18.941406 73.996094 18.386719 72.996094 17.59375 C 71.996094 16.804688 71.242188 16.242188 70.730469 15.917969 L 70.964844 18.085938 C 71.011719 18.519531 71.035156 18.84375 71.027344 19.0625 C 71.023438 19.28125 70.960938 19.539062 70.84375 19.835938 C 70.648438 20.351562 69.953125 20.671875 68.75 20.804688 C 67.546875 20.933594 66.8125 20.757812 66.496094 20.28125 C 66.332031 20.011719 66.226562 19.773438 66.175781 19.558594 C 66.125 19.347656 66.074219 19.023438 66.027344 18.59375 L 64.199219 1.738281 C 64.152344 1.308594 64.132812 0.984375 64.136719 0.765625 C 64.140625 0.546875 64.195312 0.289062 64.296875 -0.0078125 C 64.503906 -0.542969 65.210938 -0.875 66.414062 -1.003906 C 67.316406 -1.101562 67.972656 -1.011719 68.382812 -0.734375 C 68.730469 -0.507812 68.945312 -0.113281 69.023438 0.449219 C 69.0625 0.613281 69.101562 0.875 69.136719 1.230469 L 70.105469 10.152344 C 70.414062 9.832031 70.875 9.300781 71.488281 8.550781 C 72.101562 7.800781 72.558594 7.265625 72.867188 6.949219 L 73.183594 6.6875 C 73.785156 6.109375 74.324219 5.792969 74.792969 5.742188 C 75.261719 5.691406 75.84375 6.015625 76.539062 6.707031 C 77.230469 7.402344 77.601562 7.964844 77.648438 8.394531 C 77.695312 8.824219 77.402344 9.371094 76.769531 10.027344 L 74.234375 12.691406 Z M 30.289062 4.222656 C 31.597656 4.535156 32.292969 5.066406 32.375 5.816406 C 32.398438 6.0625 32.335938 6.53125 32.183594 7.234375 L 28.460938 23.4375 C 28.4375 23.570312 28.390625 23.738281 28.316406 23.933594 C 28.242188 24.132812 28.019531 24.410156 27.652344 24.761719 C 27.28125 25.117188 26.816406 25.324219 26.261719 25.382812 C 25.707031 25.441406 25.210938 25.339844 24.773438 25.074219 C 24.335938 24.808594 24.035156 24.53125 23.871094 24.246094 L 19.519531 14.898438 C 18.101562 21.277344 17.378906 24.523438 17.351562 24.640625 C 17.328125 24.757812 17.257812 24.925781 17.152344 25.144531 C 17.042969 25.367188 16.910156 25.570312 16.757812 25.757812 C 16.375 26.234375 15.878906 26.507812 15.277344 26.574219 C 14.679688 26.636719 14.167969 26.550781 13.753906 26.3125 C 13.335938 26.070312 13.046875 25.816406 12.886719 25.550781 L 12.640625 25.148438 L 5.507812 10.125 C 5.230469 9.527344 5.078125 9.082031 5.046875 8.78125 C 4.964844 8.03125 5.53125 7.371094 6.742188 6.804688 C 7.269531 6.554688 7.753906 6.410156 8.195312 6.359375 C 8.632812 6.3125 8.988281 6.425781 9.257812 6.699219 C 9.523438 6.976562 9.785156 7.410156 10.042969 8.011719 L 14.164062 17.070312 L 16.234375 7.480469 C 16.410156 6.664062 16.832031 6.070312 17.492188 5.695312 C 17.78125 5.53125 18.164062 5.421875 18.644531 5.371094 C 19.125 5.320312 19.585938 5.425781 20.035156 5.691406 C 20.480469 5.953125 20.777344 6.230469 20.921875 6.519531 L 25.222656 15.929688 L 27.300781 6.140625 C 27.402344 5.691406 27.492188 5.359375 27.5625 5.144531 C 27.636719 4.925781 27.785156 4.707031 28.019531 4.480469 C 28.25 4.257812 28.554688 4.125 28.933594 4.085938 C 29.308594 4.042969 29.761719 4.089844 30.289062 4.222656 Z M 41.449219 15.308594 C 42.164062 15.230469 42.488281 14.894531 42.421875 14.292969 C 42.375 13.859375 42.171875 13.53125 41.816406 13.304688 C 41.457031 13.078125 40.972656 12.996094 40.363281 13.0625 C 39.75 13.128906 39.171875 13.445312 38.625 14.007812 C 38.078125 14.570312 37.832031 15.132812 37.894531 15.695312 Z M 57.605469 13.558594 C 58.320312 13.480469 58.644531 13.140625 58.582031 12.539062 C 58.535156 12.109375 58.332031 11.78125 57.976562 11.550781 C 57.617188 11.324219 57.132812 11.246094 56.523438 11.3125 C 55.910156 11.378906 55.332031 11.691406 54.785156 12.253906 C 54.234375 12.816406 53.992188 13.378906 54.054688 13.941406 Z M 57.605469 13.558594 " fill-opacity="1" fill-rule="nonzero"/></g></g></g></g><g clip-path="url(#497a6a7774)"><g clip-path="url(#39f9f712eb)"><g clip-path="url(#4fbf1cd5f9)"><g clip-path="url(#1e1cb0c274)"><path fill="#bc5952" d="M 47.164062 12.519531 C 47.289062 13.664062 47.09375 14.542969 46.582031 15.15625 C 46.066406 15.773438 45.464844 16.117188 44.769531 16.195312 L 38.085938 16.917969 C 38.140625 17.445312 38.5 17.851562 39.160156 18.140625 C 39.816406 18.429688 40.457031 18.539062 41.078125 18.472656 C 42.167969 18.355469 43.011719 18.148438 43.609375 17.855469 L 43.90625 17.710938 C 44.335938 17.457031 44.699219 17.3125 45 17.277344 C 45.601562 17.214844 46.164062 17.578125 46.6875 18.375 C 46.988281 18.855469 47.15625 19.273438 47.195312 19.632812 C 47.375 21.300781 45.464844 22.351562 41.460938 22.785156 C 40.070312 22.9375 38.804688 22.832031 37.671875 22.472656 C 36.539062 22.109375 35.628906 21.570312 34.941406 20.847656 C 33.59375 19.457031 32.816406 17.820312 32.613281 15.945312 C 32.359375 13.582031 32.917969 11.609375 34.296875 10.027344 C 35.675781 8.445312 37.511719 7.527344 39.804688 7.28125 C 42.417969 6.996094 44.4375 7.707031 45.859375 9.414062 C 46.601562 10.320312 47.039062 11.355469 47.164062 12.515625 Z M 63.324219 10.765625 C 63.449219 11.910156 63.253906 12.789062 62.742188 13.40625 C 62.226562 14.023438 61.621094 14.367188 60.925781 14.441406 L 54.242188 15.167969 C 54.300781 15.691406 54.660156 16.097656 55.316406 16.386719 C 55.976562 16.675781 56.617188 16.789062 57.234375 16.71875 C 58.328125 16.601562 59.167969 16.398438 59.765625 16.105469 L 60.0625 15.957031 C 60.492188 15.703125 60.855469 15.558594 61.160156 15.527344 C 61.761719 15.460938 62.324219 15.828125 62.847656 16.625 C 63.144531 17.105469 63.316406 17.523438 63.355469 17.878906 C 63.535156 19.550781 61.621094 20.601562 57.617188 21.035156 C 56.226562 21.183594 54.964844 21.082031 53.832031 20.71875 C 52.699219 20.359375 51.789062 19.816406 51.101562 19.09375 C 49.753906 17.703125 48.976562 16.070312 48.773438 14.195312 C 48.515625 11.832031 49.078125 9.859375 50.457031 8.273438 C 51.835938 6.691406 53.671875 5.777344 55.964844 5.527344 C 58.578125 5.246094 60.59375 5.957031 62.015625 7.660156 C 62.761719 8.566406 63.195312 9.601562 63.324219 10.765625 Z M 74.089844 11.363281 L 78.175781 14.050781 C 78.6875 14.394531 79.015625 14.664062 79.160156 14.855469 C 79.304688 15.050781 79.386719 15.238281 79.410156 15.425781 C 79.457031 15.878906 79.230469 16.519531 78.734375 17.351562 C 78.179688 18.207031 77.65625 18.664062 77.167969 18.714844 C 76.753906 18.761719 76.152344 18.550781 75.359375 18.085938 L 75.058594 17.917969 C 74.585938 17.609375 73.851562 17.058594 72.851562 16.265625 C 71.851562 15.472656 71.097656 14.914062 70.585938 14.589844 L 70.820312 16.757812 C 70.867188 17.1875 70.890625 17.511719 70.886719 17.730469 C 70.878906 17.949219 70.816406 18.210938 70.699219 18.507812 C 70.507812 19.019531 69.808594 19.34375 68.605469 19.472656 C 67.402344 19.605469 66.667969 19.429688 66.351562 18.949219 C 66.191406 18.683594 66.082031 18.441406 66.03125 18.230469 C 65.980469 18.019531 65.929688 17.695312 65.882812 17.265625 L 64.054688 0.410156 C 64.007812 -0.0234375 63.988281 -0.347656 63.992188 -0.566406 C 63.996094 -0.785156 64.050781 -1.042969 64.152344 -1.335938 C 64.359375 -1.871094 65.066406 -2.207031 66.269531 -2.335938 C 67.171875 -2.433594 67.828125 -2.34375 68.238281 -2.066406 C 68.585938 -1.835938 68.800781 -1.441406 68.878906 -0.882812 C 68.917969 -0.714844 68.957031 -0.453125 68.996094 -0.0976562 L 69.960938 8.820312 C 70.269531 8.503906 70.730469 7.96875 71.34375 7.21875 C 71.957031 6.46875 72.417969 5.9375 72.722656 5.617188 L 73.039062 5.355469 C 73.640625 4.777344 74.179688 4.464844 74.648438 4.414062 C 75.117188 4.363281 75.699219 4.683594 76.394531 5.378906 C 77.085938 6.070312 77.457031 6.632812 77.503906 7.0625 C 77.550781 7.496094 77.257812 8.039062 76.625 8.695312 Z M 30.144531 2.890625 C 31.453125 3.203125 32.148438 3.738281 32.230469 4.488281 C 32.253906 4.730469 32.191406 5.203125 32.039062 5.902344 L 28.316406 22.105469 C 28.296875 22.242188 28.246094 22.40625 28.171875 22.605469 C 28.097656 22.800781 27.878906 23.078125 27.507812 23.433594 C 27.136719 23.785156 26.671875 23.992188 26.117188 24.050781 C 25.566406 24.113281 25.066406 24.007812 24.628906 23.742188 C 24.191406 23.476562 23.890625 23.203125 23.726562 22.917969 L 19.375 13.566406 C 17.957031 19.945312 17.234375 23.195312 17.207031 23.308594 C 17.183594 23.425781 17.117188 23.597656 17.007812 23.816406 C 16.898438 24.035156 16.765625 24.242188 16.617188 24.425781 C 16.230469 24.90625 15.734375 25.175781 15.136719 25.242188 C 14.535156 25.308594 14.023438 25.21875 13.609375 24.980469 C 13.191406 24.742188 12.902344 24.488281 12.742188 24.222656 L 12.5 23.820312 L 5.363281 8.796875 C 5.085938 8.199219 4.933594 7.75 4.902344 7.449219 C 4.820312 6.699219 5.386719 6.039062 6.601562 5.472656 C 7.125 5.226562 7.609375 5.078125 8.050781 5.03125 C 8.492188 4.984375 8.84375 5.097656 9.113281 5.371094 C 9.382812 5.644531 9.644531 6.082031 9.898438 6.679688 L 14.019531 15.742188 L 16.089844 6.152344 C 16.265625 5.335938 16.6875 4.738281 17.351562 4.363281 C 17.636719 4.199219 18.019531 4.09375 18.5 4.039062 C 18.980469 3.988281 19.441406 4.09375 19.890625 4.359375 C 20.335938 4.625 20.632812 4.902344 20.777344 5.1875 L 25.078125 14.601562 L 27.15625 4.808594 C 27.261719 4.363281 27.347656 4.03125 27.417969 3.8125 C 27.492188 3.597656 27.644531 3.378906 27.875 3.152344 C 28.105469 2.929688 28.410156 2.796875 28.789062 2.753906 C 29.164062 2.714844 29.617188 2.761719 30.144531 2.890625 Z M 41.304688 13.980469 C 42.019531 13.902344 42.34375 13.5625 42.277344 12.960938 C 42.230469 12.53125 42.027344 12.203125 41.671875 11.976562 C 41.3125 11.746094 40.832031 11.667969 40.21875 11.734375 C 39.605469 11.800781 39.027344 12.113281 38.480469 12.675781 C 37.933594 13.238281 37.6875 13.800781 37.75 14.363281 Z M 57.464844 12.226562 C 58.175781 12.148438 58.503906 11.808594 58.4375 11.210938 C 58.390625 10.777344 58.1875 10.449219 57.832031 10.222656 C 57.472656 9.996094 56.988281 9.914062 56.378906 9.980469 C 55.765625 10.046875 55.1875 10.363281 54.640625 10.925781 C 54.089844 11.488281 53.847656 12.050781 53.910156 12.613281 Z M 57.464844 12.226562 " fill-opacity="1" fill-rule="nonzero"/></g></g></g></g><g clip-path="url(#9988e3000f)"><path fill="#bc5952" d="M 82.136719 26.117188 L 104.183594 26.117188 C 104.558594 26.117188 104.914062 26.046875 105.257812 25.90625 C 105.601562 25.761719 105.90625 25.558594 106.167969 25.296875 C 106.433594 25.035156 106.632812 24.730469 106.777344 24.386719 C 106.917969 24.042969 106.992188 23.6875 106.992188 23.3125 L 106.992188 1.265625 C 106.992188 0.890625 106.917969 0.535156 106.777344 0.191406 C 106.632812 -0.152344 106.433594 -0.457031 106.167969 -0.71875 C 105.90625 -0.980469 105.601562 -1.183594 105.257812 -1.328125 C 104.914062 -1.46875 104.558594 -1.539062 104.183594 -1.539062 L 82.136719 -1.539062 C 81.765625 -1.539062 81.40625 -1.46875 81.0625 -1.328125 C 80.71875 -1.183594 80.414062 -0.980469 80.152344 -0.71875 C 79.890625 -0.457031 79.6875 -0.152344 79.542969 0.191406 C 79.402344 0.535156 79.332031 0.890625 79.332031 1.265625 L 79.332031 23.3125 C 79.332031 23.6875 79.402344 24.042969 79.542969 24.386719 C 79.6875 24.730469 79.890625 25.035156 80.152344 25.296875 C 80.414062 25.558594 80.71875 25.761719 81.0625 25.90625 C 81.40625 26.046875 81.765625 26.117188 82.136719 26.117188 Z M 101.398438 21.234375 C 101.394531 21.488281 101.304688 21.707031 101.125 21.886719 C 100.945312 22.066406 100.730469 22.160156 100.476562 22.167969 L 98.59375 22.167969 C 98.332031 22.167969 98.109375 22.074219 97.921875 21.890625 C 97.738281 21.703125 97.644531 21.480469 97.644531 21.21875 L 97.644531 19.5 C 97.644531 19.238281 97.738281 19.015625 97.921875 18.828125 C 98.109375 18.644531 98.332031 18.550781 98.59375 18.550781 L 100.476562 18.550781 C 100.738281 18.550781 100.960938 18.644531 101.144531 18.828125 C 101.332031 19.015625 101.425781 19.238281 101.425781 19.5 Z M 98.59375 2.410156 L 100.492188 2.410156 C 100.753906 2.410156 100.976562 2.503906 101.160156 2.6875 C 101.347656 2.875 101.4375 3.097656 101.4375 3.359375 L 101.4375 6.5 L 100.976562 15.785156 C 100.960938 16.039062 100.863281 16.25 100.679688 16.425781 C 100.496094 16.597656 100.277344 16.683594 100.027344 16.683594 L 99.085938 16.683594 C 98.828125 16.695312 98.601562 16.613281 98.410156 16.4375 C 98.214844 16.265625 98.113281 16.046875 98.101562 15.785156 L 97.605469 6.539062 L 97.605469 3.359375 C 97.605469 3.230469 97.632812 3.105469 97.683594 2.988281 C 97.730469 2.867188 97.804688 2.761719 97.898438 2.675781 C 97.992188 2.585938 98.097656 2.515625 98.21875 2.472656 C 98.339844 2.425781 98.464844 2.40625 98.59375 2.410156 Z M 84.898438 3.363281 C 84.898438 3.238281 84.921875 3.117188 84.96875 3 C 85.015625 2.882812 85.085938 2.78125 85.171875 2.691406 C 85.261719 2.601562 85.363281 2.53125 85.480469 2.484375 C 85.597656 2.433594 85.71875 2.410156 85.84375 2.410156 L 87.667969 2.410156 C 87.929688 2.410156 88.152344 2.503906 88.339844 2.6875 C 88.523438 2.875 88.617188 3.097656 88.617188 3.359375 L 88.617188 4.699219 C 88.617188 4.960938 88.523438 5.183594 88.339844 5.367188 C 88.152344 5.554688 87.929688 5.644531 87.667969 5.644531 L 85.839844 5.644531 C 85.578125 5.644531 85.355469 5.554688 85.171875 5.367188 C 84.984375 5.183594 84.890625 4.960938 84.890625 4.699219 Z M 85.824219 7.402344 L 89.589844 7.402344 C 89.851562 7.402344 90.074219 7.3125 90.261719 7.125 C 90.445312 6.941406 90.539062 6.71875 90.539062 6.457031 L 90.539062 3.359375 C 90.539062 3.097656 90.628906 2.875 90.8125 2.691406 C 90.996094 2.503906 91.21875 2.410156 91.480469 2.410156 L 93.367188 2.410156 C 93.628906 2.410156 93.851562 2.503906 94.039062 2.6875 C 94.222656 2.875 94.316406 3.097656 94.316406 3.359375 L 94.316406 6.464844 C 94.316406 6.726562 94.410156 6.949219 94.59375 7.136719 C 94.78125 7.320312 95.003906 7.414062 95.265625 7.414062 L 95.550781 7.414062 C 95.8125 7.414062 96.035156 7.507812 96.222656 7.691406 C 96.40625 7.875 96.5 8.101562 96.5 8.363281 L 96.5 9.050781 C 96.5 9.3125 96.40625 9.535156 96.222656 9.71875 C 96.035156 9.90625 95.8125 9.996094 95.550781 9.996094 L 95.269531 9.996094 C 95.007812 9.996094 94.785156 10.089844 94.597656 10.273438 C 94.414062 10.460938 94.320312 10.683594 94.320312 10.945312 L 94.320312 18.222656 C 94.320312 19.054688 94.710938 19.40625 95.542969 19.4375 C 95.800781 19.449219 96.019531 19.546875 96.199219 19.730469 C 96.378906 19.914062 96.472656 20.136719 96.480469 20.394531 L 96.480469 21.179688 C 96.476562 21.421875 96.394531 21.628906 96.234375 21.804688 C 96.070312 21.984375 95.871094 22.085938 95.628906 22.109375 C 94.570312 22.230469 93.515625 22.207031 92.464844 22.039062 C 91.304688 21.808594 90.769531 21.164062 90.613281 19.914062 C 90.554688 19.480469 90.527344 19.042969 90.527344 18.605469 L 90.527344 10.492188 C 90.527344 10.355469 90.480469 10.238281 90.382812 10.140625 C 90.285156 10.046875 90.171875 9.996094 90.035156 9.996094 L 89.167969 9.996094 C 89.019531 9.996094 88.894531 10.050781 88.789062 10.15625 C 88.683594 10.261719 88.632812 10.386719 88.632812 10.535156 L 88.632812 21.21875 C 88.632812 21.480469 88.539062 21.703125 88.355469 21.886719 C 88.175781 22.070312 87.953125 22.164062 87.691406 22.167969 L 85.835938 22.167969 C 85.574219 22.167969 85.351562 22.074219 85.164062 21.890625 C 84.980469 21.703125 84.886719 21.480469 84.886719 21.21875 L 84.886719 8.335938 C 84.890625 8.082031 84.984375 7.863281 85.167969 7.679688 C 85.347656 7.5 85.570312 7.40625 85.824219 7.402344 Z M 85.824219 7.402344 " fill-opacity="1" fill-rule="nonzero"/></g></svg>