<svg xmlns="http://www.w3.org/2000/svg" xmlns:xlink="http://www.w3.org/1999/xlink" width="170" zoomAndPan="magnify" viewBox="0 0 127.5 30.000001" height="40" preserveAspectRatio="xMidYMid meet" version="1.0"><metadata><ContainsAiGeneratedContent>Yes</ContainsAiGeneratedContent></metadata><defs><clipPath id="25f1606d15"><path d="M 1.816406 0 L 125.203125 0 L 125.203125 29.03125 L 1.816406 29.03125 Z M 1.816406 0 " clip-rule="nonzero"/></clipPath><clipPath id="302d8f849c"><path d="M 79.203125 0 L 110.410156 0 L 110.410156 29.03125 L 79.203125 29.03125 Z M 79.203125 0 " clip-rule="nonzero"/></clipPath><clipPath id="458b454bce"><path d="M 12 2 L 81 2 L 81 29 L 12 29 Z M 12 2 " clip-rule="nonzero"/></clipPath><clipPath id="bc6f32c192"><path d="M 12.121094 4.625 L 79.449219 -0.207031 L 81.265625 25.128906 L 13.941406 29.960938 Z M 12.121094 4.625 " clip-rule="nonzero"/></clipPath><clipPath id="2efb1d33e8"><path d="M 12.121094 4.625 L 79.449219 -0.207031 L 81.265625 25.128906 L 13.941406 29.960938 Z M 12.121094 4.625 " clip-rule="nonzero"/></clipPath><clipPath id="735857fdd8"><path d="M 12.121094 4.625 L 79.449219 -0.207031 L 81.265625 25.128906 L 13.941406 29.960938 Z M 12.121094 4.625 " clip-rule="nonzero"/></clipPath><clipPath id="ee5f674d0c"><path d="M 12 0 L 81 0 L 81 28 L 12 28 Z M 12 0 " clip-rule="nonzero"/></clipPath><clipPath id="c9058bce3c"><path d="M 12.121094 4.625 L 79.449219 -0.207031 L 81.265625 25.128906 L 13.941406 29.960938 Z M 12.121094 4.625 " clip-rule="nonzero"/></clipPath><clipPath id="6ec5261210"><path d="M 12.121094 4.625 L 79.449219 -0.207031 L 81.265625 25.128906 L 13.941406 29.960938 Z M 12.121094 4.625 " clip-rule="nonzero"/></clipPath><clipPath id="393f87e8c9"><path d="M 12.121094 4.625 L 79.449219 -0.207031 L 81.265625 25.128906 L 13.941406 29.960938 Z M 12.121094 4.625 " clip-rule="nonzero"/></clipPath><clipPath id="9222cf6327"><path d="M 14 3 L 79 3 L 79 26 L 14 26 Z M 14 3 " clip-rule="nonzero"/></clipPath><clipPath id="35cc72e835"><path d="M 12.121094 4.625 L 79.449219 -0.207031 L 81.265625 25.128906 L 13.941406 29.960938 Z M 12.121094 4.625 " clip-rule="nonzero"/></clipPath><clipPath id="6a0bb547e9"><path d="M 12.121094 4.625 L 79.449219 -0.207031 L 81.265625 25.128906 L 13.941406 29.960938 Z M 12.121094 4.625 " clip-rule="nonzero"/></clipPath><clipPath id="43c1c2d310"><path d="M 12.121094 4.625 L 79.449219 -0.207031 L 81.265625 25.128906 L 13.941406 29.960938 Z M 12.121094 4.625 " clip-rule="nonzero"/></clipPath><clipPath id="624fcfea7b"><path d="M 14 2 L 79 2 L 79 25 L 14 25 Z M 14 2 " clip-rule="nonzero"/></clipPath><clipPath id="5b46f82b53"><path d="M 12.121094 4.625 L 79.449219 -0.207031 L 81.265625 25.128906 L 13.941406 29.960938 Z M 12.121094 4.625 " clip-rule="nonzero"/></clipPath><clipPath id="c47680fdc1"><path d="M 12.121094 4.625 L 79.449219 -0.207031 L 81.265625 25.128906 L 13.941406 29.960938 Z M 12.121094 4.625 " clip-rule="nonzero"/></clipPath><clipPath id="30a69cb880"><path d="M 12.121094 4.625 L 79.449219 -0.207031 L 81.265625 25.128906 L 13.941406 29.960938 Z M 12.121094 4.625 " clip-rule="nonzero"/></clipPath></defs><g clip-path="url(#25f1606d15)"><path fill="#ffffff" d="M 1.816406 0 L 125.203125 0 L 125.203125 29.03125 L 1.816406 29.03125 Z M 1.816406 0 " fill-opacity="1" fill-rule="nonzero"/><path fill="#ffffff" d="M 1.816406 0 L 125.203125 0 L 125.203125 29.03125 L 1.816406 29.03125 Z M 1.816406 0 " fill-opacity="1" fill-rule="nonzero"/></g><g clip-path="url(#302d8f849c)"><path fill="#bc5952" d="M 109.808594 2.722656 C 109.941406 2.722656 110.050781 2.613281 110.050781 2.476562 C 110.050781 2.34375 109.941406 2.234375 109.808594 2.234375 L 106.261719 2.234375 C 106.203125 2.234375 106.144531 2.253906 106.097656 2.296875 L 104.636719 3.59375 L 104.089844 3.054688 L 105.972656 1.523438 L 109.808594 1.523438 C 109.941406 1.523438 110.050781 1.414062 110.050781 1.277344 C 110.050781 1.144531 109.941406 1.035156 109.808594 1.035156 L 106.128906 1.035156 L 106.128906 0.289062 C 106.128906 0.15625 106.019531 0.046875 105.886719 0.046875 C 105.75 0.046875 105.640625 0.15625 105.640625 0.289062 L 105.640625 1.160156 L 103.738281 2.710938 L 103.441406 2.417969 C 103.347656 2.324219 103.195312 2.324219 103.097656 2.417969 L 100.253906 5.214844 C 99.984375 5.066406 99.707031 4.933594 99.429688 4.808594 L 99.429688 2.609375 L 102.648438 0.496094 C 102.761719 0.421875 102.792969 0.269531 102.71875 0.15625 C 102.644531 0.0429688 102.492188 0.0117188 102.378906 0.0859375 L 99.429688 2.023438 L 99.429688 0.289062 C 99.429688 0.15625 99.320312 0.046875 99.183594 0.046875 C 99.046875 0.046875 98.9375 0.15625 98.9375 0.289062 L 98.9375 4.601562 C 98.582031 4.464844 98.222656 4.339844 97.855469 4.238281 L 97.855469 0.289062 C 97.855469 0.15625 97.746094 0.046875 97.609375 0.046875 L 91.679688 0.046875 C 91.546875 0.046875 91.4375 0.15625 91.4375 0.289062 L 91.4375 4.238281 C 90.601562 4.472656 89.796875 4.800781 89.035156 5.214844 L 88.574219 4.757812 L 89.625 2.980469 C 89.679688 2.886719 89.667969 2.761719 89.589844 2.683594 L 87.074219 0.121094 C 86.980469 0.0234375 86.824219 0.0195312 86.726562 0.117188 C 86.628906 0.210938 86.628906 0.363281 86.722656 0.460938 L 89.109375 2.894531 L 88.214844 4.40625 L 86.191406 2.417969 C 86.097656 2.324219 85.945312 2.324219 85.847656 2.417969 L 83.496094 4.730469 L 81.316406 3.292969 L 81.316406 0.289062 C 81.316406 0.15625 81.207031 0.046875 81.070312 0.046875 C 80.9375 0.046875 80.828125 0.15625 80.828125 0.289062 L 80.828125 2.96875 L 79.617188 2.171875 C 79.503906 2.097656 79.355469 2.128906 79.28125 2.242188 C 79.207031 2.355469 79.238281 2.507812 79.347656 2.582031 L 80.933594 3.625 C 80.933594 3.625 80.933594 3.625 80.9375 3.625 L 83.140625 5.082031 L 81.65625 6.539062 C 81.609375 6.585938 81.582031 6.648438 81.582031 6.714844 C 81.582031 6.777344 81.609375 6.839844 81.65625 6.886719 L 84.496094 9.679688 C 84.386719 9.878906 84.28125 10.078125 84.179688 10.285156 L 80.8125 8.125 L 80.8125 6.449219 C 80.8125 6.367188 80.773438 6.292969 80.707031 6.246094 L 79.621094 5.519531 C 79.507812 5.445312 79.355469 5.472656 79.28125 5.585938 C 79.207031 5.699219 79.234375 5.851562 79.347656 5.925781 L 80.324219 6.582031 L 80.324219 7.8125 L 79.617188 7.355469 C 79.503906 7.285156 79.351562 7.316406 79.277344 7.429688 C 79.207031 7.542969 79.238281 7.695312 79.351562 7.769531 L 81.25 8.984375 L 79.359375 10.105469 C 79.242188 10.175781 79.203125 10.324219 79.273438 10.441406 C 79.320312 10.519531 79.402344 10.5625 79.484375 10.5625 C 79.527344 10.5625 79.570312 10.550781 79.609375 10.527344 L 81.710938 9.28125 L 83.976562 10.734375 C 83.792969 11.15625 83.636719 11.589844 83.507812 12.03125 L 79.484375 12.03125 C 79.347656 12.03125 79.238281 12.140625 79.238281 12.273438 L 79.238281 18.101562 C 79.238281 18.234375 79.347656 18.34375 79.484375 18.34375 L 83.507812 18.34375 C 83.519531 18.390625 83.535156 18.4375 83.550781 18.484375 L 80.550781 21.433594 L 79.484375 21.433594 C 79.347656 21.433594 79.238281 21.542969 79.238281 21.679688 C 79.238281 21.8125 79.347656 21.921875 79.484375 21.921875 L 80.648438 21.921875 C 80.714844 21.921875 80.777344 21.898438 80.820312 21.851562 L 83.722656 19.003906 C 83.789062 19.1875 83.859375 19.371094 83.933594 19.550781 L 80.8125 22.617188 L 79.484375 22.617188 C 79.347656 22.617188 79.238281 22.726562 79.238281 22.863281 C 79.238281 22.996094 79.347656 23.105469 79.484375 23.105469 L 80.019531 23.105469 L 80.019531 30.085938 C 80.019531 30.21875 80.128906 30.328125 80.261719 30.328125 C 80.398438 30.328125 80.507812 30.21875 80.507812 30.085938 L 80.507812 28.382812 L 82.3125 28.382812 C 82.394531 28.382812 82.46875 28.34375 82.515625 28.277344 L 83.996094 26.136719 L 84.601562 26.730469 L 82.5625 29.953125 C 82.492188 30.066406 82.527344 30.21875 82.640625 30.289062 C 82.679688 30.316406 82.726562 30.328125 82.769531 30.328125 C 82.851562 30.328125 82.929688 30.289062 82.976562 30.214844 L 84.960938 27.082031 L 85.847656 27.957031 C 85.945312 28.050781 86.097656 28.050781 86.191406 27.957031 L 89.035156 25.160156 C 89.355469 25.335938 89.6875 25.492188 90.023438 25.636719 L 87.648438 29.96875 C 87.582031 30.085938 87.628906 30.234375 87.746094 30.300781 C 87.78125 30.320312 87.824219 30.328125 87.863281 30.328125 C 87.949219 30.328125 88.03125 30.28125 88.078125 30.203125 L 90.480469 25.820312 C 90.792969 25.941406 91.113281 26.046875 91.4375 26.136719 L 91.4375 30.085938 C 91.4375 30.21875 91.546875 30.328125 91.679688 30.328125 L 97.609375 30.328125 C 97.746094 30.328125 97.855469 30.21875 97.855469 30.085938 L 97.855469 26.136719 C 98.152344 26.054688 98.449219 25.957031 98.742188 25.847656 L 99.378906 28.917969 C 99.402344 29.03125 99.503906 29.113281 99.617188 29.113281 L 103.074219 29.113281 L 103.074219 30.085938 C 103.074219 30.21875 103.183594 30.328125 103.320312 30.328125 C 103.453125 30.328125 103.5625 30.21875 103.5625 30.085938 L 103.5625 28.867188 C 103.5625 28.734375 103.453125 28.625 103.320312 28.625 L 99.816406 28.625 L 99.203125 25.664062 C 99.5625 25.515625 99.914062 25.347656 100.253906 25.160156 L 103.097656 27.957031 C 103.195312 28.050781 103.347656 28.050781 103.441406 27.957031 L 104.511719 26.902344 L 107.960938 30.261719 C 108.007812 30.304688 108.070312 30.328125 108.132812 30.328125 C 108.195312 30.328125 108.257812 30.304688 108.308594 30.253906 C 108.402344 30.160156 108.398438 30.003906 108.300781 29.910156 L 105.707031 27.382812 L 107.273438 26.988281 L 109.640625 29.175781 C 109.6875 29.21875 109.746094 29.238281 109.804688 29.238281 C 109.871094 29.238281 109.9375 29.214844 109.988281 29.160156 C 110.078125 29.0625 110.070312 28.90625 109.972656 28.816406 L 107.507812 26.542969 C 107.445312 26.484375 107.363281 26.464844 107.28125 26.484375 L 105.296875 26.980469 L 104.863281 26.558594 L 107.632812 23.835938 C 107.679688 23.789062 107.707031 23.726562 107.707031 23.660156 C 107.707031 23.597656 107.679688 23.535156 107.632812 23.488281 L 104.792969 20.695312 C 104.949219 20.421875 105.089844 20.144531 105.21875 19.855469 L 107.664062 21.273438 L 108.347656 23.714844 C 108.363281 23.769531 108.398438 23.816406 108.445312 23.847656 L 109.667969 24.6875 C 109.710938 24.71875 109.757812 24.730469 109.804688 24.730469 C 109.882812 24.730469 109.960938 24.695312 110.007812 24.625 C 110.085938 24.515625 110.054688 24.363281 109.945312 24.285156 L 108.792969 23.496094 L 108.269531 21.625 L 109.683594 22.441406 C 109.722656 22.464844 109.765625 22.476562 109.804688 22.476562 C 109.890625 22.476562 109.972656 22.433594 110.019531 22.355469 C 110.085938 22.238281 110.046875 22.085938 109.929688 22.019531 L 107.992188 20.898438 L 107.082031 20.371094 L 107.894531 19.898438 L 109.71875 20.597656 C 109.746094 20.609375 109.777344 20.617188 109.804688 20.617188 C 109.90625 20.617188 109.996094 20.554688 110.035156 20.457031 C 110.082031 20.332031 110.019531 20.191406 109.894531 20.144531 L 107.960938 19.402344 C 107.890625 19.375 107.8125 19.382812 107.75 19.417969 L 106.59375 20.089844 L 105.414062 19.402344 C 105.554688 19.058594 105.679688 18.703125 105.785156 18.34375 L 109.808594 18.34375 C 109.941406 18.34375 110.050781 18.234375 110.050781 18.101562 L 110.050781 12.273438 C 110.050781 12.140625 109.941406 12.03125 109.808594 12.03125 L 105.785156 12.03125 C 105.648438 11.570312 105.484375 11.117188 105.292969 10.679688 L 106.609375 9.738281 L 108.03125 10.390625 C 108.066406 10.40625 108.101562 10.414062 108.132812 10.414062 C 108.183594 10.414062 108.234375 10.398438 108.277344 10.367188 L 109.949219 9.175781 C 110.058594 9.097656 110.082031 8.945312 110.003906 8.835938 C 109.925781 8.722656 109.773438 8.699219 109.664062 8.777344 L 108.109375 9.886719 L 107.066406 9.410156 L 109.949219 7.34375 C 110.058594 7.265625 110.082031 7.113281 110.003906 7.003906 C 109.925781 6.894531 109.773438 6.867188 109.664062 6.945312 L 105.082031 10.226562 C 104.992188 10.042969 104.894531 9.859375 104.792969 9.679688 L 107.632812 6.886719 C 107.679688 6.839844 107.707031 6.777344 107.707031 6.714844 C 107.707031 6.648438 107.679688 6.585938 107.632812 6.539062 L 104.984375 3.9375 L 106.355469 2.722656 Z M 102.792969 15.1875 C 102.792969 19.597656 99.136719 23.1875 94.644531 23.1875 C 90.152344 23.1875 86.5 19.597656 86.5 15.1875 C 86.5 10.777344 90.152344 7.1875 94.644531 7.1875 C 99.136719 7.1875 102.792969 10.777344 102.792969 15.1875 Z M 82.183594 27.894531 L 80.507812 27.894531 L 80.507812 23.105469 L 80.914062 23.105469 C 80.976562 23.105469 81.039062 23.082031 81.085938 23.035156 L 84.148438 20.023438 C 84.257812 20.253906 84.375 20.476562 84.496094 20.695312 L 81.65625 23.488281 C 81.609375 23.535156 81.582031 23.597656 81.582031 23.660156 C 81.582031 23.726562 81.609375 23.789062 81.65625 23.835938 L 83.644531 25.789062 Z M 82.183594 27.894531 " fill-opacity="1" fill-rule="nonzero"/></g><path fill="#bc5952" d="M 95.449219 11.089844 C 94.914062 11.089844 94.476562 11.519531 94.476562 12.046875 C 94.476562 12.574219 94.914062 13.003906 95.449219 13.003906 L 96.769531 13.003906 L 96.769531 18.328125 C 96.769531 18.855469 97.203125 19.285156 97.738281 19.285156 C 98.273438 19.285156 98.707031 18.855469 98.707031 18.328125 L 98.707031 13.003906 L 100.027344 13.003906 C 100.5625 13.003906 100.996094 12.574219 100.996094 12.046875 C 100.996094 11.519531 100.5625 11.089844 100.027344 11.089844 Z M 95.449219 11.089844 " fill-opacity="1" fill-rule="nonzero"/><path fill="#bc5952" d="M 92.773438 13.003906 C 93.304688 13.003906 93.742188 12.574219 93.742188 12.046875 C 93.742188 11.519531 93.304688 11.089844 92.773438 11.089844 L 89.265625 11.089844 C 88.730469 11.089844 88.292969 11.519531 88.292969 12.046875 C 88.292969 12.574219 88.730469 13.003906 89.265625 13.003906 L 90.046875 13.003906 L 90.046875 17.371094 L 89.265625 17.371094 C 88.730469 17.371094 88.292969 17.800781 88.292969 18.328125 C 88.292969 18.855469 88.730469 19.285156 89.265625 19.285156 L 92.773438 19.285156 C 93.304688 19.285156 93.742188 18.855469 93.742188 18.328125 C 93.742188 17.800781 93.304688 17.371094 92.773438 17.371094 L 91.988281 17.371094 L 91.988281 13.003906 Z M 92.773438 13.003906 " fill-opacity="1" fill-rule="nonzero"/><g clip-path="url(#458b454bce)"><g clip-path="url(#bc6f32c192)"><g clip-path="url(#2efb1d33e8)"><g clip-path="url(#735857fdd8)"><path fill="#ff9740" d="M 63.972656 9.921875 C 62.554688 8.9375 60.785156 8.492188 58.644531 8.648438 C 56.070312 8.832031 53.992188 9.820312 52.390625 11.5625 C 52.117188 11.855469 51.871094 12.164062 51.648438 12.484375 C 50.042969 10.429688 47.746094 9.429688 44.691406 9.648438 C 43.019531 9.769531 41.558594 10.226562 40.300781 11.011719 L 40.3125 10.964844 C 40.3125 10.957031 40.316406 10.949219 40.316406 10.941406 C 40.554688 9.992188 40.609375 9.339844 40.582031 9.007812 C 40.484375 7.625 39.59375 6.242188 37.261719 5.574219 C 36.519531 5.359375 35.878906 5.292969 35.34375 5.332031 C 34.484375 5.390625 33.796875 5.707031 33.246094 6.207031 C 32.730469 6.679688 32.421875 7.175781 32.25 7.644531 C 32.167969 7.875 32.058594 8.226562 31.933594 8.699219 C 31.929688 8.714844 31.925781 8.726562 31.921875 8.742188 L 31.4375 10.726562 L 30.550781 8.558594 C 30.539062 8.53125 30.527344 8.503906 30.515625 8.480469 C 30.265625 7.925781 29.789062 7.324219 28.976562 6.789062 C 28.175781 6.269531 27.332031 6.054688 26.453125 6.117188 C 25.679688 6.171875 25.070312 6.359375 24.597656 6.609375 C 23.472656 7.203125 22.707031 8.167969 22.363281 9.539062 L 21.902344 11.382812 L 21.152344 9.535156 C 20.832031 8.695312 20.460938 8.09375 20.109375 7.699219 C 19.449219 6.957031 18.570312 6.558594 17.433594 6.640625 C 16.839844 6.683594 16.183594 6.84375 15.472656 7.152344 C 13.230469 8.117188 12.535156 9.617188 12.636719 11.011719 C 12.667969 11.425781 12.8125 12.058594 13.152344 12.890625 C 13.15625 12.898438 13.160156 12.90625 13.164062 12.917969 L 18.847656 26.289062 C 18.878906 26.355469 18.910156 26.425781 18.949219 26.488281 L 19.144531 26.847656 C 19.417969 27.347656 19.882812 27.871094 20.613281 28.339844 C 21.320312 28.789062 22.1875 29.023438 23.234375 28.949219 C 24.347656 28.871094 25.277344 28.398438 26.019531 27.53125 C 26.261719 27.25 26.46875 26.945312 26.644531 26.613281 C 26.859375 26.207031 26.972656 25.890625 27.027344 25.675781 C 27.039062 25.625 27.222656 24.914062 27.574219 23.542969 L 28.53125 25.851562 C 28.554688 25.910156 28.582031 25.964844 28.613281 26.019531 C 28.882812 26.539062 29.347656 27.089844 30.09375 27.589844 C 30.855469 28.101562 31.730469 28.339844 32.71875 28.269531 C 33.710938 28.199219 34.539062 27.835938 35.222656 27.222656 C 35.902344 26.609375 36.242188 26.066406 36.386719 25.714844 C 36.503906 25.425781 36.582031 25.175781 36.628906 24.964844 L 37.175781 22.886719 C 37.550781 23.640625 38.035156 24.351562 38.628906 25.023438 C 39.421875 25.929688 40.476562 26.652344 41.816406 27.140625 C 43.046875 27.59375 44.425781 27.777344 45.957031 27.667969 C 48.59375 27.476562 50.382812 26.890625 51.390625 26.144531 C 52.113281 25.609375 52.582031 24.980469 52.820312 24.277344 C 53.582031 25.066406 54.5625 25.695312 55.773438 26.140625 C 57.003906 26.589844 58.382812 26.777344 59.914062 26.664062 C 62.550781 26.476562 64.339844 25.886719 65.347656 25.140625 C 65.5625 24.984375 65.753906 24.816406 65.925781 24.640625 C 66.589844 25.296875 67.707031 25.78125 69.414062 25.660156 C 71.523438 25.507812 72.597656 24.582031 73.03125 23.679688 C 73.25 23.851562 73.4375 23.996094 73.59375 24.109375 C 73.640625 24.140625 73.6875 24.175781 73.738281 24.203125 L 73.96875 24.34375 C 75.175781 25.117188 76.160156 25.324219 76.804688 25.277344 C 77.667969 25.214844 78.796875 24.691406 79.824219 23.199219 C 79.835938 23.175781 79.851562 23.15625 79.863281 23.136719 C 80.675781 21.867188 80.898438 20.824219 80.847656 20.117188 C 80.808594 19.601562 80.640625 19.054688 80.269531 18.511719 C 80.070312 18.222656 79.648438 17.769531 78.929688 17.242188 C 78.925781 17.242188 78.921875 17.238281 78.917969 17.234375 L 77.601562 16.28125 L 78.003906 15.882812 C 79.210938 14.695312 79.519531 13.554688 79.460938 12.742188 C 79.410156 12.050781 79.03125 11.035156 77.980469 9.886719 C 76.777344 8.574219 75.601562 8.226562 74.753906 8.285156 C 74.128906 8.332031 73.375 8.585938 72.570312 9.183594 L 72.355469 6.203125 C 72.332031 5.839844 72.296875 5.558594 72.265625 5.363281 C 72.125 4.160156 71.589844 3.347656 70.867188 2.824219 C 70.21875 2.347656 69.203125 2.003906 67.75 2.109375 C 65.554688 2.265625 64.464844 3.269531 64.054688 4.242188 C 64.042969 4.269531 64.03125 4.296875 64.019531 4.324219 C 63.828125 4.832031 63.742188 5.277344 63.722656 5.65625 C 63.707031 5.910156 63.710938 6.292969 63.746094 6.796875 Z M 32.363281 24.011719 L 32.382812 23.976562 L 32.378906 23.980469 C 32.378906 23.988281 32.371094 24 32.363281 24.011719 L 32.359375 24.023438 C 32.359375 24.019531 32.363281 24.015625 32.363281 24.011719 Z M 32.363281 23.878906 C 32.355469 23.886719 32.351562 23.890625 32.34375 23.898438 L 32.335938 23.90625 L 32.328125 23.917969 C 32.328125 23.917969 32.332031 23.910156 32.335938 23.90625 L 32.363281 23.882812 Z M 33.644531 19.164062 L 32.417969 23.828125 L 32.417969 23.832031 L 30.617188 19.507812 C 31.03125 19.835938 31.5625 20.011719 32.117188 19.96875 C 32.726562 19.925781 33.273438 19.625 33.644531 19.164062 Z M 22.804688 24.441406 L 20.925781 20.023438 C 21.355469 20.429688 21.945312 20.652344 22.558594 20.605469 C 23.125 20.566406 23.632812 20.308594 24 19.90625 L 22.835938 24.457031 L 22.824219 24.480469 Z M 68.699219 14.9375 C 68.910156 15.53125 69.367188 16.015625 69.96875 16.25 C 70.707031 16.535156 71.539062 16.394531 72.140625 15.886719 C 72.058594 16.152344 72.027344 16.433594 72.050781 16.714844 C 72.066406 16.929688 72.113281 17.136719 72.191406 17.335938 C 71.523438 16.949219 70.699219 16.941406 70.027344 17.332031 C 69.476562 17.652344 69.101562 18.191406 68.976562 18.800781 Z M 54.738281 16.003906 C 54.539062 16.609375 54.472656 17.289062 54.523438 18.035156 C 54.5625 18.574219 54.679688 19.082031 54.875 19.5625 L 54.855469 19.375 C 54.828125 18.984375 54.902344 18.605469 55.058594 18.273438 C 54.828125 17.949219 54.675781 17.558594 54.648438 17.132812 C 54.621094 16.757812 54.648438 16.382812 54.738281 16.003906 Z M 40.78125 17.007812 C 40.582031 17.613281 40.515625 18.292969 40.570312 19.035156 C 40.609375 19.574219 40.726562 20.085938 40.917969 20.5625 L 40.898438 20.378906 C 40.871094 19.984375 40.945312 19.609375 41.101562 19.277344 C 40.871094 18.953125 40.722656 18.5625 40.691406 18.132812 C 40.664062 17.761719 40.691406 17.382812 40.78125 17.007812 Z M 26.632812 10.539062 L 26.644531 10.539062 C 26.644531 10.539062 28.457031 14.972656 28.457031 14.972656 C 28.035156 14.621094 27.488281 14.433594 26.917969 14.476562 C 26.335938 14.515625 25.8125 14.789062 25.445312 15.210938 L 26.585938 10.632812 C 26.59375 10.601562 26.589844 10.570312 26.601562 10.546875 Z M 26.632812 10.539062 " fill-opacity="1" fill-rule="evenodd"/></g></g></g></g><g clip-path="url(#ee5f674d0c)"><g clip-path="url(#c9058bce3c)"><g clip-path="url(#6ec5261210)"><g clip-path="url(#393f87e8c9)"><path fill="#ffffff" d="M 63.867188 8.453125 C 62.449219 7.464844 60.679688 7.023438 58.539062 7.175781 C 55.964844 7.359375 53.886719 8.351562 52.285156 10.089844 C 52.011719 10.382812 51.765625 10.691406 51.542969 11.011719 C 49.9375 8.960938 47.640625 7.960938 44.585938 8.179688 C 42.914062 8.296875 41.453125 8.757812 40.195312 9.539062 L 40.207031 9.496094 C 40.207031 9.488281 40.210938 9.480469 40.210938 9.472656 C 40.449219 8.519531 40.503906 7.871094 40.476562 7.535156 C 40.378906 6.15625 39.488281 4.769531 37.15625 4.105469 C 36.414062 3.886719 35.773438 3.820312 35.238281 3.859375 C 34.378906 3.921875 33.691406 4.238281 33.140625 4.738281 C 32.625 5.210938 32.316406 5.707031 32.144531 6.175781 C 32.0625 6.402344 31.953125 6.753906 31.828125 7.230469 C 31.824219 7.242188 31.820312 7.257812 31.816406 7.269531 L 31.332031 9.257812 L 30.445312 7.085938 C 30.433594 7.0625 30.421875 7.035156 30.410156 7.007812 C 30.160156 6.453125 29.683594 5.851562 28.871094 5.320312 C 28.070312 4.796875 27.226562 4.585938 26.347656 4.648438 C 25.574219 4.703125 24.964844 4.890625 24.492188 5.140625 C 23.367188 5.734375 22.601562 6.695312 22.257812 8.070312 L 21.796875 9.910156 L 21.046875 8.0625 C 20.726562 7.222656 20.355469 6.625 20.003906 6.226562 C 19.34375 5.484375 18.464844 5.089844 17.328125 5.171875 C 16.734375 5.214844 16.078125 5.375 15.367188 5.679688 C 13.121094 6.644531 12.429688 8.144531 12.53125 9.539062 C 12.5625 9.953125 12.707031 10.585938 13.046875 11.421875 C 13.050781 11.429688 13.054688 11.4375 13.058594 11.445312 L 18.742188 24.816406 C 18.773438 24.886719 18.804688 24.953125 18.839844 25.019531 L 19.039062 25.378906 C 19.3125 25.875 19.777344 26.402344 20.507812 26.867188 C 21.214844 27.316406 22.082031 27.554688 23.128906 27.480469 C 24.242188 27.398438 25.171875 26.929688 25.914062 26.058594 C 26.15625 25.78125 26.363281 25.476562 26.539062 25.140625 C 26.753906 24.738281 26.867188 24.417969 26.921875 24.203125 C 26.933594 24.152344 27.117188 23.445312 27.46875 22.074219 L 28.425781 24.378906 C 28.449219 24.4375 28.476562 24.496094 28.507812 24.550781 C 28.777344 25.070312 29.242188 25.621094 29.988281 26.121094 C 30.75 26.628906 31.625 26.871094 32.613281 26.800781 C 33.605469 26.726562 34.433594 26.367188 35.117188 25.75 C 35.796875 25.136719 36.136719 24.597656 36.28125 24.246094 C 36.398438 23.957031 36.476562 23.703125 36.523438 23.496094 L 37.070312 21.417969 C 37.445312 22.171875 37.929688 22.882812 38.523438 23.550781 C 39.316406 24.460938 40.371094 25.179688 41.710938 25.671875 C 42.941406 26.121094 44.320312 26.308594 45.851562 26.195312 C 48.488281 26.007812 50.277344 25.417969 51.285156 24.671875 C 52.007812 24.136719 52.476562 23.511719 52.714844 22.804688 C 53.476562 23.59375 54.457031 24.226562 55.667969 24.667969 C 56.898438 25.121094 58.277344 25.304688 59.808594 25.195312 C 62.445312 25.003906 64.234375 24.417969 65.238281 23.671875 C 65.457031 23.511719 65.648438 23.34375 65.820312 23.167969 C 66.484375 23.824219 67.601562 24.3125 69.308594 24.191406 C 71.414062 24.039062 72.492188 23.109375 72.925781 22.207031 C 73.144531 22.382812 73.332031 22.527344 73.488281 22.636719 C 73.535156 22.671875 73.582031 22.703125 73.632812 22.734375 L 73.863281 22.875 C 75.070312 23.648438 76.054688 23.855469 76.699219 23.808594 C 77.5625 23.746094 78.691406 23.21875 79.71875 21.726562 C 79.730469 21.707031 79.746094 21.6875 79.757812 21.667969 C 80.570312 20.398438 80.792969 19.351562 80.742188 18.648438 C 80.703125 18.128906 80.535156 17.585938 80.164062 17.039062 C 79.964844 16.75 79.542969 16.300781 78.824219 15.773438 C 78.820312 15.769531 78.816406 15.765625 78.8125 15.765625 L 77.496094 14.8125 L 77.898438 14.410156 C 79.105469 13.226562 79.414062 12.085938 79.355469 11.273438 C 79.304688 10.582031 78.925781 9.566406 77.875 8.417969 C 76.671875 7.101562 75.496094 6.753906 74.648438 6.816406 C 74.023438 6.859375 73.269531 7.113281 72.464844 7.710938 L 72.25 4.734375 C 72.226562 4.371094 72.191406 4.089844 72.160156 3.890625 C 72.015625 2.691406 71.484375 1.878906 70.761719 1.351562 C 70.113281 0.878906 69.097656 0.535156 67.644531 0.640625 C 65.449219 0.796875 64.359375 1.796875 63.949219 2.769531 C 63.9375 2.796875 63.925781 2.828125 63.914062 2.855469 C 63.722656 3.359375 63.636719 3.804688 63.617188 4.183594 C 63.601562 4.441406 63.605469 4.820312 63.640625 5.324219 Z M 32.257812 22.542969 L 32.277344 22.503906 L 32.273438 22.511719 C 32.273438 22.519531 32.265625 22.527344 32.257812 22.542969 L 32.253906 22.550781 C 32.253906 22.550781 32.257812 22.542969 32.257812 22.542969 Z M 32.257812 22.410156 C 32.25 22.414062 32.246094 22.421875 32.238281 22.425781 L 32.230469 22.4375 L 32.222656 22.445312 C 32.222656 22.445312 32.226562 22.441406 32.230469 22.4375 Z M 33.539062 17.691406 L 32.3125 22.359375 L 30.511719 18.035156 C 30.925781 18.367188 31.457031 18.539062 32.011719 18.5 C 32.621094 18.453125 33.167969 18.152344 33.539062 17.691406 Z M 22.699219 22.972656 L 20.820312 18.550781 C 21.25 18.957031 21.839844 19.179688 22.453125 19.136719 C 23.019531 19.09375 23.527344 18.835938 23.894531 18.433594 L 22.730469 22.984375 L 22.71875 23.007812 Z M 68.59375 13.464844 C 68.804688 14.058594 69.261719 14.542969 69.863281 14.777344 C 70.601562 15.066406 71.433594 14.925781 72.035156 14.417969 C 71.953125 14.679688 71.921875 14.960938 71.945312 15.242188 C 71.960938 15.457031 72.007812 15.667969 72.082031 15.863281 C 71.417969 15.476562 70.59375 15.472656 69.921875 15.863281 C 69.371094 16.179688 68.996094 16.71875 68.871094 17.332031 Z M 54.632812 14.535156 C 54.433594 15.140625 54.367188 15.820312 54.417969 16.5625 C 54.457031 17.101562 54.574219 17.613281 54.769531 18.089844 L 54.75 17.90625 C 54.722656 17.511719 54.796875 17.136719 54.953125 16.804688 C 54.722656 16.480469 54.570312 16.089844 54.542969 15.660156 C 54.515625 15.289062 54.539062 14.910156 54.632812 14.535156 Z M 40.675781 15.535156 C 40.476562 16.140625 40.410156 16.820312 40.464844 17.566406 C 40.503906 18.105469 40.617188 18.613281 40.8125 19.09375 L 40.792969 18.90625 C 40.765625 18.515625 40.839844 18.136719 40.996094 17.804688 C 40.765625 17.480469 40.617188 17.089844 40.585938 16.664062 C 40.558594 16.289062 40.585938 15.914062 40.675781 15.535156 Z M 26.527344 9.070312 L 26.539062 9.066406 C 26.539062 9.066406 28.351562 13.503906 28.351562 13.503906 C 27.929688 13.152344 27.382812 12.964844 26.8125 13.003906 C 26.230469 13.046875 25.707031 13.320312 25.339844 13.742188 L 26.480469 9.160156 C 26.484375 9.132812 26.484375 9.097656 26.496094 9.074219 Z M 26.527344 9.070312 " fill-opacity="1" fill-rule="evenodd"/></g></g></g></g><g clip-path="url(#9222cf6327)"><g clip-path="url(#35cc72e835)"><g clip-path="url(#6a0bb547e9)"><g clip-path="url(#43c1c2d310)"><path fill="#572716" d="M 50.945312 15.636719 C 51.019531 16.640625 50.824219 17.402344 50.363281 17.925781 C 49.902344 18.445312 49.371094 18.730469 48.773438 18.773438 L 43 19.1875 C 43.03125 19.648438 43.328125 20.015625 43.886719 20.289062 C 44.445312 20.5625 44.992188 20.683594 45.527344 20.644531 C 46.46875 20.574219 47.199219 20.425781 47.722656 20.1875 L 47.984375 20.070312 C 48.359375 19.859375 48.679688 19.746094 48.9375 19.726562 C 49.457031 19.691406 49.929688 20.03125 50.359375 20.742188 C 50.601562 21.171875 50.734375 21.542969 50.753906 21.855469 C 50.859375 23.324219 49.183594 24.179688 45.726562 24.425781 C 44.523438 24.511719 43.441406 24.378906 42.476562 24.027344 C 41.511719 23.675781 40.746094 23.171875 40.175781 22.515625 C 39.058594 21.257812 38.441406 19.804688 38.320312 18.15625 C 38.171875 16.082031 38.714844 14.375 39.949219 13.035156 C 41.183594 11.699219 42.792969 10.957031 44.773438 10.816406 C 47.03125 10.652344 48.742188 11.34375 49.914062 12.878906 C 50.527344 13.695312 50.871094 14.617188 50.945312 15.636719 Z M 64.902344 14.632812 C 64.972656 15.640625 64.78125 16.402344 64.320312 16.921875 C 63.859375 17.445312 63.328125 17.726562 62.726562 17.769531 L 56.957031 18.183594 C 56.988281 18.644531 57.285156 19.011719 57.84375 19.289062 C 58.402344 19.5625 58.949219 19.679688 59.484375 19.640625 C 60.425781 19.574219 61.15625 19.421875 61.679688 19.1875 L 61.941406 19.066406 C 62.316406 18.859375 62.632812 18.746094 62.894531 18.726562 C 63.414062 18.6875 63.886719 19.027344 64.3125 19.742188 C 64.558594 20.171875 64.691406 20.542969 64.710938 20.855469 C 64.816406 22.320312 63.140625 23.175781 59.683594 23.425781 C 58.480469 23.511719 57.398438 23.378906 56.433594 23.027344 C 55.46875 22.671875 54.703125 22.167969 54.132812 21.515625 C 53.015625 20.253906 52.394531 18.800781 52.277344 17.15625 C 52.128906 15.078125 52.671875 13.375 53.90625 12.035156 C 55.140625 10.695312 56.746094 9.957031 58.726562 9.8125 C 60.984375 9.652344 62.699219 10.339844 63.871094 11.878906 C 64.484375 12.695312 64.828125 13.613281 64.902344 14.632812 Z M 74.144531 15.511719 L 77.582031 17.996094 C 78.011719 18.3125 78.285156 18.554688 78.40625 18.730469 C 78.523438 18.902344 78.589844 19.074219 78.601562 19.238281 C 78.628906 19.632812 78.414062 20.1875 77.960938 20.894531 C 77.457031 21.628906 76.996094 22.007812 76.574219 22.039062 C 76.214844 22.0625 75.703125 21.859375 75.035156 21.429688 L 74.78125 21.273438 C 74.386719 20.988281 73.769531 20.480469 72.933594 19.753906 C 72.097656 19.03125 71.464844 18.515625 71.035156 18.214844 L 71.171875 20.117188 C 71.199219 20.496094 71.207031 20.78125 71.195312 20.972656 C 71.1875 21.164062 71.125 21.386719 71.011719 21.644531 C 70.832031 22.085938 70.222656 22.347656 69.183594 22.421875 C 68.144531 22.496094 67.519531 22.316406 67.257812 21.886719 C 67.128906 21.648438 67.042969 21.4375 67.003906 21.25 C 66.96875 21.0625 66.933594 20.777344 66.90625 20.398438 L 65.84375 5.605469 C 65.816406 5.226562 65.808594 4.941406 65.820312 4.75 C 65.832031 4.558594 65.882812 4.335938 65.980469 4.078125 C 66.175781 3.617188 66.792969 3.351562 67.832031 3.277344 C 68.613281 3.21875 69.175781 3.320312 69.519531 3.578125 C 69.8125 3.789062 69.984375 4.140625 70.035156 4.632812 C 70.0625 4.777344 70.085938 5.007812 70.109375 5.320312 L 70.671875 13.152344 C 70.945312 12.882812 71.359375 12.433594 71.910156 11.796875 C 72.460938 11.160156 72.871094 10.710938 73.144531 10.441406 L 73.425781 10.222656 C 73.960938 9.738281 74.433594 9.480469 74.839844 9.453125 C 75.246094 9.421875 75.734375 9.722656 76.3125 10.351562 C 76.886719 10.980469 77.1875 11.484375 77.214844 11.863281 C 77.242188 12.242188 76.972656 12.707031 76.410156 13.261719 L 74.148438 15.507812 Z M 36.589844 6.660156 C 37.707031 6.976562 38.289062 7.464844 38.335938 8.125 C 38.351562 8.339844 38.285156 8.75 38.132812 9.355469 L 34.4375 23.402344 C 34.414062 23.519531 34.367188 23.664062 34.296875 23.832031 C 34.230469 24.003906 34.03125 24.238281 33.699219 24.535156 C 33.371094 24.832031 32.964844 24.996094 32.488281 25.03125 C 32.007812 25.066406 31.585938 24.960938 31.214844 24.710938 C 30.847656 24.464844 30.597656 24.214844 30.464844 23.960938 L 27.003906 15.644531 C 25.589844 21.171875 24.867188 23.988281 24.84375 24.089844 C 24.816406 24.191406 24.753906 24.335938 24.652344 24.527344 C 24.554688 24.714844 24.433594 24.890625 24.300781 25.046875 C 23.953125 25.453125 23.519531 25.675781 23 25.710938 C 22.480469 25.75 22.046875 25.65625 21.695312 25.433594 C 21.34375 25.210938 21.101562 24.976562 20.972656 24.738281 L 20.773438 24.382812 L 15.089844 11.011719 C 14.871094 10.480469 14.753906 10.082031 14.734375 9.820312 C 14.6875 9.160156 15.195312 8.601562 16.253906 8.148438 C 16.714844 7.949219 17.132812 7.835938 17.515625 7.808594 C 17.898438 7.78125 18.199219 7.890625 18.421875 8.140625 C 18.644531 8.386719 18.855469 8.777344 19.054688 9.3125 L 22.328125 17.367188 L 24.398438 9.050781 C 24.578125 8.34375 24.957031 7.835938 25.539062 7.53125 C 25.789062 7.394531 26.121094 7.3125 26.535156 7.285156 C 26.953125 7.253906 27.347656 7.363281 27.722656 7.609375 C 28.101562 7.855469 28.347656 8.105469 28.464844 8.363281 L 31.878906 16.730469 L 33.960938 8.242188 C 34.066406 7.851562 34.152344 7.566406 34.21875 7.378906 C 34.289062 7.191406 34.425781 7.003906 34.632812 6.816406 C 34.835938 6.625 35.105469 6.519531 35.429688 6.496094 C 35.753906 6.472656 36.140625 6.527344 36.589844 6.664062 Z M 45.859375 16.722656 C 46.476562 16.675781 46.765625 16.390625 46.726562 15.863281 C 46.699219 15.484375 46.535156 15.191406 46.234375 14.980469 C 45.933594 14.769531 45.519531 14.683594 44.992188 14.722656 C 44.464844 14.761719 43.957031 15.015625 43.46875 15.492188 C 42.980469 15.964844 42.753906 16.449219 42.789062 16.941406 Z M 59.816406 15.71875 C 60.429688 15.675781 60.722656 15.390625 60.683594 14.863281 C 60.65625 14.484375 60.492188 14.191406 60.191406 13.980469 C 59.890625 13.769531 59.476562 13.683594 58.949219 13.722656 C 58.421875 13.757812 57.914062 14.015625 57.425781 14.488281 C 56.9375 14.960938 56.710938 15.445312 56.746094 15.941406 Z M 59.816406 15.71875 " fill-opacity="1" fill-rule="nonzero"/></g></g></g></g><g clip-path="url(#624fcfea7b)"><g clip-path="url(#5b46f82b53)"><g clip-path="url(#c47680fdc1)"><g clip-path="url(#30a69cb880)"><path fill="#bc5952" d="M 50.863281 14.46875 C 50.933594 15.472656 50.738281 16.238281 50.28125 16.757812 C 49.820312 17.28125 49.289062 17.5625 48.6875 17.605469 L 42.914062 18.019531 C 42.949219 18.480469 43.242188 18.847656 43.800781 19.121094 C 44.359375 19.398438 44.90625 19.515625 45.445312 19.476562 C 46.386719 19.40625 47.117188 19.253906 47.640625 19.019531 L 47.898438 18.902344 C 48.277344 18.691406 48.59375 18.578125 48.855469 18.558594 C 49.375 18.523438 49.847656 18.863281 50.273438 19.574219 C 50.515625 20.003906 50.648438 20.375 50.671875 20.6875 C 50.777344 22.15625 49.101562 23.011719 45.640625 23.257812 C 44.441406 23.347656 43.355469 23.210938 42.394531 22.859375 C 41.429688 22.507812 40.664062 22.003906 40.09375 21.347656 C 38.972656 20.089844 38.355469 18.636719 38.238281 16.988281 C 38.089844 14.914062 38.632812 13.207031 39.867188 11.867188 C 41.097656 10.53125 42.707031 9.789062 44.6875 9.648438 C 46.945312 9.484375 48.660156 10.175781 49.832031 11.710938 C 50.445312 12.527344 50.789062 13.449219 50.859375 14.46875 Z M 64.820312 13.46875 C 64.890625 14.472656 64.695312 15.234375 64.234375 15.757812 C 63.777344 16.277344 63.246094 16.558594 62.644531 16.601562 L 56.871094 17.015625 C 56.90625 17.476562 57.199219 17.847656 57.757812 18.121094 C 58.316406 18.394531 58.863281 18.511719 59.398438 18.472656 C 60.339844 18.40625 61.074219 18.253906 61.59375 18.019531 L 61.855469 17.898438 C 62.230469 17.691406 62.550781 17.578125 62.8125 17.558594 C 63.332031 17.519531 63.804688 17.859375 64.230469 18.574219 C 64.472656 19.003906 64.605469 19.375 64.628906 19.6875 C 64.734375 21.152344 63.054688 22.007812 59.597656 22.257812 C 58.394531 22.34375 57.3125 22.210938 56.347656 21.859375 C 55.386719 21.503906 54.621094 21 54.050781 20.347656 C 52.929688 19.085938 52.3125 17.632812 52.195312 15.988281 C 52.046875 13.910156 52.585938 12.207031 53.820312 10.867188 C 55.054688 9.527344 56.664062 8.789062 58.644531 8.644531 C 60.902344 8.484375 62.617188 9.171875 63.785156 10.710938 C 64.402344 11.527344 64.742188 12.445312 64.816406 13.464844 Z M 74.0625 14.34375 L 77.496094 16.828125 C 77.929688 17.144531 78.203125 17.386719 78.320312 17.5625 C 78.4375 17.734375 78.503906 17.90625 78.515625 18.070312 C 78.542969 18.464844 78.332031 19.019531 77.875 19.730469 C 77.375 20.460938 76.910156 20.839844 76.488281 20.871094 C 76.132812 20.898438 75.621094 20.691406 74.953125 20.261719 L 74.695312 20.105469 C 74.300781 19.820312 73.683594 19.3125 72.847656 18.585938 C 72.011719 17.863281 71.382812 17.347656 70.953125 17.046875 L 71.089844 18.949219 C 71.113281 19.328125 71.125 19.613281 71.113281 19.804688 C 71.101562 19.996094 71.039062 20.21875 70.929688 20.476562 C 70.746094 20.921875 70.136719 21.179688 69.097656 21.253906 C 68.058594 21.328125 67.433594 21.148438 67.175781 20.722656 C 67.042969 20.484375 66.960938 20.269531 66.921875 20.082031 C 66.882812 19.894531 66.851562 19.613281 66.824219 19.230469 L 65.761719 4.4375 C 65.734375 4.058594 65.726562 3.773438 65.738281 3.582031 C 65.746094 3.390625 65.800781 3.167969 65.898438 2.910156 C 66.09375 2.449219 66.710938 2.183594 67.75 2.109375 C 68.527344 2.050781 69.089844 2.152344 69.433594 2.410156 C 69.726562 2.621094 69.898438 2.972656 69.953125 3.464844 C 69.976562 3.613281 70.003906 3.839844 70.027344 4.15625 L 70.589844 11.984375 C 70.863281 11.714844 71.273438 11.265625 71.824219 10.628906 C 72.375 9.996094 72.789062 9.542969 73.0625 9.273438 L 73.339844 9.054688 C 73.878906 8.570312 74.347656 8.3125 74.753906 8.285156 C 75.160156 8.253906 75.652344 8.554688 76.226562 9.183594 C 76.800781 9.8125 77.105469 10.316406 77.128906 10.695312 C 77.15625 11.074219 76.890625 11.539062 76.324219 12.09375 L 74.0625 14.339844 Z M 36.507812 5.492188 C 37.625 5.8125 38.207031 6.296875 38.253906 6.957031 C 38.269531 7.171875 38.199219 7.582031 38.046875 8.1875 L 34.355469 22.234375 C 34.332031 22.351562 34.285156 22.496094 34.214844 22.664062 C 34.144531 22.835938 33.945312 23.070312 33.617188 23.367188 C 33.285156 23.664062 32.882812 23.828125 32.402344 23.863281 C 31.925781 23.898438 31.5 23.792969 31.132812 23.542969 C 30.761719 23.296875 30.511719 23.046875 30.378906 22.792969 L 26.917969 14.476562 C 25.503906 20.003906 24.785156 22.820312 24.757812 22.921875 C 24.734375 23.023438 24.671875 23.167969 24.570312 23.359375 C 24.46875 23.546875 24.351562 23.722656 24.214844 23.878906 C 23.871094 24.285156 23.4375 24.507812 22.917969 24.542969 C 22.398438 24.582031 21.960938 24.488281 21.613281 24.265625 C 21.261719 24.042969 21.019531 23.8125 20.886719 23.570312 L 20.691406 23.214844 L 15.003906 9.84375 C 14.789062 9.3125 14.667969 8.914062 14.652344 8.652344 C 14.605469 7.992188 15.109375 7.433594 16.171875 6.980469 C 16.628906 6.78125 17.050781 6.667969 17.433594 6.640625 C 17.8125 6.613281 18.113281 6.722656 18.335938 6.972656 C 18.558594 7.222656 18.769531 7.609375 18.972656 8.144531 L 22.242188 16.199219 L 24.316406 7.882812 C 24.492188 7.175781 24.871094 6.667969 25.453125 6.363281 C 25.707031 6.230469 26.039062 6.148438 26.453125 6.117188 C 26.867188 6.085938 27.261719 6.195312 27.640625 6.441406 C 28.015625 6.6875 28.261719 6.9375 28.378906 7.195312 L 31.796875 15.566406 L 33.878906 7.074219 C 33.980469 6.6875 34.066406 6.398438 34.136719 6.210938 C 34.203125 6.023438 34.339844 5.835938 34.546875 5.648438 C 34.753906 5.460938 35.019531 5.351562 35.34375 5.328125 C 35.667969 5.304688 36.058594 5.363281 36.507812 5.496094 Z M 45.773438 15.554688 C 46.390625 15.507812 46.679688 15.222656 46.644531 14.695312 C 46.617188 14.316406 46.453125 14.023438 46.152344 13.8125 C 45.851562 13.605469 45.4375 13.515625 44.90625 13.554688 C 44.378906 13.59375 43.871094 13.847656 43.382812 14.324219 C 42.894531 14.796875 42.667969 15.28125 42.703125 15.773438 Z M 59.730469 14.550781 C 60.347656 14.507812 60.636719 14.222656 60.601562 13.695312 C 60.574219 13.316406 60.40625 13.023438 60.109375 12.8125 C 59.808594 12.601562 59.394531 12.515625 58.863281 12.554688 C 58.335938 12.589844 57.828125 12.847656 57.339844 13.320312 C 56.851562 13.792969 56.625 14.277344 56.660156 14.773438 Z M 59.730469 14.550781 " fill-opacity="1" fill-rule="nonzero"/></g></g></g></g></svg>