<svg xmlns="http://www.w3.org/2000/svg" xmlns:xlink="http://www.w3.org/1999/xlink" width="170" zoomAndPan="magnify" viewBox="0 0 127.5 30.000001" height="40" preserveAspectRatio="xMidYMid meet" version="1.0"><metadata><ContainsAiGeneratedContent>Yes</ContainsAiGeneratedContent></metadata><defs><clipPath id="013492fec1"><path d="M 1.816406 0 L 125.203125 0 L 125.203125 29.03125 L 1.816406 29.03125 Z M 1.816406 0 " clip-rule="nonzero"/></clipPath><clipPath id="29c9782d24"><path d="M 12 0 L 91 0 L 91 29.03125 L 12 29.03125 Z M 12 0 " clip-rule="nonzero"/></clipPath><clipPath id="e19394e2ad"><path d="M 11.851562 3.640625 L 88.273438 -5.234375 L 91.542969 22.882812 L 15.121094 31.757812 Z M 11.851562 3.640625 " clip-rule="nonzero"/></clipPath><clipPath id="81eccce90d"><path d="M 11.851562 3.640625 L 88.273438 -5.234375 L 91.542969 22.882812 L 15.121094 31.757812 Z M 11.851562 3.640625 " clip-rule="nonzero"/></clipPath><clipPath id="4ba2835d7a"><path d="M 11.851562 3.640625 L 88.273438 -5.234375 L 91.542969 22.882812 L 15.121094 31.757812 Z M 11.851562 3.640625 " clip-rule="nonzero"/></clipPath><clipPath id="a2cbce425c"><path d="M 12 0 L 91 0 L 91 29 L 12 29 Z M 12 0 " clip-rule="nonzero"/></clipPath><clipPath id="539728bd38"><path d="M 11.851562 3.640625 L 88.273438 -5.234375 L 91.542969 22.882812 L 15.121094 31.757812 Z M 11.851562 3.640625 " clip-rule="nonzero"/></clipPath><clipPath id="d4fc91c857"><path d="M 11.851562 3.640625 L 88.273438 -5.234375 L 91.542969 22.882812 L 15.121094 31.757812 Z M 11.851562 3.640625 " clip-rule="nonzero"/></clipPath><clipPath id="84514e8d72"><path d="M 11.851562 3.640625 L 88.273438 -5.234375 L 91.542969 22.882812 L 15.121094 31.757812 Z M 11.851562 3.640625 " clip-rule="nonzero"/></clipPath><clipPath id="7134f2a26d"><path d="M 15 0 L 89 0 L 89 27 L 15 27 Z M 15 0 " clip-rule="nonzero"/></clipPath><clipPath id="bafbe93720"><path d="M 11.851562 3.640625 L 88.273438 -5.234375 L 91.542969 22.882812 L 15.121094 31.757812 Z M 11.851562 3.640625 " clip-rule="nonzero"/></clipPath><clipPath id="5344431603"><path d="M 11.851562 3.640625 L 88.273438 -5.234375 L 91.542969 22.882812 L 15.121094 31.757812 Z M 11.851562 3.640625 " clip-rule="nonzero"/></clipPath><clipPath id="651e45109d"><path d="M 11.851562 3.640625 L 88.273438 -5.234375 L 91.542969 22.882812 L 15.121094 31.757812 Z M 11.851562 3.640625 " clip-rule="nonzero"/></clipPath><clipPath id="4badfd8873"><path d="M 14 0 L 89 0 L 89 26 L 14 26 Z M 14 0 " clip-rule="nonzero"/></clipPath><clipPath id="2dd1871a15"><path d="M 11.851562 3.640625 L 88.273438 -5.234375 L 91.542969 22.882812 L 15.121094 31.757812 Z M 11.851562 3.640625 " clip-rule="nonzero"/></clipPath><clipPath id="93964c52a2"><path d="M 11.851562 3.640625 L 88.273438 -5.234375 L 91.542969 22.882812 L 15.121094 31.757812 Z M 11.851562 3.640625 " clip-rule="nonzero"/></clipPath><clipPath id="b3f06a8531"><path d="M 11.851562 3.640625 L 88.273438 -5.234375 L 91.542969 22.882812 L 15.121094 31.757812 Z M 11.851562 3.640625 " clip-rule="nonzero"/></clipPath><clipPath id="dcba7611b9"><path d="M 87.460938 0 L 115.039062 0 L 115.039062 26.039062 L 87.460938 26.039062 Z M 87.460938 0 " clip-rule="nonzero"/></clipPath></defs><g clip-path="url(#013492fec1)"><path fill="#ffffff" d="M 1.816406 0 L 125.203125 0 L 125.203125 29.03125 L 1.816406 29.03125 Z M 1.816406 0 " fill-opacity="1" fill-rule="nonzero"/><path fill="#ffffff" d="M 1.816406 0 L 125.203125 0 L 125.203125 29.03125 L 1.816406 29.03125 Z M 1.816406 0 " fill-opacity="1" fill-rule="nonzero"/></g><g clip-path="url(#29c9782d24)"><g clip-path="url(#e19394e2ad)"><g clip-path="url(#81eccce90d)"><g clip-path="url(#4ba2835d7a)"><path fill="#ff9740" d="M 71.136719 6.847656 C 69.472656 5.824219 67.441406 5.421875 65.011719 5.703125 C 62.089844 6.042969 59.769531 7.253906 58.023438 9.273438 C 57.730469 9.617188 57.460938 9.96875 57.222656 10.339844 C 55.300781 8.136719 52.636719 7.144531 49.167969 7.546875 C 47.273438 7.765625 45.628906 8.351562 44.234375 9.289062 L 44.246094 9.238281 C 44.246094 9.230469 44.25 9.222656 44.25 9.210938 C 44.476562 8.140625 44.507812 7.414062 44.464844 7.042969 C 44.285156 5.511719 43.207031 4.015625 40.519531 3.394531 C 39.664062 3.191406 38.933594 3.152344 38.324219 3.222656 C 37.347656 3.335938 36.578125 3.722656 35.980469 4.308594 C 35.410156 4.863281 35.082031 5.429688 34.910156 5.960938 C 34.828125 6.21875 34.722656 6.617188 34.601562 7.152344 C 34.597656 7.167969 34.59375 7.179688 34.589844 7.195312 L 34.128906 9.433594 L 33.019531 7.066406 C 33.003906 7.035156 32.992188 7.007812 32.976562 6.980469 C 32.664062 6.375 32.09375 5.730469 31.140625 5.179688 C 30.207031 4.636719 29.238281 4.445312 28.238281 4.5625 C 27.363281 4.664062 26.671875 4.902344 26.152344 5.203125 C 24.898438 5.925781 24.070312 7.035156 23.742188 8.582031 L 23.308594 10.65625 L 22.367188 8.640625 C 21.960938 7.71875 21.511719 7.070312 21.089844 6.648438 C 20.300781 5.855469 19.285156 5.460938 17.992188 5.613281 C 17.320312 5.691406 16.582031 5.902344 15.785156 6.28125 C 13.277344 7.472656 12.558594 9.179688 12.738281 10.726562 C 12.792969 11.183594 12.988281 11.882812 13.414062 12.792969 C 13.417969 12.800781 13.425781 12.8125 13.429688 12.820312 L 20.53125 27.414062 C 20.570312 27.488281 20.609375 27.5625 20.652344 27.632812 L 20.894531 28.023438 C 21.230469 28.5625 21.78125 29.125 22.636719 29.605469 C 23.464844 30.066406 24.460938 30.289062 25.648438 30.148438 C 26.914062 30.003906 27.953125 29.429688 28.757812 28.425781 C 29.015625 28.101562 29.238281 27.75 29.425781 27.371094 C 29.648438 26.910156 29.765625 26.546875 29.816406 26.304688 C 29.828125 26.25 30 25.449219 30.335938 23.90625 L 31.535156 26.421875 C 31.566406 26.488281 31.597656 26.546875 31.636719 26.609375 C 31.964844 27.171875 32.523438 27.761719 33.398438 28.28125 C 34.289062 28.808594 35.292969 29.03125 36.417969 28.898438 C 37.542969 28.769531 38.472656 28.324219 39.21875 27.601562 C 39.964844 26.886719 40.328125 26.265625 40.472656 25.863281 C 40.59375 25.535156 40.667969 25.253906 40.714844 25.019531 L 41.238281 22.675781 C 41.699219 23.496094 42.285156 24.261719 42.992188 24.976562 C 43.9375 25.945312 45.171875 26.695312 46.722656 27.171875 C 48.144531 27.609375 49.722656 27.742188 51.464844 27.542969 C 54.453125 27.195312 56.464844 26.445312 57.574219 25.5625 C 58.371094 24.929688 58.875 24.207031 59.117188 23.410156 C 60.023438 24.246094 61.164062 24.898438 62.566406 25.332031 C 63.984375 25.769531 65.566406 25.902344 67.304688 25.699219 C 70.296875 25.355469 72.308594 24.605469 73.417969 23.722656 C 73.65625 23.535156 73.867188 23.335938 74.050781 23.132812 C 74.839844 23.832031 76.136719 24.3125 78.074219 24.089844 C 80.464844 23.8125 81.648438 22.722656 82.101562 21.695312 C 82.355469 21.875 82.578125 22.027344 82.757812 22.144531 C 82.8125 22.179688 82.871094 22.210938 82.929688 22.242188 L 83.199219 22.386719 C 84.609375 23.1875 85.738281 23.363281 86.472656 23.28125 C 87.449219 23.164062 88.710938 22.523438 89.808594 20.804688 C 89.824219 20.78125 89.835938 20.761719 89.851562 20.738281 C 90.714844 19.28125 90.921875 18.105469 90.828125 17.324219 C 90.761719 16.75 90.542969 16.152344 90.09375 15.5625 C 89.855469 15.253906 89.355469 14.773438 88.511719 14.222656 C 88.507812 14.21875 88.5 14.214844 88.496094 14.210938 L 86.953125 13.222656 L 87.394531 12.753906 C 88.710938 11.371094 89.007812 10.085938 88.902344 9.1875 C 88.8125 8.417969 88.332031 7.304688 87.082031 6.082031 C 85.652344 4.679688 84.296875 4.355469 83.332031 4.464844 C 82.621094 4.546875 81.78125 4.871094 80.890625 5.578125 L 80.507812 2.273438 C 80.460938 1.867188 80.410156 1.558594 80.363281 1.339844 C 80.144531 0.0078125 79.496094 -0.867188 78.648438 -1.414062 C 77.890625 -1.910156 76.714844 -2.238281 75.066406 -2.046875 C 72.578125 -1.757812 71.382812 -0.585938 70.960938 0.519531 C 70.949219 0.550781 70.9375 0.582031 70.925781 0.613281 C 70.734375 1.1875 70.652344 1.6875 70.648438 2.109375 C 70.644531 2.394531 70.667969 2.820312 70.734375 3.378906 L 71.136719 6.851562 Z M 35.8125 24.175781 L 35.832031 24.136719 L 35.832031 24.140625 C 35.828125 24.152344 35.820312 24.164062 35.8125 24.175781 L 35.808594 24.1875 C 35.808594 24.183594 35.808594 24.179688 35.8125 24.175781 Z M 35.804688 24.03125 C 35.796875 24.039062 35.792969 24.042969 35.785156 24.050781 L 35.777344 24.0625 L 35.765625 24.074219 C 35.765625 24.074219 35.773438 24.066406 35.777344 24.0625 L 35.808594 24.03125 Z M 37.042969 18.710938 L 35.863281 23.96875 L 35.863281 23.972656 L 33.609375 19.25 C 34.097656 19.597656 34.710938 19.761719 35.339844 19.691406 C 36.035156 19.609375 36.640625 19.246094 37.039062 18.710938 Z M 24.949219 25.152344 L 22.601562 20.328125 C 23.113281 20.757812 23.789062 20.976562 24.488281 20.894531 C 25.128906 20.820312 25.699219 20.503906 26.097656 20.039062 L 24.988281 25.167969 L 24.976562 25.191406 Z M 76.753906 12.183594 C 77.023438 12.835938 77.566406 13.351562 78.261719 13.582031 C 79.117188 13.863281 80.054688 13.660156 80.71875 13.066406 C 80.636719 13.363281 80.613281 13.675781 80.652344 13.992188 C 80.683594 14.230469 80.746094 14.460938 80.839844 14.675781 C 80.0625 14.277344 79.125 14.316406 78.378906 14.785156 C 77.769531 15.167969 77.363281 15.789062 77.253906 16.472656 Z M 60.910156 14.097656 C 60.710938 14.785156 60.667969 15.542969 60.761719 16.371094 C 60.832031 16.96875 60.988281 17.53125 61.234375 18.054688 L 61.203125 17.847656 C 61.152344 17.410156 61.21875 16.988281 61.382812 16.609375 C 61.101562 16.261719 60.914062 15.835938 60.859375 15.359375 C 60.808594 14.945312 60.824219 14.523438 60.910156 14.101562 Z M 45.066406 15.941406 C 44.867188 16.625 44.824219 17.382812 44.917969 18.210938 C 44.988281 18.808594 45.144531 19.371094 45.390625 19.894531 L 45.359375 19.6875 C 45.308594 19.25 45.378906 18.828125 45.539062 18.449219 C 45.257812 18.101562 45.070312 17.675781 45.015625 17.199219 C 44.96875 16.785156 44.980469 16.363281 45.066406 15.941406 Z M 28.652344 9.472656 L 28.667969 9.472656 C 28.667969 9.472656 30.9375 14.316406 30.9375 14.316406 C 30.441406 13.945312 29.808594 13.765625 29.160156 13.839844 C 28.5 13.917969 27.917969 14.25 27.519531 14.738281 L 28.601562 9.578125 C 28.609375 9.546875 28.601562 9.507812 28.617188 9.484375 L 28.652344 9.476562 Z M 28.652344 9.472656 " fill-opacity="1" fill-rule="evenodd"/></g></g></g></g><g clip-path="url(#a2cbce425c)"><g clip-path="url(#539728bd38)"><g clip-path="url(#d4fc91c857)"><g clip-path="url(#84514e8d72)"><path fill="#ffffff" d="M 70.945312 5.214844 C 69.285156 4.191406 67.25 3.789062 64.820312 4.074219 C 61.898438 4.414062 59.578125 5.621094 57.835938 7.640625 C 57.539062 7.984375 57.273438 8.339844 57.035156 8.707031 C 55.109375 6.503906 52.445312 5.511719 48.980469 5.914062 C 47.082031 6.132812 45.441406 6.71875 44.042969 7.65625 L 44.054688 7.605469 C 44.058594 7.597656 44.058594 7.589844 44.0625 7.578125 C 44.289062 6.511719 44.316406 5.78125 44.273438 5.410156 C 44.097656 3.878906 43.015625 2.382812 40.328125 1.761719 C 39.476562 1.558594 38.742188 1.519531 38.136719 1.589844 C 37.160156 1.703125 36.390625 2.089844 35.789062 2.675781 C 35.222656 3.230469 34.894531 3.796875 34.722656 4.328125 C 34.636719 4.585938 34.53125 4.984375 34.410156 5.519531 C 34.40625 5.535156 34.402344 5.550781 34.402344 5.5625 L 33.9375 7.804688 L 32.828125 5.433594 C 32.816406 5.40625 32.800781 5.375 32.785156 5.347656 C 32.472656 4.742188 31.90625 4.097656 30.953125 3.546875 C 30.015625 3.007812 29.046875 2.8125 28.050781 2.929688 C 27.171875 3.03125 26.484375 3.269531 25.960938 3.574219 C 24.707031 4.292969 23.878906 5.402344 23.554688 6.949219 L 23.117188 9.023438 L 22.175781 7.007812 C 21.773438 6.089844 21.320312 5.441406 20.902344 5.015625 C 20.113281 4.226562 19.09375 3.832031 17.804688 3.980469 C 17.128906 4.058594 16.390625 4.269531 15.59375 4.648438 C 13.085938 5.839844 12.371094 7.546875 12.550781 9.09375 C 12.601562 9.554688 12.796875 10.25 13.226562 11.160156 C 13.230469 11.171875 13.234375 11.179688 13.238281 11.1875 L 20.34375 25.78125 C 20.378906 25.855469 20.417969 25.929688 20.464844 26 L 20.707031 26.390625 C 21.042969 26.929688 21.59375 27.492188 22.449219 27.972656 C 23.273438 28.4375 24.269531 28.65625 25.460938 28.519531 C 26.726562 28.371094 27.761719 27.796875 28.566406 26.792969 C 28.824219 26.46875 29.046875 26.117188 29.234375 25.738281 C 29.460938 25.277344 29.574219 24.917969 29.625 24.671875 C 29.636719 24.617188 29.8125 23.816406 30.144531 22.273438 L 31.347656 24.792969 C 31.375 24.855469 31.410156 24.917969 31.445312 24.976562 C 31.777344 25.539062 32.332031 26.128906 33.207031 26.648438 C 34.101562 27.175781 35.105469 27.398438 36.230469 27.265625 C 37.355469 27.136719 38.28125 26.691406 39.03125 25.972656 C 39.777344 25.253906 40.136719 24.632812 40.285156 24.230469 C 40.402344 23.90625 40.480469 23.621094 40.523438 23.386719 L 41.046875 21.042969 C 41.511719 21.863281 42.097656 22.628906 42.804688 23.34375 C 43.75 24.316406 44.984375 25.0625 46.53125 25.539062 C 47.953125 25.976562 49.53125 26.113281 51.273438 25.910156 C 54.265625 25.5625 56.273438 24.8125 57.386719 23.929688 C 58.183594 23.296875 58.6875 22.574219 58.925781 21.777344 C 59.832031 22.617188 60.976562 23.269531 62.375 23.699219 C 63.796875 24.136719 65.375 24.269531 67.117188 24.070312 C 70.109375 23.722656 72.117188 22.972656 73.226562 22.089844 C 73.464844 21.902344 73.675781 21.707031 73.863281 21.5 C 74.652344 22.199219 75.945312 22.683594 77.886719 22.457031 C 80.277344 22.179688 81.457031 21.089844 81.910156 20.0625 C 82.167969 20.246094 82.386719 20.394531 82.570312 20.511719 C 82.625 20.546875 82.679688 20.582031 82.738281 20.613281 L 83.007812 20.753906 C 84.417969 21.554688 85.546875 21.734375 86.28125 21.648438 C 87.261719 21.535156 88.523438 20.890625 89.617188 19.175781 C 89.632812 19.152344 89.648438 19.128906 89.660156 19.105469 C 90.527344 17.648438 90.730469 16.472656 90.640625 15.691406 C 90.574219 15.117188 90.355469 14.519531 89.90625 13.933594 C 89.667969 13.621094 89.164062 13.140625 88.324219 12.589844 C 88.316406 12.589844 88.3125 12.585938 88.308594 12.582031 L 86.765625 11.589844 L 87.203125 11.125 C 88.519531 9.742188 88.816406 8.453125 88.714844 7.554688 C 88.625 6.785156 88.144531 5.675781 86.894531 4.453125 C 85.460938 3.050781 84.105469 2.722656 83.144531 2.835938 C 82.433594 2.917969 81.589844 3.238281 80.699219 3.945312 L 80.316406 0.640625 C 80.269531 0.238281 80.21875 -0.0742188 80.175781 -0.292969 C 79.953125 -1.621094 79.308594 -2.496094 78.460938 -3.046875 C 77.703125 -3.539062 76.527344 -3.871094 74.878906 -3.679688 C 72.386719 -3.390625 71.195312 -2.21875 70.769531 -1.113281 C 70.757812 -1.082031 70.746094 -1.050781 70.734375 -1.015625 C 70.542969 -0.445312 70.464844 0.0546875 70.457031 0.476562 C 70.453125 0.761719 70.476562 1.1875 70.542969 1.746094 L 70.945312 5.21875 Z M 35.625 22.546875 L 35.640625 22.503906 L 35.640625 22.507812 C 35.636719 22.519531 35.628906 22.53125 35.621094 22.546875 L 35.617188 22.558594 C 35.617188 22.558594 35.621094 22.546875 35.621094 22.546875 Z M 35.617188 22.398438 C 35.609375 22.40625 35.601562 22.414062 35.597656 22.417969 L 35.585938 22.429688 L 35.578125 22.441406 C 35.578125 22.441406 35.582031 22.433594 35.585938 22.429688 Z M 36.851562 17.078125 L 35.675781 22.339844 L 33.421875 17.621094 C 33.910156 17.964844 34.523438 18.132812 35.148438 18.058594 C 35.84375 17.976562 36.453125 17.613281 36.851562 17.078125 Z M 24.757812 23.519531 L 22.410156 18.695312 C 22.921875 19.128906 23.601562 19.34375 24.296875 19.261719 C 24.9375 19.1875 25.507812 18.875 25.90625 18.40625 L 24.796875 23.535156 L 24.785156 23.558594 L 24.761719 23.519531 Z M 76.566406 10.554688 C 76.835938 11.203125 77.378906 11.71875 78.070312 11.949219 C 78.925781 12.230469 79.863281 12.03125 80.527344 11.433594 C 80.449219 11.730469 80.425781 12.046875 80.464844 12.359375 C 80.492188 12.597656 80.554688 12.828125 80.652344 13.042969 C 79.875 12.644531 78.9375 12.683594 78.1875 13.152344 C 77.578125 13.535156 77.175781 14.15625 77.0625 14.84375 L 76.566406 10.550781 Z M 60.722656 12.46875 C 60.519531 13.152344 60.476562 13.914062 60.574219 14.738281 C 60.640625 15.335938 60.800781 15.898438 61.042969 16.421875 L 61.011719 16.214844 C 60.960938 15.777344 61.03125 15.355469 61.191406 14.976562 C 60.914062 14.628906 60.722656 14.203125 60.667969 13.726562 C 60.621094 13.3125 60.632812 12.890625 60.71875 12.46875 Z M 44.878906 14.308594 C 44.675781 14.992188 44.632812 15.753906 44.730469 16.578125 C 44.800781 17.175781 44.957031 17.738281 45.199219 18.261719 L 45.171875 18.054688 C 45.121094 17.617188 45.1875 17.195312 45.347656 16.816406 C 45.070312 16.46875 44.882812 16.042969 44.824219 15.566406 C 44.777344 15.152344 44.789062 14.734375 44.878906 14.308594 Z M 28.464844 7.84375 L 28.476562 7.839844 C 28.476562 7.839844 30.746094 12.683594 30.746094 12.683594 C 30.25 12.316406 29.617188 12.132812 28.972656 12.210938 C 28.3125 12.285156 27.730469 12.617188 27.328125 13.105469 L 28.410156 7.949219 C 28.417969 7.914062 28.414062 7.878906 28.425781 7.851562 Z M 28.464844 7.84375 " fill-opacity="1" fill-rule="evenodd"/></g></g></g></g><g clip-path="url(#7134f2a26d)"><g clip-path="url(#bafbe93720)"><g clip-path="url(#5344431603)"><g clip-path="url(#651e45109d)"><path fill="#572716" d="M 56.574219 13.886719 C 56.703125 15 56.519531 15.859375 56.019531 16.464844 C 55.519531 17.070312 54.929688 17.410156 54.246094 17.492188 L 47.695312 18.253906 C 47.753906 18.765625 48.105469 19.160156 48.753906 19.433594 C 49.40625 19.710938 50.03125 19.8125 50.640625 19.742188 C 51.710938 19.621094 52.535156 19.410156 53.121094 19.121094 L 53.410156 18.976562 C 53.828125 18.722656 54.1875 18.582031 54.480469 18.546875 C 55.070312 18.476562 55.625 18.832031 56.144531 19.601562 C 56.441406 20.070312 56.609375 20.476562 56.652344 20.824219 C 56.839844 22.449219 54.96875 23.488281 51.042969 23.945312 C 49.679688 24.105469 48.441406 24.011719 47.328125 23.667969 C 46.214844 23.328125 45.316406 22.804688 44.636719 22.105469 C 43.304688 20.761719 42.53125 19.175781 42.320312 17.347656 C 42.050781 15.046875 42.589844 13.117188 43.929688 11.5625 C 45.273438 10.007812 47.070312 9.101562 49.316406 8.839844 C 51.878906 8.542969 53.863281 9.21875 55.269531 10.871094 C 56.007812 11.75 56.441406 12.753906 56.574219 13.886719 Z M 72.417969 12.046875 C 72.546875 13.160156 72.359375 14.019531 71.863281 14.625 C 71.363281 15.230469 70.769531 15.570312 70.089844 15.652344 L 63.535156 16.410156 C 63.59375 16.921875 63.949219 17.316406 64.597656 17.59375 C 65.246094 17.871094 65.875 17.972656 66.484375 17.902344 C 67.550781 17.777344 68.378906 17.570312 68.960938 17.28125 L 69.253906 17.136719 C 69.671875 16.882812 70.027344 16.742188 70.324219 16.707031 C 70.914062 16.636719 71.46875 16.992188 71.988281 17.761719 C 72.285156 18.230469 72.453125 18.636719 72.492188 18.980469 C 72.683594 20.609375 70.8125 21.648438 66.886719 22.105469 C 65.523438 22.265625 64.285156 22.171875 63.171875 21.828125 C 62.054688 21.488281 61.160156 20.964844 60.480469 20.265625 C 59.148438 18.921875 58.375 17.335938 58.164062 15.507812 C 57.894531 13.207031 58.433594 11.277344 59.773438 9.722656 C 61.117188 8.167969 62.910156 7.261719 65.160156 7 C 67.722656 6.703125 69.707031 7.378906 71.113281 9.03125 C 71.847656 9.90625 72.285156 10.914062 72.414062 12.046875 Z M 82.984375 12.542969 L 87.011719 15.128906 C 87.515625 15.460938 87.839844 15.71875 87.984375 15.90625 C 88.125 16.09375 88.207031 16.277344 88.230469 16.460938 C 88.28125 16.898438 88.0625 17.527344 87.578125 18.339844 C 87.042969 19.179688 86.535156 19.628906 86.054688 19.683594 C 85.648438 19.730469 85.054688 19.53125 84.277344 19.085938 L 83.976562 18.925781 C 83.511719 18.628906 82.789062 18.097656 81.800781 17.332031 C 80.816406 16.566406 80.070312 16.027344 79.570312 15.714844 L 79.8125 17.828125 C 79.863281 18.246094 79.886719 18.5625 79.882812 18.777344 C 79.878906 18.992188 79.820312 19.242188 79.703125 19.535156 C 79.519531 20.039062 78.835938 20.355469 77.65625 20.492188 C 76.476562 20.628906 75.757812 20.464844 75.441406 20 C 75.28125 19.742188 75.175781 19.507812 75.121094 19.300781 C 75.070312 19.09375 75.019531 18.78125 74.972656 18.359375 L 73.0625 1.941406 C 73.015625 1.523438 72.992188 1.207031 72.996094 0.992188 C 73 0.777344 73.050781 0.527344 73.148438 0.238281 C 73.347656 -0.285156 74.039062 -0.613281 75.21875 -0.753906 C 76.101562 -0.855469 76.746094 -0.773438 77.152344 -0.503906 C 77.496094 -0.285156 77.707031 0.0976562 77.789062 0.644531 C 77.828125 0.804688 77.867188 1.058594 77.90625 1.40625 L 78.914062 10.097656 C 79.214844 9.785156 79.664062 9.257812 80.261719 8.523438 C 80.855469 7.789062 81.304688 7.261719 81.605469 6.949219 L 81.910156 6.691406 C 82.5 6.125 83.023438 5.8125 83.484375 5.761719 C 83.945312 5.707031 84.519531 6.015625 85.203125 6.6875 C 85.886719 7.355469 86.253906 7.902344 86.304688 8.320312 C 86.351562 8.742188 86.070312 9.273438 85.453125 9.921875 L 82.984375 12.539062 Z M 39.808594 4.640625 C 41.09375 4.933594 41.777344 5.449219 41.863281 6.179688 C 41.890625 6.417969 41.832031 6.875 41.6875 7.558594 L 38.144531 23.390625 C 38.125 23.519531 38.078125 23.683594 38.007812 23.878906 C 37.933594 24.070312 37.71875 24.339844 37.359375 24.6875 C 36.996094 25.035156 36.542969 25.242188 36 25.304688 C 35.457031 25.367188 34.96875 25.273438 34.539062 25.015625 C 34.105469 24.761719 33.808594 24.496094 33.648438 24.21875 L 29.3125 15.136719 C 27.964844 21.367188 27.277344 24.539062 27.253906 24.65625 C 27.230469 24.769531 27.164062 24.933594 27.058594 25.148438 C 26.953125 25.367188 26.828125 25.566406 26.679688 25.75 C 26.304688 26.21875 25.820312 26.488281 25.230469 26.554688 C 24.640625 26.625 24.140625 26.542969 23.734375 26.3125 C 23.324219 26.082031 23.039062 25.839844 22.875 25.578125 L 22.636719 25.191406 L 15.53125 10.597656 C 15.257812 10.019531 15.105469 9.582031 15.070312 9.289062 C 14.984375 8.558594 15.535156 7.914062 16.722656 7.347656 C 17.238281 7.105469 17.710938 6.957031 18.144531 6.90625 C 18.574219 6.855469 18.925781 6.964844 19.1875 7.230469 C 19.453125 7.496094 19.714844 7.917969 19.96875 8.5 L 24.070312 17.300781 L 26.039062 7.933594 C 26.207031 7.136719 26.617188 6.550781 27.265625 6.179688 C 27.542969 6.019531 27.917969 5.910156 28.390625 5.855469 C 28.859375 5.800781 29.316406 5.902344 29.753906 6.15625 C 30.195312 6.410156 30.488281 6.675781 30.632812 6.957031 L 34.917969 16.097656 L 36.890625 6.535156 C 36.988281 6.097656 37.070312 5.773438 37.140625 5.558594 C 37.207031 5.347656 37.355469 5.132812 37.582031 4.910156 C 37.808594 4.691406 38.105469 4.558594 38.476562 4.515625 C 38.84375 4.472656 39.289062 4.515625 39.804688 4.640625 Z M 50.832031 15.359375 C 51.53125 15.277344 51.847656 14.945312 51.78125 14.359375 C 51.734375 13.941406 51.53125 13.621094 51.179688 13.402344 C 50.828125 13.183594 50.351562 13.109375 49.75 13.179688 C 49.152344 13.25 48.585938 13.558594 48.054688 14.113281 C 47.519531 14.664062 47.285156 15.214844 47.347656 15.765625 Z M 66.675781 13.519531 C 67.375 13.4375 67.691406 13.105469 67.625 12.519531 C 67.574219 12.097656 67.375 11.78125 67.023438 11.5625 C 66.671875 11.34375 66.195312 11.269531 65.59375 11.339844 C 64.996094 11.40625 64.429688 11.71875 63.898438 12.273438 C 63.363281 12.824219 63.128906 13.375 63.191406 13.921875 Z M 66.675781 13.519531 " fill-opacity="1" fill-rule="nonzero"/></g></g></g></g><g clip-path="url(#4badfd8873)"><g clip-path="url(#2dd1871a15)"><g clip-path="url(#93964c52a2)"><g clip-path="url(#b3f06a8531)"><path fill="#bc5952" d="M 56.421875 12.589844 C 56.554688 13.707031 56.367188 14.566406 55.867188 15.171875 C 55.367188 15.773438 54.777344 16.117188 54.097656 16.195312 L 47.542969 16.957031 C 47.601562 17.46875 47.957031 17.863281 48.605469 18.136719 C 49.253906 18.414062 49.882812 18.515625 50.492188 18.445312 C 51.558594 18.324219 52.386719 18.117188 52.96875 17.824219 L 53.261719 17.679688 C 53.679688 17.429688 54.035156 17.285156 54.332031 17.25 C 54.921875 17.183594 55.476562 17.535156 55.996094 18.308594 C 56.292969 18.773438 56.460938 19.179688 56.5 19.527344 C 56.6875 21.152344 54.820312 22.195312 50.894531 22.648438 C 49.53125 22.808594 48.292969 22.714844 47.175781 22.375 C 46.0625 22.03125 45.167969 21.511719 44.488281 20.8125 C 43.152344 19.464844 42.382812 17.878906 42.167969 16.050781 C 41.902344 13.75 42.4375 11.824219 43.78125 10.265625 C 45.121094 8.714844 46.917969 7.804688 49.167969 7.542969 C 51.730469 7.246094 53.714844 7.921875 55.117188 9.574219 C 55.855469 10.453125 56.289062 11.457031 56.421875 12.589844 Z M 72.265625 10.75 C 72.394531 11.867188 72.210938 12.726562 71.710938 13.328125 C 71.210938 13.933594 70.621094 14.277344 69.9375 14.355469 L 63.386719 15.117188 C 63.445312 15.628906 63.800781 16.023438 64.449219 16.296875 C 65.097656 16.574219 65.722656 16.675781 66.332031 16.605469 C 67.402344 16.484375 68.226562 16.273438 68.8125 15.984375 L 69.101562 15.839844 C 69.519531 15.589844 69.878906 15.445312 70.171875 15.410156 C 70.761719 15.34375 71.316406 15.695312 71.835938 16.46875 C 72.132812 16.933594 72.300781 17.339844 72.34375 17.6875 C 72.53125 19.3125 70.664062 20.355469 66.738281 20.808594 C 65.371094 20.96875 64.132812 20.875 63.019531 20.535156 C 61.90625 20.191406 61.007812 19.667969 60.328125 18.972656 C 58.996094 17.625 58.222656 16.039062 58.011719 14.210938 C 57.746094 11.910156 58.28125 9.980469 59.625 8.425781 C 60.964844 6.875 62.761719 5.964844 65.007812 5.703125 C 67.570312 5.40625 69.554688 6.082031 70.960938 7.734375 C 71.699219 8.613281 72.132812 9.617188 72.265625 10.75 Z M 82.832031 11.246094 L 86.859375 13.832031 C 87.367188 14.164062 87.691406 14.421875 87.832031 14.609375 C 87.976562 14.796875 88.058594 14.980469 88.078125 15.164062 C 88.128906 15.601562 87.914062 16.230469 87.429688 17.042969 C 86.890625 17.886719 86.382812 18.332031 85.902344 18.390625 C 85.5 18.4375 84.90625 18.234375 84.125 17.789062 L 83.828125 17.628906 C 83.363281 17.332031 82.636719 16.800781 81.652344 16.035156 C 80.664062 15.269531 79.921875 14.730469 79.417969 14.421875 L 79.664062 16.53125 C 79.710938 16.949219 79.734375 17.269531 79.730469 17.480469 C 79.726562 17.695312 79.667969 17.945312 79.554688 18.238281 C 79.367188 18.742188 78.6875 19.0625 77.507812 19.199219 C 76.328125 19.335938 75.605469 19.167969 75.292969 18.707031 C 75.132812 18.445312 75.023438 18.214844 74.972656 18.007812 C 74.921875 17.800781 74.871094 17.488281 74.820312 17.066406 L 72.914062 0.648438 C 72.863281 0.226562 72.84375 -0.0898438 72.84375 -0.304688 C 72.847656 -0.515625 72.898438 -0.769531 72.996094 -1.058594 C 73.195312 -1.582031 73.886719 -1.910156 75.066406 -2.046875 C 75.953125 -2.152344 76.597656 -2.066406 77 -1.800781 C 77.34375 -1.582031 77.558594 -1.199219 77.640625 -0.652344 C 77.675781 -0.492188 77.714844 -0.234375 77.753906 0.113281 L 78.765625 8.800781 C 79.066406 8.488281 79.511719 7.964844 80.109375 7.226562 C 80.707031 6.492188 81.152344 5.96875 81.453125 5.65625 L 81.761719 5.398438 C 82.347656 4.828125 82.875 4.519531 83.335938 4.464844 C 83.796875 4.410156 84.367188 4.71875 85.054688 5.390625 C 85.738281 6.058594 86.105469 6.605469 86.152344 7.027344 C 86.203125 7.445312 85.917969 7.980469 85.304688 8.625 Z M 39.65625 3.34375 C 40.941406 3.636719 41.628906 4.152344 41.714844 4.882812 C 41.742188 5.121094 41.683594 5.582031 41.539062 6.265625 L 37.996094 22.09375 C 37.972656 22.226562 37.925781 22.386719 37.855469 22.582031 C 37.785156 22.773438 37.570312 23.046875 37.207031 23.394531 C 36.847656 23.742188 36.394531 23.945312 35.851562 24.007812 C 35.308594 24.074219 34.820312 23.976562 34.386719 23.722656 C 33.957031 23.464844 33.660156 23.199219 33.496094 22.921875 L 29.164062 13.839844 C 27.8125 20.074219 27.125 23.246094 27.101562 23.359375 C 27.078125 23.472656 27.011719 23.636719 26.90625 23.855469 C 26.800781 24.070312 26.675781 24.269531 26.527344 24.453125 C 26.152344 24.921875 25.671875 25.191406 25.082031 25.257812 C 24.492188 25.328125 23.992188 25.246094 23.582031 25.015625 C 23.171875 24.785156 22.886719 24.542969 22.726562 24.285156 L 22.484375 23.894531 L 15.382812 9.304688 C 15.109375 8.722656 14.953125 8.289062 14.921875 7.996094 C 14.835938 7.265625 15.386719 6.617188 16.574219 6.054688 C 17.085938 5.808594 17.558594 5.660156 17.992188 5.609375 C 18.425781 5.558594 18.773438 5.667969 19.039062 5.933594 C 19.304688 6.199219 19.5625 6.621094 19.816406 7.203125 L 23.921875 16.003906 L 25.886719 6.636719 C 26.058594 5.839844 26.464844 5.257812 27.113281 4.882812 C 27.394531 4.722656 27.769531 4.613281 28.238281 4.558594 C 28.710938 4.503906 29.164062 4.605469 29.605469 4.859375 C 30.046875 5.113281 30.335938 5.378906 30.480469 5.660156 L 34.765625 14.800781 L 36.738281 5.238281 C 36.835938 4.800781 36.921875 4.476562 36.988281 4.265625 C 37.058594 4.054688 37.207031 3.839844 37.433594 3.617188 C 37.660156 3.394531 37.957031 3.265625 38.324219 3.222656 C 38.695312 3.179688 39.136719 3.21875 39.65625 3.34375 Z M 50.683594 14.0625 C 51.382812 13.980469 51.699219 13.648438 51.628906 13.0625 C 51.582031 12.644531 51.382812 12.324219 51.027344 12.105469 C 50.675781 11.886719 50.203125 11.8125 49.601562 11.882812 C 49 11.953125 48.4375 12.265625 47.902344 12.816406 C 47.371094 13.371094 47.132812 13.921875 47.199219 14.46875 L 50.679688 14.0625 Z M 66.523438 12.222656 C 67.226562 12.140625 67.542969 11.808594 67.472656 11.222656 C 67.425781 10.804688 67.222656 10.484375 66.871094 10.265625 C 66.519531 10.046875 66.042969 9.972656 65.445312 10.042969 C 64.847656 10.113281 64.28125 10.425781 63.746094 10.976562 C 63.210938 11.527344 62.976562 12.078125 63.039062 12.628906 Z M 66.523438 12.222656 " fill-opacity="1" fill-rule="nonzero"/></g></g></g></g><g clip-path="url(#dcba7611b9)"><path fill="#bc5952" d="M 90.265625 26.117188 L 112.3125 26.117188 C 112.6875 26.117188 113.042969 26.046875 113.386719 25.90625 C 113.730469 25.761719 114.035156 25.558594 114.296875 25.296875 C 114.5625 25.035156 114.765625 24.730469 114.90625 24.386719 C 115.046875 24.042969 115.121094 23.6875 115.121094 23.3125 L 115.121094 1.265625 C 115.121094 0.890625 115.046875 0.535156 114.90625 0.191406 C 114.765625 -0.152344 114.5625 -0.457031 114.296875 -0.71875 C 114.035156 -0.980469 113.730469 -1.183594 113.386719 -1.328125 C 113.042969 -1.46875 112.6875 -1.539062 112.3125 -1.539062 L 90.265625 -1.539062 C 89.894531 -1.539062 89.535156 -1.46875 89.191406 -1.328125 C 88.847656 -1.183594 88.542969 -0.980469 88.28125 -0.71875 C 88.019531 -0.457031 87.816406 -0.152344 87.671875 0.191406 C 87.53125 0.535156 87.460938 0.890625 87.460938 1.265625 L 87.460938 23.3125 C 87.460938 23.6875 87.53125 24.042969 87.671875 24.386719 C 87.816406 24.730469 88.019531 25.035156 88.28125 25.296875 C 88.542969 25.558594 88.847656 25.761719 89.191406 25.90625 C 89.535156 26.046875 89.894531 26.117188 90.265625 26.117188 Z M 109.527344 21.234375 C 109.523438 21.488281 109.433594 21.707031 109.253906 21.886719 C 109.074219 22.066406 108.859375 22.160156 108.605469 22.167969 L 106.722656 22.167969 C 106.460938 22.167969 106.238281 22.074219 106.050781 21.890625 C 105.867188 21.703125 105.773438 21.480469 105.773438 21.21875 L 105.773438 19.5 C 105.773438 19.238281 105.867188 19.015625 106.050781 18.828125 C 106.238281 18.644531 106.460938 18.550781 106.722656 18.550781 L 108.605469 18.550781 C 108.867188 18.550781 109.089844 18.644531 109.273438 18.828125 C 109.460938 19.015625 109.554688 19.238281 109.554688 19.5 Z M 106.722656 2.410156 L 108.621094 2.410156 C 108.882812 2.410156 109.105469 2.503906 109.289062 2.6875 C 109.476562 2.875 109.566406 3.097656 109.566406 3.359375 L 109.566406 6.5 L 109.105469 15.785156 C 109.089844 16.039062 108.992188 16.25 108.808594 16.425781 C 108.625 16.597656 108.40625 16.683594 108.15625 16.683594 L 107.21875 16.683594 C 106.957031 16.695312 106.730469 16.613281 106.539062 16.4375 C 106.34375 16.265625 106.242188 16.046875 106.230469 15.785156 L 105.734375 6.539062 L 105.734375 3.359375 C 105.734375 3.230469 105.761719 3.105469 105.8125 2.988281 C 105.863281 2.867188 105.933594 2.761719 106.027344 2.675781 C 106.121094 2.585938 106.226562 2.515625 106.347656 2.472656 C 106.46875 2.425781 106.59375 2.40625 106.722656 2.410156 Z M 93.027344 3.363281 C 93.027344 3.238281 93.050781 3.117188 93.097656 3 C 93.144531 2.882812 93.214844 2.78125 93.300781 2.691406 C 93.390625 2.601562 93.492188 2.53125 93.609375 2.484375 C 93.726562 2.433594 93.847656 2.410156 93.972656 2.410156 L 95.796875 2.410156 C 96.058594 2.410156 96.28125 2.503906 96.46875 2.6875 C 96.652344 2.875 96.746094 3.097656 96.746094 3.359375 L 96.746094 4.699219 C 96.746094 4.960938 96.652344 5.183594 96.46875 5.367188 C 96.28125 5.554688 96.058594 5.644531 95.796875 5.644531 L 93.96875 5.644531 C 93.707031 5.644531 93.484375 5.554688 93.300781 5.367188 C 93.113281 5.183594 93.019531 4.960938 93.019531 4.699219 Z M 93.953125 7.402344 L 97.71875 7.402344 C 97.980469 7.402344 98.203125 7.3125 98.390625 7.125 C 98.574219 6.941406 98.667969 6.71875 98.667969 6.457031 L 98.667969 3.359375 C 98.667969 3.097656 98.757812 2.875 98.941406 2.691406 C 99.125 2.503906 99.347656 2.410156 99.609375 2.410156 L 101.496094 2.410156 C 101.757812 2.410156 101.984375 2.503906 102.167969 2.6875 C 102.351562 2.875 102.445312 3.097656 102.445312 3.359375 L 102.445312 6.464844 C 102.445312 6.726562 102.539062 6.949219 102.722656 7.136719 C 102.910156 7.320312 103.132812 7.414062 103.394531 7.414062 L 103.679688 7.414062 C 103.941406 7.414062 104.164062 7.507812 104.351562 7.691406 C 104.535156 7.875 104.628906 8.101562 104.628906 8.363281 L 104.628906 9.050781 C 104.628906 9.3125 104.535156 9.535156 104.351562 9.71875 C 104.164062 9.90625 103.941406 9.996094 103.679688 9.996094 L 103.398438 9.996094 C 103.136719 9.996094 102.914062 10.089844 102.726562 10.273438 C 102.542969 10.460938 102.449219 10.683594 102.449219 10.945312 L 102.449219 18.222656 C 102.449219 19.054688 102.839844 19.40625 103.671875 19.4375 C 103.929688 19.449219 104.148438 19.546875 104.328125 19.730469 C 104.507812 19.914062 104.601562 20.136719 104.609375 20.394531 L 104.609375 21.179688 C 104.605469 21.421875 104.523438 21.628906 104.363281 21.804688 C 104.199219 21.984375 104 22.085938 103.757812 22.109375 C 102.699219 22.230469 101.644531 22.207031 100.59375 22.039062 C 99.433594 21.808594 98.898438 21.164062 98.742188 19.914062 C 98.683594 19.480469 98.65625 19.042969 98.65625 18.605469 L 98.65625 10.492188 C 98.65625 10.355469 98.609375 10.238281 98.511719 10.140625 C 98.414062 10.046875 98.300781 9.996094 98.164062 9.996094 L 97.296875 9.996094 C 97.148438 9.996094 97.023438 10.050781 96.917969 10.15625 C 96.8125 10.261719 96.761719 10.386719 96.761719 10.535156 L 96.761719 21.21875 C 96.761719 21.480469 96.667969 21.703125 96.484375 21.886719 C 96.304688 22.070312 96.082031 22.164062 95.820312 22.167969 L 93.964844 22.167969 C 93.703125 22.167969 93.480469 22.074219 93.292969 21.890625 C 93.109375 21.703125 93.015625 21.480469 93.015625 21.21875 L 93.015625 8.335938 C 93.019531 8.082031 93.113281 7.863281 93.296875 7.679688 C 93.476562 7.5 93.699219 7.40625 93.953125 7.402344 Z M 93.953125 7.402344 " fill-opacity="1" fill-rule="nonzero"/></g></svg>